<svg xmlns="http://www.w3.org/2000/svg" width="1147" height="1147" xml:space="preserve"><path fill="#FFF" d="M0 0h1147v1147H0z"/><defs transform="translate(62 62)"><linearGradient gradientTransform="rotate(90)" id="a"><stop offset="5%" stop-color="#0277BD"/><stop offset="95%"/></linearGradient><mask id="b"><path d="M0 0h100v100H0z" transform="translate(248) scale(.31)" style="fill:#fff"/><path d="M0 0h100v100H0z" transform="translate(279) scale(.31)" style="fill:#fff"/><path d="M0 0h100v100H0z" transform="translate(341) scale(.31)" style="fill:#fff"/><path d="M0 0h100v100H0z" transform="translate(372) scale(.31)" style="fill:#fff"/><path d="M0 0h100v100H0z" transform="translate(403) scale(.31)" style="fill:#fff"/><path d="M0 0h100v100H0z" transform="translate(434) scale(.31)" style="fill:#fff"/><path d="M0 0h100v100H0z" transform="translate(527) scale(.31)" style="fill:#fff"/><path d="M0 0h100v100H0z" transform="translate(620) scale(.31)" style="fill:#fff"/><path d="M0 0h100v100H0z" transform="translate(651) scale(.31)" style="fill:#fff"/><path d="M0 0h100v100H0z" transform="translate(682) scale(.31)" style="fill:#fff"/><path d="M0 0h100v100H0z" transform="matrix(.31 0 0 .31 248 31)" style="fill:#fff"/><path d="M0 0h100v100H0z" transform="matrix(.31 0 0 .31 279 31)" style="fill:#fff"/><path d="M0 0h100v100H0z" transform="matrix(.31 0 0 .31 403 31)" style="fill:#fff"/><path d="M0 0h100v100H0z" transform="matrix(.31 0 0 .31 434 31)" style="fill:#fff"/><path d="M0 0h100v100H0z" transform="matrix(.31 0 0 .31 496 31)" style="fill:#fff"/><path d="M0 0h100v100H0z" transform="matrix(.31 0 0 .31 527 31)" style="fill:#fff"/><path d="M0 0h100v100H0z" transform="matrix(.31 0 0 .31 589 31)" style="fill:#fff"/><path d="M0 0h100v100H0z" transform="matrix(.31 0 0 .31 651 31)" style="fill:#fff"/><path d="M0 0h100v100H0z" transform="matrix(.31 0 0 .31 248 62)" style="fill:#fff"/><path d="M0 0h100v100H0z" transform="matrix(.31 0 0 .31 279 62)" style="fill:#fff"/><path d="M0 0h100v100H0z" transform="matrix(.31 0 0 .31 310 62)" style="fill:#fff"/><path d="M0 0h100v100H0z" transform="matrix(.31 0 0 .31 341 62)" style="fill:#fff"/><path d="M0 0h100v100H0z" transform="matrix(.31 0 0 .31 465 62)" style="fill:#fff"/><path d="M0 0h100v100H0z" transform="matrix(.31 0 0 .31 496 62)" style="fill:#fff"/><path d="M0 0h100v100H0z" transform="matrix(.31 0 0 .31 558 62)" style="fill:#fff"/><path d="M0 0h100v100H0z" transform="matrix(.31 0 0 .31 589 62)" style="fill:#fff"/><path d="M0 0h100v100H0z" transform="matrix(.31 0 0 .31 620 62)" style="fill:#fff"/><path d="M0 0h100v100H0z" transform="matrix(.31 0 0 .31 682 62)" style="fill:#fff"/><path d="M0 0h100v100H0z" transform="matrix(.31 0 0 .31 713 62)" style="fill:#fff"/><path d="M0 0h100v100H0z" transform="matrix(.31 0 0 .31 744 62)" style="fill:#fff"/><path d="M0 0h100v100H0z" transform="matrix(.31 0 0 .31 279 93)" style="fill:#fff"/><path d="M0 0h100v100H0z" transform="matrix(.31 0 0 .31 434 93)" style="fill:#fff"/><path d="M0 0h100v100H0z" transform="matrix(.31 0 0 .31 496 93)" style="fill:#fff"/><path d="M0 0h100v100H0z" transform="matrix(.31 0 0 .31 527 93)" style="fill:#fff"/><path d="M0 0h100v100H0z" transform="matrix(.31 0 0 .31 589 93)" style="fill:#fff"/><path d="M0 0h100v100H0z" transform="matrix(.31 0 0 .31 620 93)" style="fill:#fff"/><path d="M0 0h100v100H0z" transform="matrix(.31 0 0 .31 682 93)" style="fill:#fff"/><path d="M0 0h100v100H0z" transform="matrix(.31 0 0 .31 744 93)" style="fill:#fff"/><path d="M0 0h100v100H0z" transform="matrix(.31 0 0 .31 248 124)" style="fill:#fff"/><path d="M0 0h100v100H0z" transform="matrix(.31 0 0 .31 279 124)" style="fill:#fff"/><path d="M0 0h100v100H0z" transform="matrix(.31 0 0 .31 341 124)" style="fill:#fff"/><path d="M0 0h100v100H0z" transform="matrix(.31 0 0 .31 465 124)" style="fill:#fff"/><path d="M0 0h100v100H0z" transform="matrix(.31 0 0 .31 558 124)" style="fill:#fff"/><path d="M0 0h100v100H0z" transform="matrix(.31 0 0 .31 589 124)" style="fill:#fff"/><path d="M0 0h100v100H0z" transform="matrix(.31 0 0 .31 651 124)" style="fill:#fff"/><path d="M0 0h100v100H0z" transform="matrix(.31 0 0 .31 279 155)" style="fill:#fff"/><path d="M0 0h100v100H0z" transform="matrix(.31 0 0 .31 341 155)" style="fill:#fff"/><path d="M0 0h100v100H0z" transform="matrix(.31 0 0 .31 372 155)" style="fill:#fff"/><path d="M0 0h100v100H0z" transform="matrix(.31 0 0 .31 434 155)" style="fill:#fff"/><path d="M0 0h100v100H0z" transform="matrix(.31 0 0 .31 465 155)" style="fill:#fff"/><path d="M0 0h100v100H0z" transform="matrix(.31 0 0 .31 496 155)" style="fill:#fff"/><path d="M0 0h100v100H0z" transform="matrix(.31 0 0 .31 248 186)" style="fill:#fff"/><path d="M0 0h100v100H0z" transform="matrix(.31 0 0 .31 310 186)" style="fill:#fff"/><path d="M0 0h100v100H0z" transform="matrix(.31 0 0 .31 372 186)" style="fill:#fff"/><path d="M0 0h100v100H0z" transform="matrix(.31 0 0 .31 434 186)" style="fill:#fff"/><path d="M0 0h100v100H0z" transform="matrix(.31 0 0 .31 496 186)" style="fill:#fff"/><path d="M0 0h100v100H0z" transform="matrix(.31 0 0 .31 558 186)" style="fill:#fff"/><path d="M0 0h100v100H0z" transform="matrix(.31 0 0 .31 620 186)" style="fill:#fff"/><path d="M0 0h100v100H0z" transform="matrix(.31 0 0 .31 682 186)" style="fill:#fff"/><path d="M0 0h100v100H0z" transform="matrix(.31 0 0 .31 744 186)" style="fill:#fff"/><path d="M0 0h100v100H0z" transform="matrix(.31 0 0 .31 341 217)" style="fill:#fff"/><path d="M0 0h100v100H0z" transform="matrix(.31 0 0 .31 403 217)" style="fill:#fff"/><path d="M0 0h100v100H0z" transform="matrix(.31 0 0 .31 434 217)" style="fill:#fff"/><path d="M0 0h100v100H0z" transform="matrix(.31 0 0 .31 465 217)" style="fill:#fff"/><path d="M0 0h100v100H0z" transform="matrix(.31 0 0 .31 558 217)" style="fill:#fff"/><path d="M0 0h100v100H0z" transform="matrix(.31 0 0 .31 589 217)" style="fill:#fff"/><path d="M0 0h100v100H0z" transform="matrix(.31 0 0 .31 620 217)" style="fill:#fff"/><path d="M0 0h100v100H0z" transform="matrix(.31 0 0 .31 682 217)" style="fill:#fff"/><path d="M0 0h100v100H0z" transform="matrix(.31 0 0 .31 713 217)" style="fill:#fff"/><path d="M0 0h100v100H0z" transform="matrix(.31 0 0 .31 0 248)" style="fill:#fff"/><path d="M0 0h100v100H0z" transform="matrix(.31 0 0 .31 93 248)" style="fill:#fff"/><path d="M0 0h100v100H0z" transform="matrix(.31 0 0 .31 124 248)" style="fill:#fff"/><path d="M0 0h100v100H0z" transform="matrix(.31 0 0 .31 155 248)" style="fill:#fff"/><path d="M0 0h100v100H0z" transform="matrix(.31 0 0 .31 186 248)" style="fill:#fff"/><path d="M0 0h100v100H0z" transform="matrix(.31 0 0 .31 217 248)" style="fill:#fff"/><path d="M0 0h100v100H0z" transform="matrix(.31 0 0 .31 248 248)" style="fill:#fff"/><path d="M0 0h100v100H0z" transform="matrix(.31 0 0 .31 310 248)" style="fill:#fff"/><path d="M0 0h100v100H0z" transform="matrix(.31 0 0 .31 372 248)" style="fill:#fff"/><path d="M0 0h100v100H0z" transform="matrix(.31 0 0 .31 434 248)" style="fill:#fff"/><path d="M0 0h100v100H0z" transform="matrix(.31 0 0 .31 465 248)" style="fill:#fff"/><path d="M0 0h100v100H0z" transform="matrix(.31 0 0 .31 496 248)" style="fill:#fff"/><path d="M0 0h100v100H0z" transform="matrix(.31 0 0 .31 527 248)" style="fill:#fff"/><path d="M0 0h100v100H0z" transform="matrix(.31 0 0 .31 558 248)" style="fill:#fff"/><path d="M0 0h100v100H0z" transform="matrix(.31 0 0 .31 620 248)" style="fill:#fff"/><path d="M0 0h100v100H0z" transform="matrix(.31 0 0 .31 682 248)" style="fill:#fff"/><path d="M0 0h100v100H0z" transform="matrix(.31 0 0 .31 775 248)" style="fill:#fff"/><path d="M0 0h100v100H0z" transform="matrix(.31 0 0 .31 868 248)" style="fill:#fff"/><path d="M0 0h100v100H0z" transform="matrix(.31 0 0 .31 930 248)" style="fill:#fff"/><path d="M0 0h100v100H0z" transform="matrix(.31 0 0 .31 961 248)" style="fill:#fff"/><path d="M0 0h100v100H0z" transform="matrix(.31 0 0 .31 992 248)" style="fill:#fff"/><path d="M0 0h100v100H0z" transform="matrix(.31 0 0 .31 62 279)" style="fill:#fff"/><path d="M0 0h100v100H0z" transform="matrix(.31 0 0 .31 93 279)" style="fill:#fff"/><path d="M0 0h100v100H0z" transform="matrix(.31 0 0 .31 155 279)" style="fill:#fff"/><path d="M0 0h100v100H0z" transform="matrix(.31 0 0 .31 248 279)" style="fill:#fff"/><path d="M0 0h100v100H0z" transform="matrix(.31 0 0 .31 310 279)" style="fill:#fff"/><path d="M0 0h100v100H0z" transform="matrix(.31 0 0 .31 341 279)" style="fill:#fff"/><path d="M0 0h100v100H0z" transform="matrix(.31 0 0 .31 403 279)" style="fill:#fff"/><path d="M0 0h100v100H0z" transform="matrix(.31 0 0 .31 434 279)" style="fill:#fff"/><path d="M0 0h100v100H0z" transform="matrix(.31 0 0 .31 465 279)" style="fill:#fff"/><path d="M0 0h100v100H0z" transform="matrix(.31 0 0 .31 558 279)" style="fill:#fff"/><path d="M0 0h100v100H0z" transform="matrix(.31 0 0 .31 589 279)" style="fill:#fff"/><path d="M0 0h100v100H0z" transform="matrix(.31 0 0 .31 620 279)" style="fill:#fff"/><path d="M0 0h100v100H0z" transform="matrix(.31 0 0 .31 682 279)" style="fill:#fff"/><path d="M0 0h100v100H0z" transform="matrix(.31 0 0 .31 713 279)" style="fill:#fff"/><path d="M0 0h100v100H0z" transform="matrix(.31 0 0 .31 837 279)" style="fill:#fff"/><path d="M0 0h100v100H0z" transform="matrix(.31 0 0 .31 868 279)" style="fill:#fff"/><path d="M0 0h100v100H0z" transform="matrix(.31 0 0 .31 899 279)" style="fill:#fff"/><path d="M0 0h100v100H0z" transform="matrix(.31 0 0 .31 992 279)" style="fill:#fff"/><path d="M0 0h100v100H0z" transform="matrix(.31 0 0 .31 0 310)" style="fill:#fff"/><path d="M0 0h100v100H0z" transform="matrix(.31 0 0 .31 31 310)" style="fill:#fff"/><path d="M0 0h100v100H0z" transform="matrix(.31 0 0 .31 93 310)" style="fill:#fff"/><path d="M0 0h100v100H0z" transform="matrix(.31 0 0 .31 124 310)" style="fill:#fff"/><path d="M0 0h100v100H0z" transform="matrix(.31 0 0 .31 155 310)" style="fill:#fff"/><path d="M0 0h100v100H0z" transform="matrix(.31 0 0 .31 186 310)" style="fill:#fff"/><path d="M0 0h100v100H0z" transform="matrix(.31 0 0 .31 217 310)" style="fill:#fff"/><path d="M0 0h100v100H0z" transform="matrix(.31 0 0 .31 248 310)" style="fill:#fff"/><path d="M0 0h100v100H0z" transform="matrix(.31 0 0 .31 341 310)" style="fill:#fff"/><path d="M0 0h100v100H0z" transform="matrix(.31 0 0 .31 434 310)" style="fill:#fff"/><path d="M0 0h100v100H0z" transform="matrix(.31 0 0 .31 465 310)" style="fill:#fff"/><path d="M0 0h100v100H0z" transform="matrix(.31 0 0 .31 496 310)" style="fill:#fff"/><path d="M0 0h100v100H0z" transform="matrix(.31 0 0 .31 527 310)" style="fill:#fff"/><path d="M0 0h100v100H0z" transform="matrix(.31 0 0 .31 620 310)" style="fill:#fff"/><path d="M0 0h100v100H0z" transform="matrix(.31 0 0 .31 651 310)" style="fill:#fff"/><path d="M0 0h100v100H0z" transform="matrix(.31 0 0 .31 713 310)" style="fill:#fff"/><path d="M0 0h100v100H0z" transform="matrix(.31 0 0 .31 744 310)" style="fill:#fff"/><path d="M0 0h100v100H0z" transform="matrix(.31 0 0 .31 806 310)" style="fill:#fff"/><path d="M0 0h100v100H0z" transform="matrix(.31 0 0 .31 837 310)" style="fill:#fff"/><path d="M0 0h100v100H0z" transform="matrix(.31 0 0 .31 868 310)" style="fill:#fff"/><path d="M0 0h100v100H0z" transform="matrix(.31 0 0 .31 961 310)" style="fill:#fff"/><path d="M0 0h100v100H0z" transform="matrix(.31 0 0 .31 992 310)" style="fill:#fff"/><path d="M0 0h100v100H0z" transform="matrix(.31 0 0 .31 124 341)" style="fill:#fff"/><path d="M0 0h100v100H0z" transform="matrix(.31 0 0 .31 155 341)" style="fill:#fff"/><path d="M0 0h100v100H0z" transform="matrix(.31 0 0 .31 217 341)" style="fill:#fff"/><path d="M0 0h100v100H0z" transform="matrix(.31 0 0 .31 341 341)" style="fill:#fff"/><path d="M0 0h100v100H0z" transform="matrix(.31 0 0 .31 434 341)" style="fill:#fff"/><path d="M0 0h100v100H0z" transform="matrix(.31 0 0 .31 527 341)" style="fill:#fff"/><path d="M0 0h100v100H0z" transform="matrix(.31 0 0 .31 651 341)" style="fill:#fff"/><path d="M0 0h100v100H0z" transform="matrix(.31 0 0 .31 682 341)" style="fill:#fff"/><path d="M0 0h100v100H0z" transform="matrix(.31 0 0 .31 806 341)" style="fill:#fff"/><path d="M0 0h100v100H0z" transform="matrix(.31 0 0 .31 868 341)" style="fill:#fff"/><path d="M0 0h100v100H0z" transform="matrix(.31 0 0 .31 930 341)" style="fill:#fff"/><path d="M0 0h100v100H0z" transform="matrix(.31 0 0 .31 961 341)" style="fill:#fff"/><path d="M0 0h100v100H0z" transform="matrix(.31 0 0 .31 186 372)" style="fill:#fff"/><path d="M0 0h100v100H0z" transform="matrix(.31 0 0 .31 248 372)" style="fill:#fff"/><path d="M0 0h100v100H0z" transform="matrix(.31 0 0 .31 279 372)" style="fill:#fff"/><path d="M0 0h100v100H0z" transform="matrix(.31 0 0 .31 341 372)" style="fill:#fff"/><path d="M0 0h100v100H0z" transform="matrix(.31 0 0 .31 403 372)" style="fill:#fff"/><path d="M0 0h100v100H0z" transform="matrix(.31 0 0 .31 434 372)" style="fill:#fff"/><path d="M0 0h100v100H0z" transform="matrix(.31 0 0 .31 496 372)" style="fill:#fff"/><path d="M0 0h100v100H0z" transform="matrix(.31 0 0 .31 589 372)" style="fill:#fff"/><path d="M0 0h100v100H0z" transform="matrix(.31 0 0 .31 651 372)" style="fill:#fff"/><path d="M0 0h100v100H0z" transform="matrix(.31 0 0 .31 682 372)" style="fill:#fff"/><path d="M0 0h100v100H0z" transform="matrix(.31 0 0 .31 744 372)" style="fill:#fff"/><path d="M0 0h100v100H0z" transform="matrix(.31 0 0 .31 775 372)" style="fill:#fff"/><path d="M0 0h100v100H0z" transform="matrix(.31 0 0 .31 837 372)" style="fill:#fff"/><path d="M0 0h100v100H0z" transform="matrix(.31 0 0 .31 899 372)" style="fill:#fff"/><path d="M0 0h100v100H0z" transform="matrix(.31 0 0 .31 961 372)" style="fill:#fff"/><path d="M0 0h100v100H0z" transform="matrix(.31 0 0 .31 31 403)" style="fill:#fff"/><path d="M0 0h100v100H0z" transform="matrix(.31 0 0 .31 62 403)" style="fill:#fff"/><path d="M0 0h100v100H0z" transform="matrix(.31 0 0 .31 124 403)" style="fill:#fff"/><path d="M0 0h100v100H0z" transform="matrix(.31 0 0 .31 310 403)" style="fill:#fff"/><path d="M0 0h100v100H0z" transform="matrix(.31 0 0 .31 341 403)" style="fill:#fff"/><path d="M0 0h100v100H0z" transform="matrix(.31 0 0 .31 403 403)" style="fill:#fff"/><path d="M0 0h100v100H0z" transform="matrix(.31 0 0 .31 434 403)" style="fill:#fff"/><path d="M0 0h100v100H0z" transform="matrix(.31 0 0 .31 465 403)" style="fill:#fff"/><path d="M0 0h100v100H0z" transform="matrix(.31 0 0 .31 496 403)" style="fill:#fff"/><path d="M0 0h100v100H0z" transform="matrix(.31 0 0 .31 558 403)" style="fill:#fff"/><path d="M0 0h100v100H0z" transform="matrix(.31 0 0 .31 589 403)" style="fill:#fff"/><path d="M0 0h100v100H0z" transform="matrix(.31 0 0 .31 620 403)" style="fill:#fff"/><path d="M0 0h100v100H0z" transform="matrix(.31 0 0 .31 682 403)" style="fill:#fff"/><path d="M0 0h100v100H0z" transform="matrix(.31 0 0 .31 713 403)" style="fill:#fff"/><path d="M0 0h100v100H0z" transform="matrix(.31 0 0 .31 775 403)" style="fill:#fff"/><path d="M0 0h100v100H0z" transform="matrix(.31 0 0 .31 806 403)" style="fill:#fff"/><path d="M0 0h100v100H0z" transform="matrix(.31 0 0 .31 837 403)" style="fill:#fff"/><path d="M0 0h100v100H0z" transform="matrix(.31 0 0 .31 868 403)" style="fill:#fff"/><path d="M0 0h100v100H0z" transform="matrix(.31 0 0 .31 899 403)" style="fill:#fff"/><path d="M0 0h100v100H0z" transform="matrix(.31 0 0 .31 961 403)" style="fill:#fff"/><path d="M0 0h100v100H0z" transform="matrix(.31 0 0 .31 0 434)" style="fill:#fff"/><path d="M0 0h100v100H0z" transform="matrix(.31 0 0 .31 31 434)" style="fill:#fff"/><path d="M0 0h100v100H0z" transform="matrix(.31 0 0 .31 62 434)" style="fill:#fff"/><path d="M0 0h100v100H0z" transform="matrix(.31 0 0 .31 93 434)" style="fill:#fff"/><path d="M0 0h100v100H0z" transform="matrix(.31 0 0 .31 186 434)" style="fill:#fff"/><path d="M0 0h100v100H0z" transform="matrix(.31 0 0 .31 217 434)" style="fill:#fff"/><path d="M0 0h100v100H0z" transform="matrix(.31 0 0 .31 248 434)" style="fill:#fff"/><path d="M0 0h100v100H0z" transform="matrix(.31 0 0 .31 310 434)" style="fill:#fff"/><path d="M0 0h100v100H0z" transform="matrix(.31 0 0 .31 341 434)" style="fill:#fff"/><path d="M0 0h100v100H0z" transform="matrix(.31 0 0 .31 403 434)" style="fill:#fff"/><path d="M0 0h100v100H0z" transform="matrix(.31 0 0 .31 558 434)" style="fill:#fff"/><path d="M0 0h100v100H0z" transform="matrix(.31 0 0 .31 651 434)" style="fill:#fff"/><path d="M0 0h100v100H0z" transform="matrix(.31 0 0 .31 682 434)" style="fill:#fff"/><path d="M0 0h100v100H0z" transform="matrix(.31 0 0 .31 837 434)" style="fill:#fff"/><path d="M0 0h100v100H0z" transform="matrix(.31 0 0 .31 899 434)" style="fill:#fff"/><path d="M0 0h100v100H0z" transform="matrix(.31 0 0 .31 930 434)" style="fill:#fff"/><path d="M0 0h100v100H0z" transform="matrix(.31 0 0 .31 31 465)" style="fill:#fff"/><path d="M0 0h100v100H0z" transform="matrix(.31 0 0 .31 155 465)" style="fill:#fff"/><path d="M0 0h100v100H0z" transform="matrix(.31 0 0 .31 217 465)" style="fill:#fff"/><path d="M0 0h100v100H0z" transform="matrix(.31 0 0 .31 248 465)" style="fill:#fff"/><path d="M0 0h100v100H0z" transform="matrix(.31 0 0 .31 279 465)" style="fill:#fff"/><path d="M0 0h100v100H0z" transform="matrix(.31 0 0 .31 403 465)" style="fill:#fff"/><path d="M0 0h100v100H0z" transform="matrix(.31 0 0 .31 434 465)" style="fill:#fff"/><path d="M0 0h100v100H0z" transform="matrix(.31 0 0 .31 558 465)" style="fill:#fff"/><path d="M0 0h100v100H0z" transform="matrix(.31 0 0 .31 620 465)" style="fill:#fff"/><path d="M0 0h100v100H0z" transform="matrix(.31 0 0 .31 682 465)" style="fill:#fff"/><path d="M0 0h100v100H0z" transform="matrix(.31 0 0 .31 775 465)" style="fill:#fff"/><path d="M0 0h100v100H0z" transform="matrix(.31 0 0 .31 806 465)" style="fill:#fff"/><path d="M0 0h100v100H0z" transform="matrix(.31 0 0 .31 899 465)" style="fill:#fff"/><path d="M0 0h100v100H0z" transform="matrix(.31 0 0 .31 930 465)" style="fill:#fff"/><path d="M0 0h100v100H0z" transform="matrix(.31 0 0 .31 961 465)" style="fill:#fff"/><path d="M0 0h100v100H0z" transform="matrix(.31 0 0 .31 31 496)" style="fill:#fff"/><path d="M0 0h100v100H0z" transform="matrix(.31 0 0 .31 93 496)" style="fill:#fff"/><path d="M0 0h100v100H0z" transform="matrix(.31 0 0 .31 186 496)" style="fill:#fff"/><path d="M0 0h100v100H0z" transform="matrix(.31 0 0 .31 279 496)" style="fill:#fff"/><path d="M0 0h100v100H0z" transform="matrix(.31 0 0 .31 310 496)" style="fill:#fff"/><path d="M0 0h100v100H0z" transform="matrix(.31 0 0 .31 403 496)" style="fill:#fff"/><path d="M0 0h100v100H0z" transform="matrix(.31 0 0 .31 465 496)" style="fill:#fff"/><path d="M0 0h100v100H0z" transform="matrix(.31 0 0 .31 527 496)" style="fill:#fff"/><path d="M0 0h100v100H0z" transform="matrix(.31 0 0 .31 558 496)" style="fill:#fff"/><path d="M0 0h100v100H0z" transform="matrix(.31 0 0 .31 620 496)" style="fill:#fff"/><path d="M0 0h100v100H0z" transform="matrix(.31 0 0 .31 713 496)" style="fill:#fff"/><path d="M0 0h100v100H0z" transform="matrix(.31 0 0 .31 744 496)" style="fill:#fff"/><path d="M0 0h100v100H0z" transform="matrix(.31 0 0 .31 775 496)" style="fill:#fff"/><path d="M0 0h100v100H0z" transform="matrix(.31 0 0 .31 806 496)" style="fill:#fff"/><path d="M0 0h100v100H0z" transform="matrix(.31 0 0 .31 868 496)" style="fill:#fff"/><path d="M0 0h100v100H0z" transform="matrix(.31 0 0 .31 899 496)" style="fill:#fff"/><path d="M0 0h100v100H0z" transform="matrix(.31 0 0 .31 992 496)" style="fill:#fff"/><path d="M0 0h100v100H0z" transform="matrix(.31 0 0 .31 62 527)" style="fill:#fff"/><path d="M0 0h100v100H0z" transform="matrix(.31 0 0 .31 93 527)" style="fill:#fff"/><path d="M0 0h100v100H0z" transform="matrix(.31 0 0 .31 124 527)" style="fill:#fff"/><path d="M0 0h100v100H0z" transform="matrix(.31 0 0 .31 155 527)" style="fill:#fff"/><path d="M0 0h100v100H0z" transform="matrix(.31 0 0 .31 217 527)" style="fill:#fff"/><path d="M0 0h100v100H0z" transform="matrix(.31 0 0 .31 341 527)" style="fill:#fff"/><path d="M0 0h100v100H0z" transform="matrix(.31 0 0 .31 372 527)" style="fill:#fff"/><path d="M0 0h100v100H0z" transform="matrix(.31 0 0 .31 527 527)" style="fill:#fff"/><path d="M0 0h100v100H0z" transform="matrix(.31 0 0 .31 558 527)" style="fill:#fff"/><path d="M0 0h100v100H0z" transform="matrix(.31 0 0 .31 589 527)" style="fill:#fff"/><path d="M0 0h100v100H0z" transform="matrix(.31 0 0 .31 651 527)" style="fill:#fff"/><path d="M0 0h100v100H0z" transform="matrix(.31 0 0 .31 775 527)" style="fill:#fff"/><path d="M0 0h100v100H0z" transform="matrix(.31 0 0 .31 806 527)" style="fill:#fff"/><path d="M0 0h100v100H0z" transform="matrix(.31 0 0 .31 837 527)" style="fill:#fff"/><path d="M0 0h100v100H0z" transform="matrix(.31 0 0 .31 868 527)" style="fill:#fff"/><path d="M0 0h100v100H0z" transform="matrix(.31 0 0 .31 961 527)" style="fill:#fff"/><path d="M0 0h100v100H0z" transform="matrix(.31 0 0 .31 992 527)" style="fill:#fff"/><path d="M0 0h100v100H0z" transform="matrix(.31 0 0 .31 31 558)" style="fill:#fff"/><path d="M0 0h100v100H0z" transform="matrix(.31 0 0 .31 62 558)" style="fill:#fff"/><path d="M0 0h100v100H0z" transform="matrix(.31 0 0 .31 155 558)" style="fill:#fff"/><path d="M0 0h100v100H0z" transform="matrix(.31 0 0 .31 186 558)" style="fill:#fff"/><path d="M0 0h100v100H0z" transform="matrix(.31 0 0 .31 217 558)" style="fill:#fff"/><path d="M0 0h100v100H0z" transform="matrix(.31 0 0 .31 279 558)" style="fill:#fff"/><path d="M0 0h100v100H0z" transform="matrix(.31 0 0 .31 310 558)" style="fill:#fff"/><path d="M0 0h100v100H0z" transform="matrix(.31 0 0 .31 372 558)" style="fill:#fff"/><path d="M0 0h100v100H0z" transform="matrix(.31 0 0 .31 403 558)" style="fill:#fff"/><path d="M0 0h100v100H0z" transform="matrix(.31 0 0 .31 465 558)" style="fill:#fff"/><path d="M0 0h100v100H0z" transform="matrix(.31 0 0 .31 527 558)" style="fill:#fff"/><path d="M0 0h100v100H0z" transform="matrix(.31 0 0 .31 558 558)" style="fill:#fff"/><path d="M0 0h100v100H0z" transform="matrix(.31 0 0 .31 589 558)" style="fill:#fff"/><path d="M0 0h100v100H0z" transform="matrix(.31 0 0 .31 651 558)" style="fill:#fff"/><path d="M0 0h100v100H0z" transform="matrix(.31 0 0 .31 682 558)" style="fill:#fff"/><path d="M0 0h100v100H0z" transform="matrix(.31 0 0 .31 713 558)" style="fill:#fff"/><path d="M0 0h100v100H0z" transform="matrix(.31 0 0 .31 775 558)" style="fill:#fff"/><path d="M0 0h100v100H0z" transform="matrix(.31 0 0 .31 806 558)" style="fill:#fff"/><path d="M0 0h100v100H0z" transform="matrix(.31 0 0 .31 837 558)" style="fill:#fff"/><path d="M0 0h100v100H0z" transform="matrix(.31 0 0 .31 868 558)" style="fill:#fff"/><path d="M0 0h100v100H0z" transform="matrix(.31 0 0 .31 899 558)" style="fill:#fff"/><path d="M0 0h100v100H0z" transform="matrix(.31 0 0 .31 992 558)" style="fill:#fff"/><path d="M0 0h100v100H0z" transform="matrix(.31 0 0 .31 62 589)" style="fill:#fff"/><path d="M0 0h100v100H0z" transform="matrix(.31 0 0 .31 279 589)" style="fill:#fff"/><path d="M0 0h100v100H0z" transform="matrix(.31 0 0 .31 372 589)" style="fill:#fff"/><path d="M0 0h100v100H0z" transform="matrix(.31 0 0 .31 465 589)" style="fill:#fff"/><path d="M0 0h100v100H0z" transform="matrix(.31 0 0 .31 589 589)" style="fill:#fff"/><path d="M0 0h100v100H0z" transform="matrix(.31 0 0 .31 620 589)" style="fill:#fff"/><path d="M0 0h100v100H0z" transform="matrix(.31 0 0 .31 682 589)" style="fill:#fff"/><path d="M0 0h100v100H0z" transform="matrix(.31 0 0 .31 713 589)" style="fill:#fff"/><path d="M0 0h100v100H0z" transform="matrix(.31 0 0 .31 775 589)" style="fill:#fff"/><path d="M0 0h100v100H0z" transform="matrix(.31 0 0 .31 806 589)" style="fill:#fff"/><path d="M0 0h100v100H0z" transform="matrix(.31 0 0 .31 899 589)" style="fill:#fff"/><path d="M0 0h100v100H0z" transform="matrix(.31 0 0 .31 930 589)" style="fill:#fff"/><path d="M0 0h100v100H0z" transform="matrix(.31 0 0 .31 961 589)" style="fill:#fff"/><path d="M0 0h100v100H0z" transform="matrix(.31 0 0 .31 31 620)" style="fill:#fff"/><path d="M0 0h100v100H0z" transform="matrix(.31 0 0 .31 155 620)" style="fill:#fff"/><path d="M0 0h100v100H0z" transform="matrix(.31 0 0 .31 186 620)" style="fill:#fff"/><path d="M0 0h100v100H0z" transform="matrix(.31 0 0 .31 217 620)" style="fill:#fff"/><path d="M0 0h100v100H0z" transform="matrix(.31 0 0 .31 279 620)" style="fill:#fff"/><path d="M0 0h100v100H0z" transform="matrix(.31 0 0 .31 310 620)" style="fill:#fff"/><path d="M0 0h100v100H0z" transform="matrix(.31 0 0 .31 341 620)" style="fill:#fff"/><path d="M0 0h100v100H0z" transform="matrix(.31 0 0 .31 372 620)" style="fill:#fff"/><path d="M0 0h100v100H0z" transform="matrix(.31 0 0 .31 403 620)" style="fill:#fff"/><path d="M0 0h100v100H0z" transform="matrix(.31 0 0 .31 465 620)" style="fill:#fff"/><path d="M0 0h100v100H0z" transform="matrix(.31 0 0 .31 496 620)" style="fill:#fff"/><path d="M0 0h100v100H0z" transform="matrix(.31 0 0 .31 527 620)" style="fill:#fff"/><path d="M0 0h100v100H0z" transform="matrix(.31 0 0 .31 682 620)" style="fill:#fff"/><path d="M0 0h100v100H0z" transform="matrix(.31 0 0 .31 713 620)" style="fill:#fff"/><path d="M0 0h100v100H0z" transform="matrix(.31 0 0 .31 775 620)" style="fill:#fff"/><path d="M0 0h100v100H0z" transform="matrix(.31 0 0 .31 806 620)" style="fill:#fff"/><path d="M0 0h100v100H0z" transform="matrix(.31 0 0 .31 837 620)" style="fill:#fff"/><path d="M0 0h100v100H0z" transform="matrix(.31 0 0 .31 868 620)" style="fill:#fff"/><path d="M0 0h100v100H0z" transform="matrix(.31 0 0 .31 899 620)" style="fill:#fff"/><path d="M0 0h100v100H0z" transform="matrix(.31 0 0 .31 961 620)" style="fill:#fff"/><path d="M0 0h100v100H0z" transform="matrix(.31 0 0 .31 0 651)" style="fill:#fff"/><path d="M0 0h100v100H0z" transform="matrix(.31 0 0 .31 31 651)" style="fill:#fff"/><path d="M0 0h100v100H0z" transform="matrix(.31 0 0 .31 124 651)" style="fill:#fff"/><path d="M0 0h100v100H0z" transform="matrix(.31 0 0 .31 155 651)" style="fill:#fff"/><path d="M0 0h100v100H0z" transform="matrix(.31 0 0 .31 217 651)" style="fill:#fff"/><path d="M0 0h100v100H0z" transform="matrix(.31 0 0 .31 248 651)" style="fill:#fff"/><path d="M0 0h100v100H0z" transform="matrix(.31 0 0 .31 279 651)" style="fill:#fff"/><path d="M0 0h100v100H0z" transform="matrix(.31 0 0 .31 310 651)" style="fill:#fff"/><path d="M0 0h100v100H0z" transform="matrix(.31 0 0 .31 434 651)" style="fill:#fff"/><path d="M0 0h100v100H0z" transform="matrix(.31 0 0 .31 465 651)" style="fill:#fff"/><path d="M0 0h100v100H0z" transform="matrix(.31 0 0 .31 527 651)" style="fill:#fff"/><path d="M0 0h100v100H0z" transform="matrix(.31 0 0 .31 620 651)" style="fill:#fff"/><path d="M0 0h100v100H0z" transform="matrix(.31 0 0 .31 651 651)" style="fill:#fff"/><path d="M0 0h100v100H0z" transform="matrix(.31 0 0 .31 713 651)" style="fill:#fff"/><path d="M0 0h100v100H0z" transform="matrix(.31 0 0 .31 775 651)" style="fill:#fff"/><path d="M0 0h100v100H0z" transform="matrix(.31 0 0 .31 806 651)" style="fill:#fff"/><path d="M0 0h100v100H0z" transform="matrix(.31 0 0 .31 868 651)" style="fill:#fff"/><path d="M0 0h100v100H0z" transform="matrix(.31 0 0 .31 899 651)" style="fill:#fff"/><path d="M0 0h100v100H0z" transform="matrix(.31 0 0 .31 930 651)" style="fill:#fff"/><path d="M0 0h100v100H0z" transform="matrix(.31 0 0 .31 0 682)" style="fill:#fff"/><path d="M0 0h100v100H0z" transform="matrix(.31 0 0 .31 62 682)" style="fill:#fff"/><path d="M0 0h100v100H0z" transform="matrix(.31 0 0 .31 93 682)" style="fill:#fff"/><path d="M0 0h100v100H0z" transform="matrix(.31 0 0 .31 186 682)" style="fill:#fff"/><path d="M0 0h100v100H0z" transform="matrix(.31 0 0 .31 217 682)" style="fill:#fff"/><path d="M0 0h100v100H0z" transform="matrix(.31 0 0 .31 279 682)" style="fill:#fff"/><path d="M0 0h100v100H0z" transform="matrix(.31 0 0 .31 310 682)" style="fill:#fff"/><path d="M0 0h100v100H0z" transform="matrix(.31 0 0 .31 341 682)" style="fill:#fff"/><path d="M0 0h100v100H0z" transform="matrix(.31 0 0 .31 465 682)" style="fill:#fff"/><path d="M0 0h100v100H0z" transform="matrix(.31 0 0 .31 558 682)" style="fill:#fff"/><path d="M0 0h100v100H0z" transform="matrix(.31 0 0 .31 589 682)" style="fill:#fff"/><path d="M0 0h100v100H0z" transform="matrix(.31 0 0 .31 620 682)" style="fill:#fff"/><path d="M0 0h100v100H0z" transform="matrix(.31 0 0 .31 651 682)" style="fill:#fff"/><path d="M0 0h100v100H0z" transform="matrix(.31 0 0 .31 682 682)" style="fill:#fff"/><path d="M0 0h100v100H0z" transform="matrix(.31 0 0 .31 713 682)" style="fill:#fff"/><path d="M0 0h100v100H0z" transform="matrix(.31 0 0 .31 744 682)" style="fill:#fff"/><path d="M0 0h100v100H0z" transform="matrix(.31 0 0 .31 806 682)" style="fill:#fff"/><path d="M0 0h100v100H0z" transform="matrix(.31 0 0 .31 868 682)" style="fill:#fff"/><path d="M0 0h100v100H0z" transform="matrix(.31 0 0 .31 930 682)" style="fill:#fff"/><path d="M0 0h100v100H0z" transform="matrix(.31 0 0 .31 961 682)" style="fill:#fff"/><path d="M0 0h100v100H0z" transform="matrix(.31 0 0 .31 992 682)" style="fill:#fff"/><path d="M0 0h100v100H0z" transform="matrix(.31 0 0 .31 0 713)" style="fill:#fff"/><path d="M0 0h100v100H0z" transform="matrix(.31 0 0 .31 62 713)" style="fill:#fff"/><path d="M0 0h100v100H0z" transform="matrix(.31 0 0 .31 155 713)" style="fill:#fff"/><path d="M0 0h100v100H0z" transform="matrix(.31 0 0 .31 248 713)" style="fill:#fff"/><path d="M0 0h100v100H0z" transform="matrix(.31 0 0 .31 341 713)" style="fill:#fff"/><path d="M0 0h100v100H0z" transform="matrix(.31 0 0 .31 465 713)" style="fill:#fff"/><path d="M0 0h100v100H0z" transform="matrix(.31 0 0 .31 496 713)" style="fill:#fff"/><path d="M0 0h100v100H0z" transform="matrix(.31 0 0 .31 527 713)" style="fill:#fff"/><path d="M0 0h100v100H0z" transform="matrix(.31 0 0 .31 558 713)" style="fill:#fff"/><path d="M0 0h100v100H0z" transform="matrix(.31 0 0 .31 589 713)" style="fill:#fff"/><path d="M0 0h100v100H0z" transform="matrix(.31 0 0 .31 744 713)" style="fill:#fff"/><path d="M0 0h100v100H0z" transform="matrix(.31 0 0 .31 775 713)" style="fill:#fff"/><path d="M0 0h100v100H0z" transform="matrix(.31 0 0 .31 806 713)" style="fill:#fff"/><path d="M0 0h100v100H0z" transform="matrix(.31 0 0 .31 837 713)" style="fill:#fff"/><path d="M0 0h100v100H0z" transform="matrix(.31 0 0 .31 899 713)" style="fill:#fff"/><path d="M0 0h100v100H0z" transform="matrix(.31 0 0 .31 930 713)" style="fill:#fff"/><path d="M0 0h100v100H0z" transform="matrix(.31 0 0 .31 992 713)" style="fill:#fff"/><path d="M0 0h100v100H0z" transform="matrix(.31 0 0 .31 0 744)" style="fill:#fff"/><path d="M0 0h100v100H0z" transform="matrix(.31 0 0 .31 31 744)" style="fill:#fff"/><path d="M0 0h100v100H0z" transform="matrix(.31 0 0 .31 124 744)" style="fill:#fff"/><path d="M0 0h100v100H0z" transform="matrix(.31 0 0 .31 155 744)" style="fill:#fff"/><path d="M0 0h100v100H0z" transform="matrix(.31 0 0 .31 186 744)" style="fill:#fff"/><path d="M0 0h100v100H0z" transform="matrix(.31 0 0 .31 279 744)" style="fill:#fff"/><path d="M0 0h100v100H0z" transform="matrix(.31 0 0 .31 310 744)" style="fill:#fff"/><path d="M0 0h100v100H0z" transform="matrix(.31 0 0 .31 372 744)" style="fill:#fff"/><path d="M0 0h100v100H0z" transform="matrix(.31 0 0 .31 434 744)" style="fill:#fff"/><path d="M0 0h100v100H0z" transform="matrix(.31 0 0 .31 465 744)" style="fill:#fff"/><path d="M0 0h100v100H0z" transform="matrix(.31 0 0 .31 558 744)" style="fill:#fff"/><path d="M0 0h100v100H0z" transform="matrix(.31 0 0 .31 589 744)" style="fill:#fff"/><path d="M0 0h100v100H0z" transform="matrix(.31 0 0 .31 620 744)" style="fill:#fff"/><path d="M0 0h100v100H0z" transform="matrix(.31 0 0 .31 682 744)" style="fill:#fff"/><path d="M0 0h100v100H0z" transform="matrix(.31 0 0 .31 713 744)" style="fill:#fff"/><path d="M0 0h100v100H0z" transform="matrix(.31 0 0 .31 744 744)" style="fill:#fff"/><path d="M0 0h100v100H0z" transform="matrix(.31 0 0 .31 775 744)" style="fill:#fff"/><path d="M0 0h100v100H0z" transform="matrix(.31 0 0 .31 806 744)" style="fill:#fff"/><path d="M0 0h100v100H0z" transform="matrix(.31 0 0 .31 837 744)" style="fill:#fff"/><path d="M0 0h100v100H0z" transform="matrix(.31 0 0 .31 868 744)" style="fill:#fff"/><path d="M0 0h100v100H0z" transform="matrix(.31 0 0 .31 899 744)" style="fill:#fff"/><path d="M0 0h100v100H0z" transform="matrix(.31 0 0 .31 248 775)" style="fill:#fff"/><path d="M0 0h100v100H0z" transform="matrix(.31 0 0 .31 310 775)" style="fill:#fff"/><path d="M0 0h100v100H0z" transform="matrix(.31 0 0 .31 403 775)" style="fill:#fff"/><path d="M0 0h100v100H0z" transform="matrix(.31 0 0 .31 434 775)" style="fill:#fff"/><path d="M0 0h100v100H0z" transform="matrix(.31 0 0 .31 465 775)" style="fill:#fff"/><path d="M0 0h100v100H0z" transform="matrix(.31 0 0 .31 496 775)" style="fill:#fff"/><path d="M0 0h100v100H0z" transform="matrix(.31 0 0 .31 558 775)" style="fill:#fff"/><path d="M0 0h100v100H0z" transform="matrix(.31 0 0 .31 620 775)" style="fill:#fff"/><path d="M0 0h100v100H0z" transform="matrix(.31 0 0 .31 651 775)" style="fill:#fff"/><path d="M0 0h100v100H0z" transform="matrix(.31 0 0 .31 744 775)" style="fill:#fff"/><path d="M0 0h100v100H0z" transform="matrix(.31 0 0 .31 868 775)" style="fill:#fff"/><path d="M0 0h100v100H0z" transform="matrix(.31 0 0 .31 930 775)" style="fill:#fff"/><path d="M0 0h100v100H0z" transform="matrix(.31 0 0 .31 961 775)" style="fill:#fff"/><path d="M0 0h100v100H0z" transform="matrix(.31 0 0 .31 992 775)" style="fill:#fff"/><path d="M0 0h100v100H0z" transform="matrix(.31 0 0 .31 248 806)" style="fill:#fff"/><path d="M0 0h100v100H0z" transform="matrix(.31 0 0 .31 279 806)" style="fill:#fff"/><path d="M0 0h100v100H0z" transform="matrix(.31 0 0 .31 310 806)" style="fill:#fff"/><path d="M0 0h100v100H0z" transform="matrix(.31 0 0 .31 341 806)" style="fill:#fff"/><path d="M0 0h100v100H0z" transform="matrix(.31 0 0 .31 403 806)" style="fill:#fff"/><path d="M0 0h100v100H0z" transform="matrix(.31 0 0 .31 434 806)" style="fill:#fff"/><path d="M0 0h100v100H0z" transform="matrix(.31 0 0 .31 465 806)" style="fill:#fff"/><path d="M0 0h100v100H0z" transform="matrix(.31 0 0 .31 589 806)" style="fill:#fff"/><path d="M0 0h100v100H0z" transform="matrix(.31 0 0 .31 682 806)" style="fill:#fff"/><path d="M0 0h100v100H0z" transform="matrix(.31 0 0 .31 713 806)" style="fill:#fff"/><path d="M0 0h100v100H0z" transform="matrix(.31 0 0 .31 744 806)" style="fill:#fff"/><path d="M0 0h100v100H0z" transform="matrix(.31 0 0 .31 806 806)" style="fill:#fff"/><path d="M0 0h100v100H0z" transform="matrix(.31 0 0 .31 868 806)" style="fill:#fff"/><path d="M0 0h100v100H0z" transform="matrix(.31 0 0 .31 899 806)" style="fill:#fff"/><path d="M0 0h100v100H0z" transform="matrix(.31 0 0 .31 248 837)" style="fill:#fff"/><path d="M0 0h100v100H0z" transform="matrix(.31 0 0 .31 279 837)" style="fill:#fff"/><path d="M0 0h100v100H0z" transform="matrix(.31 0 0 .31 310 837)" style="fill:#fff"/><path d="M0 0h100v100H0z" transform="matrix(.31 0 0 .31 372 837)" style="fill:#fff"/><path d="M0 0h100v100H0z" transform="matrix(.31 0 0 .31 403 837)" style="fill:#fff"/><path d="M0 0h100v100H0z" transform="matrix(.31 0 0 .31 496 837)" style="fill:#fff"/><path d="M0 0h100v100H0z" transform="matrix(.31 0 0 .31 558 837)" style="fill:#fff"/><path d="M0 0h100v100H0z" transform="matrix(.31 0 0 .31 620 837)" style="fill:#fff"/><path d="M0 0h100v100H0z" transform="matrix(.31 0 0 .31 682 837)" style="fill:#fff"/><path d="M0 0h100v100H0z" transform="matrix(.31 0 0 .31 713 837)" style="fill:#fff"/><path d="M0 0h100v100H0z" transform="matrix(.31 0 0 .31 744 837)" style="fill:#fff"/><path d="M0 0h100v100H0z" transform="matrix(.31 0 0 .31 868 837)" style="fill:#fff"/><path d="M0 0h100v100H0z" transform="matrix(.31 0 0 .31 899 837)" style="fill:#fff"/><path d="M0 0h100v100H0z" transform="matrix(.31 0 0 .31 930 837)" style="fill:#fff"/><path d="M0 0h100v100H0z" transform="matrix(.31 0 0 .31 961 837)" style="fill:#fff"/><path d="M0 0h100v100H0z" transform="matrix(.31 0 0 .31 992 837)" style="fill:#fff"/><path d="M0 0h100v100H0z" transform="matrix(.31 0 0 .31 248 868)" style="fill:#fff"/><path d="M0 0h100v100H0z" transform="matrix(.31 0 0 .31 279 868)" style="fill:#fff"/><path d="M0 0h100v100H0z" transform="matrix(.31 0 0 .31 372 868)" style="fill:#fff"/><path d="M0 0h100v100H0z" transform="matrix(.31 0 0 .31 403 868)" style="fill:#fff"/><path d="M0 0h100v100H0z" transform="matrix(.31 0 0 .31 434 868)" style="fill:#fff"/><path d="M0 0h100v100H0z" transform="matrix(.31 0 0 .31 496 868)" style="fill:#fff"/><path d="M0 0h100v100H0z" transform="matrix(.31 0 0 .31 589 868)" style="fill:#fff"/><path d="M0 0h100v100H0z" transform="matrix(.31 0 0 .31 620 868)" style="fill:#fff"/><path d="M0 0h100v100H0z" transform="matrix(.31 0 0 .31 651 868)" style="fill:#fff"/><path d="M0 0h100v100H0z" transform="matrix(.31 0 0 .31 713 868)" style="fill:#fff"/><path d="M0 0h100v100H0z" transform="matrix(.31 0 0 .31 744 868)" style="fill:#fff"/><path d="M0 0h100v100H0z" transform="matrix(.31 0 0 .31 775 868)" style="fill:#fff"/><path d="M0 0h100v100H0z" transform="matrix(.31 0 0 .31 806 868)" style="fill:#fff"/><path d="M0 0h100v100H0z" transform="matrix(.31 0 0 .31 837 868)" style="fill:#fff"/><path d="M0 0h100v100H0z" transform="matrix(.31 0 0 .31 868 868)" style="fill:#fff"/><path d="M0 0h100v100H0z" transform="matrix(.31 0 0 .31 961 868)" style="fill:#fff"/><path d="M0 0h100v100H0z" transform="matrix(.31 0 0 .31 992 868)" style="fill:#fff"/><path d="M0 0h100v100H0z" transform="matrix(.31 0 0 .31 248 899)" style="fill:#fff"/><path d="M0 0h100v100H0z" transform="matrix(.31 0 0 .31 310 899)" style="fill:#fff"/><path d="M0 0h100v100H0z" transform="matrix(.31 0 0 .31 465 899)" style="fill:#fff"/><path d="M0 0h100v100H0z" transform="matrix(.31 0 0 .31 527 899)" style="fill:#fff"/><path d="M0 0h100v100H0z" transform="matrix(.31 0 0 .31 589 899)" style="fill:#fff"/><path d="M0 0h100v100H0z" transform="matrix(.31 0 0 .31 620 899)" style="fill:#fff"/><path d="M0 0h100v100H0z" transform="matrix(.31 0 0 .31 682 899)" style="fill:#fff"/><path d="M0 0h100v100H0z" transform="matrix(.31 0 0 .31 713 899)" style="fill:#fff"/><path d="M0 0h100v100H0z" transform="matrix(.31 0 0 .31 744 899)" style="fill:#fff"/><path d="M0 0h100v100H0z" transform="matrix(.31 0 0 .31 775 899)" style="fill:#fff"/><path d="M0 0h100v100H0z" transform="matrix(.31 0 0 .31 899 899)" style="fill:#fff"/><path d="M0 0h100v100H0z" transform="matrix(.31 0 0 .31 930 899)" style="fill:#fff"/><path d="M0 0h100v100H0z" transform="matrix(.31 0 0 .31 961 899)" style="fill:#fff"/><path d="M0 0h100v100H0z" transform="matrix(.31 0 0 .31 992 899)" style="fill:#fff"/><path d="M0 0h100v100H0z" transform="matrix(.31 0 0 .31 279 930)" style="fill:#fff"/><path d="M0 0h100v100H0z" transform="matrix(.31 0 0 .31 310 930)" style="fill:#fff"/><path d="M0 0h100v100H0z" transform="matrix(.31 0 0 .31 465 930)" style="fill:#fff"/><path d="M0 0h100v100H0z" transform="matrix(.31 0 0 .31 527 930)" style="fill:#fff"/><path d="M0 0h100v100H0z" transform="matrix(.31 0 0 .31 558 930)" style="fill:#fff"/><path d="M0 0h100v100H0z" transform="matrix(.31 0 0 .31 620 930)" style="fill:#fff"/><path d="M0 0h100v100H0z" transform="matrix(.31 0 0 .31 651 930)" style="fill:#fff"/><path d="M0 0h100v100H0z" transform="matrix(.31 0 0 .31 682 930)" style="fill:#fff"/><path d="M0 0h100v100H0z" transform="matrix(.31 0 0 .31 713 930)" style="fill:#fff"/><path d="M0 0h100v100H0z" transform="matrix(.31 0 0 .31 744 930)" style="fill:#fff"/><path d="M0 0h100v100H0z" transform="matrix(.31 0 0 .31 837 930)" style="fill:#fff"/><path d="M0 0h100v100H0z" transform="matrix(.31 0 0 .31 868 930)" style="fill:#fff"/><path d="M0 0h100v100H0z" transform="matrix(.31 0 0 .31 899 930)" style="fill:#fff"/><path d="M0 0h100v100H0z" transform="matrix(.31 0 0 .31 930 930)" style="fill:#fff"/><path d="M0 0h100v100H0z" transform="matrix(.31 0 0 .31 961 930)" style="fill:#fff"/><path d="M0 0h100v100H0z" transform="matrix(.31 0 0 .31 992 930)" style="fill:#fff"/><path d="M0 0h100v100H0z" transform="matrix(.31 0 0 .31 372 961)" style="fill:#fff"/><path d="M0 0h100v100H0z" transform="matrix(.31 0 0 .31 496 961)" style="fill:#fff"/><path d="M0 0h100v100H0z" transform="matrix(.31 0 0 .31 620 961)" style="fill:#fff"/><path d="M0 0h100v100H0z" transform="matrix(.31 0 0 .31 775 961)" style="fill:#fff"/><path d="M0 0h100v100H0z" transform="matrix(.31 0 0 .31 930 961)" style="fill:#fff"/><path d="M0 0h100v100H0z" transform="matrix(.31 0 0 .31 961 961)" style="fill:#fff"/><path d="M0 0h100v100H0z" transform="matrix(.31 0 0 .31 992 961)" style="fill:#fff"/><path d="M0 0h100v100H0z" transform="matrix(.31 0 0 .31 248 992)" style="fill:#fff"/><path d="M0 0h100v100H0z" transform="matrix(.31 0 0 .31 279 992)" style="fill:#fff"/><path d="M0 0h100v100H0z" transform="matrix(.31 0 0 .31 310 992)" style="fill:#fff"/><path d="M0 0h100v100H0z" transform="matrix(.31 0 0 .31 434 992)" style="fill:#fff"/><path d="M0 0h100v100H0z" transform="matrix(.31 0 0 .31 465 992)" style="fill:#fff"/><path d="M0 0h100v100H0z" transform="matrix(.31 0 0 .31 496 992)" style="fill:#fff"/><path d="M0 0h100v100H0z" transform="matrix(.31 0 0 .31 527 992)" style="fill:#fff"/><path d="M0 0h100v100H0z" transform="matrix(.31 0 0 .31 682 992)" style="fill:#fff"/><path d="M0 0h100v100H0z" transform="matrix(.31 0 0 .31 713 992)" style="fill:#fff"/><path d="M0 0h100v100H0z" transform="matrix(.31 0 0 .31 744 992)" style="fill:#fff"/><path d="M0 0h100v100H0z" transform="matrix(.31 0 0 .31 775 992)" style="fill:#fff"/><path d="M0 0h100v100H0z" transform="matrix(.31 0 0 .31 868 992)" style="fill:#fff"/><path d="M0 0h100v100H0z" transform="matrix(.31 0 0 .31 899 992)" style="fill:#fff"/><g style="fill:#fff"><path style="fill:none" d="M15 15h70v70H15z" transform="scale(2.17)"/><path d="M85 0H0v100h100V0H85zm0 85H15V15h70v70z" transform="scale(2.17)"/></g><g style="fill:#fff"><path style="fill:none" d="M15 15h70v70H15z" transform="translate(806) scale(2.17)"/><path d="M85 0H0v100h100V0H85zm0 85H15V15h70v70z" transform="translate(806) scale(2.17)"/></g><g style="fill:#fff"><path style="fill:none" d="M15 15h70v70H15z" transform="matrix(2.17 0 0 2.17 0 806)"/><path d="M85 0H0v100h100V0H85zm0 85H15V15h70v70z" transform="matrix(2.17 0 0 2.17 0 806)"/></g><path d="M0 0h100v100H0z" transform="matrix(.93 0 0 .93 62 62)" style="fill:#fff"/><path d="M0 0h100v100H0z" transform="matrix(.93 0 0 .93 868 62)" style="fill:#fff"/><path d="M0 0h100v100H0z" transform="matrix(.93 0 0 .93 62 868)" style="fill:#fff"/></mask></defs><path fill="url(#a)" mask="url(#b)" d="M0 0h1023v1023H0z" transform="translate(62 62)"/></svg>