<svg xmlns="http://www.w3.org/2000/svg" width="1148" height="1148" xml:space="preserve"><path fill="#FFF" d="M0 0h1148v1148H0z"/><defs transform="translate(56 56)"><linearGradient gradientTransform="rotate(90)" id="a"><stop offset="5%" stop-color="#0277BD"/><stop offset="95%"/></linearGradient><mask id="b"><path d="M0 0h100v100H0z" transform="translate(224) scale(.28)" style="fill:#fff"/><path d="M0 0h100v100H0z" transform="translate(364) scale(.28)" style="fill:#fff"/><path d="M0 0h100v100H0z" transform="translate(392) scale(.28)" style="fill:#fff"/><path d="M0 0h100v100H0z" transform="translate(448) scale(.28)" style="fill:#fff"/><path d="M0 0h100v100H0z" transform="translate(504) scale(.28)" style="fill:#fff"/><path d="M0 0h100v100H0z" transform="translate(532) scale(.28)" style="fill:#fff"/><path d="M0 0h100v100H0z" transform="translate(616) scale(.28)" style="fill:#fff"/><path d="M0 0h100v100H0z" transform="translate(672) scale(.28)" style="fill:#fff"/><path d="M0 0h100v100H0z" transform="translate(700) scale(.28)" style="fill:#fff"/><path d="M0 0h100v100H0z" transform="translate(728) scale(.28)" style="fill:#fff"/><path d="M0 0h100v100H0z" transform="translate(756) scale(.28)" style="fill:#fff"/><path d="M0 0h100v100H0z" transform="translate(784) scale(.28)" style="fill:#fff"/><path d="M0 0h100v100H0z" transform="matrix(.28 0 0 .28 364 28)" style="fill:#fff"/><path d="M0 0h100v100H0z" transform="matrix(.28 0 0 .28 420 28)" style="fill:#fff"/><path d="M0 0h100v100H0z" transform="matrix(.28 0 0 .28 560 28)" style="fill:#fff"/><path d="M0 0h100v100H0z" transform="matrix(.28 0 0 .28 588 28)" style="fill:#fff"/><path d="M0 0h100v100H0z" transform="matrix(.28 0 0 .28 336 56)" style="fill:#fff"/><path d="M0 0h100v100H0z" transform="matrix(.28 0 0 .28 364 56)" style="fill:#fff"/><path d="M0 0h100v100H0z" transform="matrix(.28 0 0 .28 448 56)" style="fill:#fff"/><path d="M0 0h100v100H0z" transform="matrix(.28 0 0 .28 476 56)" style="fill:#fff"/><path d="M0 0h100v100H0z" transform="matrix(.28 0 0 .28 504 56)" style="fill:#fff"/><path d="M0 0h100v100H0z" transform="matrix(.28 0 0 .28 532 56)" style="fill:#fff"/><path d="M0 0h100v100H0z" transform="matrix(.28 0 0 .28 560 56)" style="fill:#fff"/><path d="M0 0h100v100H0z" transform="matrix(.28 0 0 .28 588 56)" style="fill:#fff"/><path d="M0 0h100v100H0z" transform="matrix(.28 0 0 .28 616 56)" style="fill:#fff"/><path d="M0 0h100v100H0z" transform="matrix(.28 0 0 .28 644 56)" style="fill:#fff"/><path d="M0 0h100v100H0z" transform="matrix(.28 0 0 .28 224 84)" style="fill:#fff"/><path d="M0 0h100v100H0z" transform="matrix(.28 0 0 .28 252 84)" style="fill:#fff"/><path d="M0 0h100v100H0z" transform="matrix(.28 0 0 .28 280 84)" style="fill:#fff"/><path d="M0 0h100v100H0z" transform="matrix(.28 0 0 .28 364 84)" style="fill:#fff"/><path d="M0 0h100v100H0z" transform="matrix(.28 0 0 .28 392 84)" style="fill:#fff"/><path d="M0 0h100v100H0z" transform="matrix(.28 0 0 .28 420 84)" style="fill:#fff"/><path d="M0 0h100v100H0z" transform="matrix(.28 0 0 .28 504 84)" style="fill:#fff"/><path d="M0 0h100v100H0z" transform="matrix(.28 0 0 .28 532 84)" style="fill:#fff"/><path d="M0 0h100v100H0z" transform="matrix(.28 0 0 .28 560 84)" style="fill:#fff"/><path d="M0 0h100v100H0z" transform="matrix(.28 0 0 .28 644 84)" style="fill:#fff"/><path d="M0 0h100v100H0z" transform="matrix(.28 0 0 .28 672 84)" style="fill:#fff"/><path d="M0 0h100v100H0z" transform="matrix(.28 0 0 .28 700 84)" style="fill:#fff"/><path d="M0 0h100v100H0z" transform="matrix(.28 0 0 .28 728 84)" style="fill:#fff"/><path d="M0 0h100v100H0z" transform="matrix(.28 0 0 .28 224 112)" style="fill:#fff"/><path d="M0 0h100v100H0z" transform="matrix(.28 0 0 .28 252 112)" style="fill:#fff"/><path d="M0 0h100v100H0z" transform="matrix(.28 0 0 .28 280 112)" style="fill:#fff"/><path d="M0 0h100v100H0z" transform="matrix(.28 0 0 .28 308 112)" style="fill:#fff"/><path d="M0 0h100v100H0z" transform="matrix(.28 0 0 .28 336 112)" style="fill:#fff"/><path d="M0 0h100v100H0z" transform="matrix(.28 0 0 .28 504 112)" style="fill:#fff"/><path d="M0 0h100v100H0z" transform="matrix(.28 0 0 .28 532 112)" style="fill:#fff"/><path d="M0 0h100v100H0z" transform="matrix(.28 0 0 .28 588 112)" style="fill:#fff"/><path d="M0 0h100v100H0z" transform="matrix(.28 0 0 .28 644 112)" style="fill:#fff"/><path d="M0 0h100v100H0z" transform="matrix(.28 0 0 .28 700 112)" style="fill:#fff"/><path d="M0 0h100v100H0z" transform="matrix(.28 0 0 .28 728 112)" style="fill:#fff"/><path d="M0 0h100v100H0z" transform="matrix(.28 0 0 .28 784 112)" style="fill:#fff"/><path d="M0 0h100v100H0z" transform="matrix(.28 0 0 .28 224 140)" style="fill:#fff"/><path d="M0 0h100v100H0z" transform="matrix(.28 0 0 .28 252 140)" style="fill:#fff"/><path d="M0 0h100v100H0z" transform="matrix(.28 0 0 .28 280 140)" style="fill:#fff"/><path d="M0 0h100v100H0z" transform="matrix(.28 0 0 .28 420 140)" style="fill:#fff"/><path d="M0 0h100v100H0z" transform="matrix(.28 0 0 .28 448 140)" style="fill:#fff"/><path d="M0 0h100v100H0z" transform="matrix(.28 0 0 .28 504 140)" style="fill:#fff"/><path d="M0 0h100v100H0z" transform="matrix(.28 0 0 .28 532 140)" style="fill:#fff"/><path d="M0 0h100v100H0z" transform="matrix(.28 0 0 .28 560 140)" style="fill:#fff"/><path d="M0 0h100v100H0z" transform="matrix(.28 0 0 .28 588 140)" style="fill:#fff"/><path d="M0 0h100v100H0z" transform="matrix(.28 0 0 .28 616 140)" style="fill:#fff"/><path d="M0 0h100v100H0z" transform="matrix(.28 0 0 .28 700 140)" style="fill:#fff"/><path d="M0 0h100v100H0z" transform="matrix(.28 0 0 .28 224 168)" style="fill:#fff"/><path d="M0 0h100v100H0z" transform="matrix(.28 0 0 .28 280 168)" style="fill:#fff"/><path d="M0 0h100v100H0z" transform="matrix(.28 0 0 .28 336 168)" style="fill:#fff"/><path d="M0 0h100v100H0z" transform="matrix(.28 0 0 .28 392 168)" style="fill:#fff"/><path d="M0 0h100v100H0z" transform="matrix(.28 0 0 .28 448 168)" style="fill:#fff"/><path d="M0 0h100v100H0z" transform="matrix(.28 0 0 .28 504 168)" style="fill:#fff"/><path d="M0 0h100v100H0z" transform="matrix(.28 0 0 .28 560 168)" style="fill:#fff"/><path d="M0 0h100v100H0z" transform="matrix(.28 0 0 .28 616 168)" style="fill:#fff"/><path d="M0 0h100v100H0z" transform="matrix(.28 0 0 .28 672 168)" style="fill:#fff"/><path d="M0 0h100v100H0z" transform="matrix(.28 0 0 .28 728 168)" style="fill:#fff"/><path d="M0 0h100v100H0z" transform="matrix(.28 0 0 .28 784 168)" style="fill:#fff"/><path d="M0 0h100v100H0z" transform="matrix(.28 0 0 .28 224 196)" style="fill:#fff"/><path d="M0 0h100v100H0z" transform="matrix(.28 0 0 .28 280 196)" style="fill:#fff"/><path d="M0 0h100v100H0z" transform="matrix(.28 0 0 .28 308 196)" style="fill:#fff"/><path d="M0 0h100v100H0z" transform="matrix(.28 0 0 .28 420 196)" style="fill:#fff"/><path d="M0 0h100v100H0z" transform="matrix(.28 0 0 .28 448 196)" style="fill:#fff"/><path d="M0 0h100v100H0z" transform="matrix(.28 0 0 .28 476 196)" style="fill:#fff"/><path d="M0 0h100v100H0z" transform="matrix(.28 0 0 .28 504 196)" style="fill:#fff"/><path d="M0 0h100v100H0z" transform="matrix(.28 0 0 .28 532 196)" style="fill:#fff"/><path d="M0 0h100v100H0z" transform="matrix(.28 0 0 .28 616 196)" style="fill:#fff"/><path d="M0 0h100v100H0z" transform="matrix(.28 0 0 .28 644 196)" style="fill:#fff"/><path d="M0 0h100v100H0z" transform="matrix(.28 0 0 .28 728 196)" style="fill:#fff"/><path d="M0 0h100v100H0z" transform="matrix(.28 0 0 .28 784 196)" style="fill:#fff"/><path d="M0 0h100v100H0z" transform="matrix(.28 0 0 .28 0 224)" style="fill:#fff"/><path d="M0 0h100v100H0z" transform="matrix(.28 0 0 .28 112 224)" style="fill:#fff"/><path d="M0 0h100v100H0z" transform="matrix(.28 0 0 .28 168 224)" style="fill:#fff"/><path d="M0 0h100v100H0z" transform="matrix(.28 0 0 .28 196 224)" style="fill:#fff"/><path d="M0 0h100v100H0z" transform="matrix(.28 0 0 .28 224 224)" style="fill:#fff"/><path d="M0 0h100v100H0z" transform="matrix(.28 0 0 .28 280 224)" style="fill:#fff"/><path d="M0 0h100v100H0z" transform="matrix(.28 0 0 .28 308 224)" style="fill:#fff"/><path d="M0 0h100v100H0z" transform="matrix(.28 0 0 .28 420 224)" style="fill:#fff"/><path d="M0 0h100v100H0z" transform="matrix(.28 0 0 .28 504 224)" style="fill:#fff"/><path d="M0 0h100v100H0z" transform="matrix(.28 0 0 .28 616 224)" style="fill:#fff"/><path d="M0 0h100v100H0z" transform="matrix(.28 0 0 .28 672 224)" style="fill:#fff"/><path d="M0 0h100v100H0z" transform="matrix(.28 0 0 .28 728 224)" style="fill:#fff"/><path d="M0 0h100v100H0z" transform="matrix(.28 0 0 .28 756 224)" style="fill:#fff"/><path d="M0 0h100v100H0z" transform="matrix(.28 0 0 .28 812 224)" style="fill:#fff"/><path d="M0 0h100v100H0z" transform="matrix(.28 0 0 .28 840 224)" style="fill:#fff"/><path d="M0 0h100v100H0z" transform="matrix(.28 0 0 .28 868 224)" style="fill:#fff"/><path d="M0 0h100v100H0z" transform="matrix(.28 0 0 .28 896 224)" style="fill:#fff"/><path d="M0 0h100v100H0z" transform="matrix(.28 0 0 .28 924 224)" style="fill:#fff"/><path d="M0 0h100v100H0z" transform="matrix(.28 0 0 .28 1008 224)" style="fill:#fff"/><path d="M0 0h100v100H0z" transform="matrix(.28 0 0 .28 0 252)" style="fill:#fff"/><path d="M0 0h100v100H0z" transform="matrix(.28 0 0 .28 56 252)" style="fill:#fff"/><path d="M0 0h100v100H0z" transform="matrix(.28 0 0 .28 84 252)" style="fill:#fff"/><path d="M0 0h100v100H0z" transform="matrix(.28 0 0 .28 112 252)" style="fill:#fff"/><path d="M0 0h100v100H0z" transform="matrix(.28 0 0 .28 196 252)" style="fill:#fff"/><path d="M0 0h100v100H0z" transform="matrix(.28 0 0 .28 280 252)" style="fill:#fff"/><path d="M0 0h100v100H0z" transform="matrix(.28 0 0 .28 364 252)" style="fill:#fff"/><path d="M0 0h100v100H0z" transform="matrix(.28 0 0 .28 392 252)" style="fill:#fff"/><path d="M0 0h100v100H0z" transform="matrix(.28 0 0 .28 448 252)" style="fill:#fff"/><path d="M0 0h100v100H0z" transform="matrix(.28 0 0 .28 476 252)" style="fill:#fff"/><path d="M0 0h100v100H0z" transform="matrix(.28 0 0 .28 532 252)" style="fill:#fff"/><path d="M0 0h100v100H0z" transform="matrix(.28 0 0 .28 560 252)" style="fill:#fff"/><path d="M0 0h100v100H0z" transform="matrix(.28 0 0 .28 728 252)" style="fill:#fff"/><path d="M0 0h100v100H0z" transform="matrix(.28 0 0 .28 756 252)" style="fill:#fff"/><path d="M0 0h100v100H0z" transform="matrix(.28 0 0 .28 784 252)" style="fill:#fff"/><path d="M0 0h100v100H0z" transform="matrix(.28 0 0 .28 840 252)" style="fill:#fff"/><path d="M0 0h100v100H0z" transform="matrix(.28 0 0 .28 868 252)" style="fill:#fff"/><path d="M0 0h100v100H0z" transform="matrix(.28 0 0 .28 896 252)" style="fill:#fff"/><path d="M0 0h100v100H0z" transform="matrix(.28 0 0 .28 980 252)" style="fill:#fff"/><path d="M0 0h100v100H0z" transform="matrix(.28 0 0 .28 0 280)" style="fill:#fff"/><path d="M0 0h100v100H0z" transform="matrix(.28 0 0 .28 56 280)" style="fill:#fff"/><path d="M0 0h100v100H0z" transform="matrix(.28 0 0 .28 84 280)" style="fill:#fff"/><path d="M0 0h100v100H0z" transform="matrix(.28 0 0 .28 112 280)" style="fill:#fff"/><path d="M0 0h100v100H0z" transform="matrix(.28 0 0 .28 140 280)" style="fill:#fff"/><path d="M0 0h100v100H0z" transform="matrix(.28 0 0 .28 168 280)" style="fill:#fff"/><path d="M0 0h100v100H0z" transform="matrix(.28 0 0 .28 252 280)" style="fill:#fff"/><path d="M0 0h100v100H0z" transform="matrix(.28 0 0 .28 448 280)" style="fill:#fff"/><path d="M0 0h100v100H0z" transform="matrix(.28 0 0 .28 504 280)" style="fill:#fff"/><path d="M0 0h100v100H0z" transform="matrix(.28 0 0 .28 560 280)" style="fill:#fff"/><path d="M0 0h100v100H0z" transform="matrix(.28 0 0 .28 588 280)" style="fill:#fff"/><path d="M0 0h100v100H0z" transform="matrix(.28 0 0 .28 756 280)" style="fill:#fff"/><path d="M0 0h100v100H0z" transform="matrix(.28 0 0 .28 924 280)" style="fill:#fff"/><path d="M0 0h100v100H0z" transform="matrix(.28 0 0 .28 28 308)" style="fill:#fff"/><path d="M0 0h100v100H0z" transform="matrix(.28 0 0 .28 56 308)" style="fill:#fff"/><path d="M0 0h100v100H0z" transform="matrix(.28 0 0 .28 224 308)" style="fill:#fff"/><path d="M0 0h100v100H0z" transform="matrix(.28 0 0 .28 252 308)" style="fill:#fff"/><path d="M0 0h100v100H0z" transform="matrix(.28 0 0 .28 308 308)" style="fill:#fff"/><path d="M0 0h100v100H0z" transform="matrix(.28 0 0 .28 476 308)" style="fill:#fff"/><path d="M0 0h100v100H0z" transform="matrix(.28 0 0 .28 588 308)" style="fill:#fff"/><path d="M0 0h100v100H0z" transform="matrix(.28 0 0 .28 672 308)" style="fill:#fff"/><path d="M0 0h100v100H0z" transform="matrix(.28 0 0 .28 728 308)" style="fill:#fff"/><path d="M0 0h100v100H0z" transform="matrix(.28 0 0 .28 756 308)" style="fill:#fff"/><path d="M0 0h100v100H0z" transform="matrix(.28 0 0 .28 784 308)" style="fill:#fff"/><path d="M0 0h100v100H0z" transform="matrix(.28 0 0 .28 896 308)" style="fill:#fff"/><path d="M0 0h100v100H0z" transform="matrix(.28 0 0 .28 924 308)" style="fill:#fff"/><path d="M0 0h100v100H0z" transform="matrix(.28 0 0 .28 1008 308)" style="fill:#fff"/><path d="M0 0h100v100H0z" transform="matrix(.28 0 0 .28 0 336)" style="fill:#fff"/><path d="M0 0h100v100H0z" transform="matrix(.28 0 0 .28 28 336)" style="fill:#fff"/><path d="M0 0h100v100H0z" transform="matrix(.28 0 0 .28 56 336)" style="fill:#fff"/><path d="M0 0h100v100H0z" transform="matrix(.28 0 0 .28 84 336)" style="fill:#fff"/><path d="M0 0h100v100H0z" transform="matrix(.28 0 0 .28 112 336)" style="fill:#fff"/><path d="M0 0h100v100H0z" transform="matrix(.28 0 0 .28 168 336)" style="fill:#fff"/><path d="M0 0h100v100H0z" transform="matrix(.28 0 0 .28 224 336)" style="fill:#fff"/><path d="M0 0h100v100H0z" transform="matrix(.28 0 0 .28 336 336)" style="fill:#fff"/><path d="M0 0h100v100H0z" transform="matrix(.28 0 0 .28 364 336)" style="fill:#fff"/><path d="M0 0h100v100H0z" transform="matrix(.28 0 0 .28 420 336)" style="fill:#fff"/><path d="M0 0h100v100H0z" transform="matrix(.28 0 0 .28 476 336)" style="fill:#fff"/><path d="M0 0h100v100H0z" transform="matrix(.28 0 0 .28 532 336)" style="fill:#fff"/><path d="M0 0h100v100H0z" transform="matrix(.28 0 0 .28 560 336)" style="fill:#fff"/><path d="M0 0h100v100H0z" transform="matrix(.28 0 0 .28 588 336)" style="fill:#fff"/><path d="M0 0h100v100H0z" transform="matrix(.28 0 0 .28 644 336)" style="fill:#fff"/><path d="M0 0h100v100H0z" transform="matrix(.28 0 0 .28 672 336)" style="fill:#fff"/><path d="M0 0h100v100H0z" transform="matrix(.28 0 0 .28 756 336)" style="fill:#fff"/><path d="M0 0h100v100H0z" transform="matrix(.28 0 0 .28 840 336)" style="fill:#fff"/><path d="M0 0h100v100H0z" transform="matrix(.28 0 0 .28 868 336)" style="fill:#fff"/><path d="M0 0h100v100H0z" transform="matrix(.28 0 0 .28 980 336)" style="fill:#fff"/><path d="M0 0h100v100H0z" transform="matrix(.28 0 0 .28 28 364)" style="fill:#fff"/><path d="M0 0h100v100H0z" transform="matrix(.28 0 0 .28 196 364)" style="fill:#fff"/><path d="M0 0h100v100H0z" transform="matrix(.28 0 0 .28 224 364)" style="fill:#fff"/><path d="M0 0h100v100H0z" transform="matrix(.28 0 0 .28 252 364)" style="fill:#fff"/><path d="M0 0h100v100H0z" transform="matrix(.28 0 0 .28 280 364)" style="fill:#fff"/><path d="M0 0h100v100H0z" transform="matrix(.28 0 0 .28 308 364)" style="fill:#fff"/><path d="M0 0h100v100H0z" transform="matrix(.28 0 0 .28 364 364)" style="fill:#fff"/><path d="M0 0h100v100H0z" transform="matrix(.28 0 0 .28 392 364)" style="fill:#fff"/><path d="M0 0h100v100H0z" transform="matrix(.28 0 0 .28 420 364)" style="fill:#fff"/><path d="M0 0h100v100H0z" transform="matrix(.28 0 0 .28 448 364)" style="fill:#fff"/><path d="M0 0h100v100H0z" transform="matrix(.28 0 0 .28 476 364)" style="fill:#fff"/><path d="M0 0h100v100H0z" transform="matrix(.28 0 0 .28 504 364)" style="fill:#fff"/><path d="M0 0h100v100H0z" transform="matrix(.28 0 0 .28 532 364)" style="fill:#fff"/><path d="M0 0h100v100H0z" transform="matrix(.28 0 0 .28 560 364)" style="fill:#fff"/><path d="M0 0h100v100H0z" transform="matrix(.28 0 0 .28 644 364)" style="fill:#fff"/><path d="M0 0h100v100H0z" transform="matrix(.28 0 0 .28 700 364)" style="fill:#fff"/><path d="M0 0h100v100H0z" transform="matrix(.28 0 0 .28 728 364)" style="fill:#fff"/><path d="M0 0h100v100H0z" transform="matrix(.28 0 0 .28 896 364)" style="fill:#fff"/><path d="M0 0h100v100H0z" transform="matrix(.28 0 0 .28 0 392)" style="fill:#fff"/><path d="M0 0h100v100H0z" transform="matrix(.28 0 0 .28 56 392)" style="fill:#fff"/><path d="M0 0h100v100H0z" transform="matrix(.28 0 0 .28 168 392)" style="fill:#fff"/><path d="M0 0h100v100H0z" transform="matrix(.28 0 0 .28 252 392)" style="fill:#fff"/><path d="M0 0h100v100H0z" transform="matrix(.28 0 0 .28 280 392)" style="fill:#fff"/><path d="M0 0h100v100H0z" transform="matrix(.28 0 0 .28 308 392)" style="fill:#fff"/><path d="M0 0h100v100H0z" transform="matrix(.28 0 0 .28 364 392)" style="fill:#fff"/><path d="M0 0h100v100H0z" transform="matrix(.28 0 0 .28 392 392)" style="fill:#fff"/><path d="M0 0h100v100H0z" transform="matrix(.28 0 0 .28 420 392)" style="fill:#fff"/><path d="M0 0h100v100H0z" transform="matrix(.28 0 0 .28 448 392)" style="fill:#fff"/><path d="M0 0h100v100H0z" transform="matrix(.28 0 0 .28 504 392)" style="fill:#fff"/><path d="M0 0h100v100H0z" transform="matrix(.28 0 0 .28 588 392)" style="fill:#fff"/><path d="M0 0h100v100H0z" transform="matrix(.28 0 0 .28 616 392)" style="fill:#fff"/><path d="M0 0h100v100H0z" transform="matrix(.28 0 0 .28 644 392)" style="fill:#fff"/><path d="M0 0h100v100H0z" transform="matrix(.28 0 0 .28 756 392)" style="fill:#fff"/><path d="M0 0h100v100H0z" transform="matrix(.28 0 0 .28 784 392)" style="fill:#fff"/><path d="M0 0h100v100H0z" transform="matrix(.28 0 0 .28 812 392)" style="fill:#fff"/><path d="M0 0h100v100H0z" transform="matrix(.28 0 0 .28 840 392)" style="fill:#fff"/><path d="M0 0h100v100H0z" transform="matrix(.28 0 0 .28 896 392)" style="fill:#fff"/><path d="M0 0h100v100H0z" transform="matrix(.28 0 0 .28 1008 392)" style="fill:#fff"/><path d="M0 0h100v100H0z" transform="matrix(.28 0 0 .28 56 420)" style="fill:#fff"/><path d="M0 0h100v100H0z" transform="matrix(.28 0 0 .28 84 420)" style="fill:#fff"/><path d="M0 0h100v100H0z" transform="matrix(.28 0 0 .28 196 420)" style="fill:#fff"/><path d="M0 0h100v100H0z" transform="matrix(.28 0 0 .28 308 420)" style="fill:#fff"/><path d="M0 0h100v100H0z" transform="matrix(.28 0 0 .28 364 420)" style="fill:#fff"/><path d="M0 0h100v100H0z" transform="matrix(.28 0 0 .28 420 420)" style="fill:#fff"/><path d="M0 0h100v100H0z" transform="matrix(.28 0 0 .28 532 420)" style="fill:#fff"/><path d="M0 0h100v100H0z" transform="matrix(.28 0 0 .28 560 420)" style="fill:#fff"/><path d="M0 0h100v100H0z" transform="matrix(.28 0 0 .28 588 420)" style="fill:#fff"/><path d="M0 0h100v100H0z" transform="matrix(.28 0 0 .28 644 420)" style="fill:#fff"/><path d="M0 0h100v100H0z" transform="matrix(.28 0 0 .28 756 420)" style="fill:#fff"/><path d="M0 0h100v100H0z" transform="matrix(.28 0 0 .28 812 420)" style="fill:#fff"/><path d="M0 0h100v100H0z" transform="matrix(.28 0 0 .28 840 420)" style="fill:#fff"/><path d="M0 0h100v100H0z" transform="matrix(.28 0 0 .28 952 420)" style="fill:#fff"/><path d="M0 0h100v100H0z" transform="matrix(.28 0 0 .28 980 420)" style="fill:#fff"/><path d="M0 0h100v100H0z" transform="matrix(.28 0 0 .28 0 448)" style="fill:#fff"/><path d="M0 0h100v100H0z" transform="matrix(.28 0 0 .28 28 448)" style="fill:#fff"/><path d="M0 0h100v100H0z" transform="matrix(.28 0 0 .28 84 448)" style="fill:#fff"/><path d="M0 0h100v100H0z" transform="matrix(.28 0 0 .28 140 448)" style="fill:#fff"/><path d="M0 0h100v100H0z" transform="matrix(.28 0 0 .28 168 448)" style="fill:#fff"/><path d="M0 0h100v100H0z" transform="matrix(.28 0 0 .28 224 448)" style="fill:#fff"/><path d="M0 0h100v100H0z" transform="matrix(.28 0 0 .28 252 448)" style="fill:#fff"/><path d="M0 0h100v100H0z" transform="matrix(.28 0 0 .28 364 448)" style="fill:#fff"/><path d="M0 0h100v100H0z" transform="matrix(.28 0 0 .28 448 448)" style="fill:#fff"/><path d="M0 0h100v100H0z" transform="matrix(.28 0 0 .28 560 448)" style="fill:#fff"/><path d="M0 0h100v100H0z" transform="matrix(.28 0 0 .28 728 448)" style="fill:#fff"/><path d="M0 0h100v100H0z" transform="matrix(.28 0 0 .28 756 448)" style="fill:#fff"/><path d="M0 0h100v100H0z" transform="matrix(.28 0 0 .28 812 448)" style="fill:#fff"/><path d="M0 0h100v100H0z" transform="matrix(.28 0 0 .28 840 448)" style="fill:#fff"/><path d="M0 0h100v100H0z" transform="matrix(.28 0 0 .28 896 448)" style="fill:#fff"/><path d="M0 0h100v100H0z" transform="matrix(.28 0 0 .28 952 448)" style="fill:#fff"/><path d="M0 0h100v100H0z" transform="matrix(.28 0 0 .28 1008 448)" style="fill:#fff"/><path d="M0 0h100v100H0z" transform="matrix(.28 0 0 .28 0 476)" style="fill:#fff"/><path d="M0 0h100v100H0z" transform="matrix(.28 0 0 .28 28 476)" style="fill:#fff"/><path d="M0 0h100v100H0z" transform="matrix(.28 0 0 .28 112 476)" style="fill:#fff"/><path d="M0 0h100v100H0z" transform="matrix(.28 0 0 .28 196 476)" style="fill:#fff"/><path d="M0 0h100v100H0z" transform="matrix(.28 0 0 .28 224 476)" style="fill:#fff"/><path d="M0 0h100v100H0z" transform="matrix(.28 0 0 .28 308 476)" style="fill:#fff"/><path d="M0 0h100v100H0z" transform="matrix(.28 0 0 .28 392 476)" style="fill:#fff"/><path d="M0 0h100v100H0z" transform="matrix(.28 0 0 .28 504 476)" style="fill:#fff"/><path d="M0 0h100v100H0z" transform="matrix(.28 0 0 .28 532 476)" style="fill:#fff"/><path d="M0 0h100v100H0z" transform="matrix(.28 0 0 .28 616 476)" style="fill:#fff"/><path d="M0 0h100v100H0z" transform="matrix(.28 0 0 .28 672 476)" style="fill:#fff"/><path d="M0 0h100v100H0z" transform="matrix(.28 0 0 .28 756 476)" style="fill:#fff"/><path d="M0 0h100v100H0z" transform="matrix(.28 0 0 .28 784 476)" style="fill:#fff"/><path d="M0 0h100v100H0z" transform="matrix(.28 0 0 .28 840 476)" style="fill:#fff"/><path d="M0 0h100v100H0z" transform="matrix(.28 0 0 .28 868 476)" style="fill:#fff"/><path d="M0 0h100v100H0z" transform="matrix(.28 0 0 .28 28 504)" style="fill:#fff"/><path d="M0 0h100v100H0z" transform="matrix(.28 0 0 .28 84 504)" style="fill:#fff"/><path d="M0 0h100v100H0z" transform="matrix(.28 0 0 .28 112 504)" style="fill:#fff"/><path d="M0 0h100v100H0z" transform="matrix(.28 0 0 .28 168 504)" style="fill:#fff"/><path d="M0 0h100v100H0z" transform="matrix(.28 0 0 .28 420 504)" style="fill:#fff"/><path d="M0 0h100v100H0z" transform="matrix(.28 0 0 .28 476 504)" style="fill:#fff"/><path d="M0 0h100v100H0z" transform="matrix(.28 0 0 .28 504 504)" style="fill:#fff"/><path d="M0 0h100v100H0z" transform="matrix(.28 0 0 .28 532 504)" style="fill:#fff"/><path d="M0 0h100v100H0z" transform="matrix(.28 0 0 .28 588 504)" style="fill:#fff"/><path d="M0 0h100v100H0z" transform="matrix(.28 0 0 .28 616 504)" style="fill:#fff"/><path d="M0 0h100v100H0z" transform="matrix(.28 0 0 .28 644 504)" style="fill:#fff"/><path d="M0 0h100v100H0z" transform="matrix(.28 0 0 .28 672 504)" style="fill:#fff"/><path d="M0 0h100v100H0z" transform="matrix(.28 0 0 .28 700 504)" style="fill:#fff"/><path d="M0 0h100v100H0z" transform="matrix(.28 0 0 .28 728 504)" style="fill:#fff"/><path d="M0 0h100v100H0z" transform="matrix(.28 0 0 .28 756 504)" style="fill:#fff"/><path d="M0 0h100v100H0z" transform="matrix(.28 0 0 .28 784 504)" style="fill:#fff"/><path d="M0 0h100v100H0z" transform="matrix(.28 0 0 .28 812 504)" style="fill:#fff"/><path d="M0 0h100v100H0z" transform="matrix(.28 0 0 .28 924 504)" style="fill:#fff"/><path d="M0 0h100v100H0z" transform="matrix(.28 0 0 .28 952 504)" style="fill:#fff"/><path d="M0 0h100v100H0z" transform="matrix(.28 0 0 .28 0 532)" style="fill:#fff"/><path d="M0 0h100v100H0z" transform="matrix(.28 0 0 .28 28 532)" style="fill:#fff"/><path d="M0 0h100v100H0z" transform="matrix(.28 0 0 .28 84 532)" style="fill:#fff"/><path d="M0 0h100v100H0z" transform="matrix(.28 0 0 .28 112 532)" style="fill:#fff"/><path d="M0 0h100v100H0z" transform="matrix(.28 0 0 .28 196 532)" style="fill:#fff"/><path d="M0 0h100v100H0z" transform="matrix(.28 0 0 .28 280 532)" style="fill:#fff"/><path d="M0 0h100v100H0z" transform="matrix(.28 0 0 .28 308 532)" style="fill:#fff"/><path d="M0 0h100v100H0z" transform="matrix(.28 0 0 .28 364 532)" style="fill:#fff"/><path d="M0 0h100v100H0z" transform="matrix(.28 0 0 .28 392 532)" style="fill:#fff"/><path d="M0 0h100v100H0z" transform="matrix(.28 0 0 .28 420 532)" style="fill:#fff"/><path d="M0 0h100v100H0z" transform="matrix(.28 0 0 .28 448 532)" style="fill:#fff"/><path d="M0 0h100v100H0z" transform="matrix(.28 0 0 .28 476 532)" style="fill:#fff"/><path d="M0 0h100v100H0z" transform="matrix(.28 0 0 .28 504 532)" style="fill:#fff"/><path d="M0 0h100v100H0z" transform="matrix(.28 0 0 .28 532 532)" style="fill:#fff"/><path d="M0 0h100v100H0z" transform="matrix(.28 0 0 .28 560 532)" style="fill:#fff"/><path d="M0 0h100v100H0z" transform="matrix(.28 0 0 .28 588 532)" style="fill:#fff"/><path d="M0 0h100v100H0z" transform="matrix(.28 0 0 .28 616 532)" style="fill:#fff"/><path d="M0 0h100v100H0z" transform="matrix(.28 0 0 .28 644 532)" style="fill:#fff"/><path d="M0 0h100v100H0z" transform="matrix(.28 0 0 .28 728 532)" style="fill:#fff"/><path d="M0 0h100v100H0z" transform="matrix(.28 0 0 .28 756 532)" style="fill:#fff"/><path d="M0 0h100v100H0z" transform="matrix(.28 0 0 .28 812 532)" style="fill:#fff"/><path d="M0 0h100v100H0z" transform="matrix(.28 0 0 .28 924 532)" style="fill:#fff"/><path d="M0 0h100v100H0z" transform="matrix(.28 0 0 .28 980 532)" style="fill:#fff"/><path d="M0 0h100v100H0z" transform="matrix(.28 0 0 .28 1008 532)" style="fill:#fff"/><path d="M0 0h100v100H0z" transform="matrix(.28 0 0 .28 0 560)" style="fill:#fff"/><path d="M0 0h100v100H0z" transform="matrix(.28 0 0 .28 84 560)" style="fill:#fff"/><path d="M0 0h100v100H0z" transform="matrix(.28 0 0 .28 112 560)" style="fill:#fff"/><path d="M0 0h100v100H0z" transform="matrix(.28 0 0 .28 168 560)" style="fill:#fff"/><path d="M0 0h100v100H0z" transform="matrix(.28 0 0 .28 196 560)" style="fill:#fff"/><path d="M0 0h100v100H0z" transform="matrix(.28 0 0 .28 308 560)" style="fill:#fff"/><path d="M0 0h100v100H0z" transform="matrix(.28 0 0 .28 448 560)" style="fill:#fff"/><path d="M0 0h100v100H0z" transform="matrix(.28 0 0 .28 476 560)" style="fill:#fff"/><path d="M0 0h100v100H0z" transform="matrix(.28 0 0 .28 560 560)" style="fill:#fff"/><path d="M0 0h100v100H0z" transform="matrix(.28 0 0 .28 588 560)" style="fill:#fff"/><path d="M0 0h100v100H0z" transform="matrix(.28 0 0 .28 616 560)" style="fill:#fff"/><path d="M0 0h100v100H0z" transform="matrix(.28 0 0 .28 672 560)" style="fill:#fff"/><path d="M0 0h100v100H0z" transform="matrix(.28 0 0 .28 756 560)" style="fill:#fff"/><path d="M0 0h100v100H0z" transform="matrix(.28 0 0 .28 812 560)" style="fill:#fff"/><path d="M0 0h100v100H0z" transform="matrix(.28 0 0 .28 840 560)" style="fill:#fff"/><path d="M0 0h100v100H0z" transform="matrix(.28 0 0 .28 924 560)" style="fill:#fff"/><path d="M0 0h100v100H0z" transform="matrix(.28 0 0 .28 1008 560)" style="fill:#fff"/><path d="M0 0h100v100H0z" transform="matrix(.28 0 0 .28 0 588)" style="fill:#fff"/><path d="M0 0h100v100H0z" transform="matrix(.28 0 0 .28 140 588)" style="fill:#fff"/><path d="M0 0h100v100H0z" transform="matrix(.28 0 0 .28 420 588)" style="fill:#fff"/><path d="M0 0h100v100H0z" transform="matrix(.28 0 0 .28 448 588)" style="fill:#fff"/><path d="M0 0h100v100H0z" transform="matrix(.28 0 0 .28 560 588)" style="fill:#fff"/><path d="M0 0h100v100H0z" transform="matrix(.28 0 0 .28 588 588)" style="fill:#fff"/><path d="M0 0h100v100H0z" transform="matrix(.28 0 0 .28 644 588)" style="fill:#fff"/><path d="M0 0h100v100H0z" transform="matrix(.28 0 0 .28 672 588)" style="fill:#fff"/><path d="M0 0h100v100H0z" transform="matrix(.28 0 0 .28 700 588)" style="fill:#fff"/><path d="M0 0h100v100H0z" transform="matrix(.28 0 0 .28 728 588)" style="fill:#fff"/><path d="M0 0h100v100H0z" transform="matrix(.28 0 0 .28 756 588)" style="fill:#fff"/><path d="M0 0h100v100H0z" transform="matrix(.28 0 0 .28 812 588)" style="fill:#fff"/><path d="M0 0h100v100H0z" transform="matrix(.28 0 0 .28 896 588)" style="fill:#fff"/><path d="M0 0h100v100H0z" transform="matrix(.28 0 0 .28 924 588)" style="fill:#fff"/><path d="M0 0h100v100H0z" transform="matrix(.28 0 0 .28 28 616)" style="fill:#fff"/><path d="M0 0h100v100H0z" transform="matrix(.28 0 0 .28 56 616)" style="fill:#fff"/><path d="M0 0h100v100H0z" transform="matrix(.28 0 0 .28 112 616)" style="fill:#fff"/><path d="M0 0h100v100H0z" transform="matrix(.28 0 0 .28 168 616)" style="fill:#fff"/><path d="M0 0h100v100H0z" transform="matrix(.28 0 0 .28 196 616)" style="fill:#fff"/><path d="M0 0h100v100H0z" transform="matrix(.28 0 0 .28 252 616)" style="fill:#fff"/><path d="M0 0h100v100H0z" transform="matrix(.28 0 0 .28 336 616)" style="fill:#fff"/><path d="M0 0h100v100H0z" transform="matrix(.28 0 0 .28 364 616)" style="fill:#fff"/><path d="M0 0h100v100H0z" transform="matrix(.28 0 0 .28 420 616)" style="fill:#fff"/><path d="M0 0h100v100H0z" transform="matrix(.28 0 0 .28 476 616)" style="fill:#fff"/><path d="M0 0h100v100H0z" transform="matrix(.28 0 0 .28 560 616)" style="fill:#fff"/><path d="M0 0h100v100H0z" transform="matrix(.28 0 0 .28 644 616)" style="fill:#fff"/><path d="M0 0h100v100H0z" transform="matrix(.28 0 0 .28 672 616)" style="fill:#fff"/><path d="M0 0h100v100H0z" transform="matrix(.28 0 0 .28 700 616)" style="fill:#fff"/><path d="M0 0h100v100H0z" transform="matrix(.28 0 0 .28 756 616)" style="fill:#fff"/><path d="M0 0h100v100H0z" transform="matrix(.28 0 0 .28 784 616)" style="fill:#fff"/><path d="M0 0h100v100H0z" transform="matrix(.28 0 0 .28 840 616)" style="fill:#fff"/><path d="M0 0h100v100H0z" transform="matrix(.28 0 0 .28 868 616)" style="fill:#fff"/><path d="M0 0h100v100H0z" transform="matrix(.28 0 0 .28 952 616)" style="fill:#fff"/><path d="M0 0h100v100H0z" transform="matrix(.28 0 0 .28 980 616)" style="fill:#fff"/><path d="M0 0h100v100H0z" transform="matrix(.28 0 0 .28 0 644)" style="fill:#fff"/><path d="M0 0h100v100H0z" transform="matrix(.28 0 0 .28 56 644)" style="fill:#fff"/><path d="M0 0h100v100H0z" transform="matrix(.28 0 0 .28 112 644)" style="fill:#fff"/><path d="M0 0h100v100H0z" transform="matrix(.28 0 0 .28 140 644)" style="fill:#fff"/><path d="M0 0h100v100H0z" transform="matrix(.28 0 0 .28 224 644)" style="fill:#fff"/><path d="M0 0h100v100H0z" transform="matrix(.28 0 0 .28 252 644)" style="fill:#fff"/><path d="M0 0h100v100H0z" transform="matrix(.28 0 0 .28 308 644)" style="fill:#fff"/><path d="M0 0h100v100H0z" transform="matrix(.28 0 0 .28 364 644)" style="fill:#fff"/><path d="M0 0h100v100H0z" transform="matrix(.28 0 0 .28 392 644)" style="fill:#fff"/><path d="M0 0h100v100H0z" transform="matrix(.28 0 0 .28 448 644)" style="fill:#fff"/><path d="M0 0h100v100H0z" transform="matrix(.28 0 0 .28 476 644)" style="fill:#fff"/><path d="M0 0h100v100H0z" transform="matrix(.28 0 0 .28 504 644)" style="fill:#fff"/><path d="M0 0h100v100H0z" transform="matrix(.28 0 0 .28 560 644)" style="fill:#fff"/><path d="M0 0h100v100H0z" transform="matrix(.28 0 0 .28 616 644)" style="fill:#fff"/><path d="M0 0h100v100H0z" transform="matrix(.28 0 0 .28 728 644)" style="fill:#fff"/><path d="M0 0h100v100H0z" transform="matrix(.28 0 0 .28 756 644)" style="fill:#fff"/><path d="M0 0h100v100H0z" transform="matrix(.28 0 0 .28 840 644)" style="fill:#fff"/><path d="M0 0h100v100H0z" transform="matrix(.28 0 0 .28 952 644)" style="fill:#fff"/><path d="M0 0h100v100H0z" transform="matrix(.28 0 0 .28 980 644)" style="fill:#fff"/><path d="M0 0h100v100H0z" transform="matrix(.28 0 0 .28 0 672)" style="fill:#fff"/><path d="M0 0h100v100H0z" transform="matrix(.28 0 0 .28 28 672)" style="fill:#fff"/><path d="M0 0h100v100H0z" transform="matrix(.28 0 0 .28 112 672)" style="fill:#fff"/><path d="M0 0h100v100H0z" transform="matrix(.28 0 0 .28 168 672)" style="fill:#fff"/><path d="M0 0h100v100H0z" transform="matrix(.28 0 0 .28 196 672)" style="fill:#fff"/><path d="M0 0h100v100H0z" transform="matrix(.28 0 0 .28 252 672)" style="fill:#fff"/><path d="M0 0h100v100H0z" transform="matrix(.28 0 0 .28 308 672)" style="fill:#fff"/><path d="M0 0h100v100H0z" transform="matrix(.28 0 0 .28 392 672)" style="fill:#fff"/><path d="M0 0h100v100H0z" transform="matrix(.28 0 0 .28 504 672)" style="fill:#fff"/><path d="M0 0h100v100H0z" transform="matrix(.28 0 0 .28 532 672)" style="fill:#fff"/><path d="M0 0h100v100H0z" transform="matrix(.28 0 0 .28 616 672)" style="fill:#fff"/><path d="M0 0h100v100H0z" transform="matrix(.28 0 0 .28 672 672)" style="fill:#fff"/><path d="M0 0h100v100H0z" transform="matrix(.28 0 0 .28 728 672)" style="fill:#fff"/><path d="M0 0h100v100H0z" transform="matrix(.28 0 0 .28 812 672)" style="fill:#fff"/><path d="M0 0h100v100H0z" transform="matrix(.28 0 0 .28 840 672)" style="fill:#fff"/><path d="M0 0h100v100H0z" transform="matrix(.28 0 0 .28 868 672)" style="fill:#fff"/><path d="M0 0h100v100H0z" transform="matrix(.28 0 0 .28 896 672)" style="fill:#fff"/><path d="M0 0h100v100H0z" transform="matrix(.28 0 0 .28 924 672)" style="fill:#fff"/><path d="M0 0h100v100H0z" transform="matrix(.28 0 0 .28 952 672)" style="fill:#fff"/><path d="M0 0h100v100H0z" transform="matrix(.28 0 0 .28 980 672)" style="fill:#fff"/><path d="M0 0h100v100H0z" transform="matrix(.28 0 0 .28 1008 672)" style="fill:#fff"/><path d="M0 0h100v100H0z" transform="matrix(.28 0 0 .28 0 700)" style="fill:#fff"/><path d="M0 0h100v100H0z" transform="matrix(.28 0 0 .28 84 700)" style="fill:#fff"/><path d="M0 0h100v100H0z" transform="matrix(.28 0 0 .28 112 700)" style="fill:#fff"/><path d="M0 0h100v100H0z" transform="matrix(.28 0 0 .28 140 700)" style="fill:#fff"/><path d="M0 0h100v100H0z" transform="matrix(.28 0 0 .28 224 700)" style="fill:#fff"/><path d="M0 0h100v100H0z" transform="matrix(.28 0 0 .28 308 700)" style="fill:#fff"/><path d="M0 0h100v100H0z" transform="matrix(.28 0 0 .28 448 700)" style="fill:#fff"/><path d="M0 0h100v100H0z" transform="matrix(.28 0 0 .28 476 700)" style="fill:#fff"/><path d="M0 0h100v100H0z" transform="matrix(.28 0 0 .28 532 700)" style="fill:#fff"/><path d="M0 0h100v100H0z" transform="matrix(.28 0 0 .28 560 700)" style="fill:#fff"/><path d="M0 0h100v100H0z" transform="matrix(.28 0 0 .28 756 700)" style="fill:#fff"/><path d="M0 0h100v100H0z" transform="matrix(.28 0 0 .28 784 700)" style="fill:#fff"/><path d="M0 0h100v100H0z" transform="matrix(.28 0 0 .28 868 700)" style="fill:#fff"/><path d="M0 0h100v100H0z" transform="matrix(.28 0 0 .28 952 700)" style="fill:#fff"/><path d="M0 0h100v100H0z" transform="matrix(.28 0 0 .28 980 700)" style="fill:#fff"/><path d="M0 0h100v100H0z" transform="matrix(.28 0 0 .28 1008 700)" style="fill:#fff"/><path d="M0 0h100v100H0z" transform="matrix(.28 0 0 .28 56 728)" style="fill:#fff"/><path d="M0 0h100v100H0z" transform="matrix(.28 0 0 .28 84 728)" style="fill:#fff"/><path d="M0 0h100v100H0z" transform="matrix(.28 0 0 .28 112 728)" style="fill:#fff"/><path d="M0 0h100v100H0z" transform="matrix(.28 0 0 .28 140 728)" style="fill:#fff"/><path d="M0 0h100v100H0z" transform="matrix(.28 0 0 .28 168 728)" style="fill:#fff"/><path d="M0 0h100v100H0z" transform="matrix(.28 0 0 .28 196 728)" style="fill:#fff"/><path d="M0 0h100v100H0z" transform="matrix(.28 0 0 .28 224 728)" style="fill:#fff"/><path d="M0 0h100v100H0z" transform="matrix(.28 0 0 .28 280 728)" style="fill:#fff"/><path d="M0 0h100v100H0z" transform="matrix(.28 0 0 .28 336 728)" style="fill:#fff"/><path d="M0 0h100v100H0z" transform="matrix(.28 0 0 .28 392 728)" style="fill:#fff"/><path d="M0 0h100v100H0z" transform="matrix(.28 0 0 .28 448 728)" style="fill:#fff"/><path d="M0 0h100v100H0z" transform="matrix(.28 0 0 .28 476 728)" style="fill:#fff"/><path d="M0 0h100v100H0z" transform="matrix(.28 0 0 .28 560 728)" style="fill:#fff"/><path d="M0 0h100v100H0z" transform="matrix(.28 0 0 .28 616 728)" style="fill:#fff"/><path d="M0 0h100v100H0z" transform="matrix(.28 0 0 .28 728 728)" style="fill:#fff"/><path d="M0 0h100v100H0z" transform="matrix(.28 0 0 .28 756 728)" style="fill:#fff"/><path d="M0 0h100v100H0z" transform="matrix(.28 0 0 .28 784 728)" style="fill:#fff"/><path d="M0 0h100v100H0z" transform="matrix(.28 0 0 .28 812 728)" style="fill:#fff"/><path d="M0 0h100v100H0z" transform="matrix(.28 0 0 .28 896 728)" style="fill:#fff"/><path d="M0 0h100v100H0z" transform="matrix(.28 0 0 .28 924 728)" style="fill:#fff"/><path d="M0 0h100v100H0z" transform="matrix(.28 0 0 .28 952 728)" style="fill:#fff"/><path d="M0 0h100v100H0z" transform="matrix(.28 0 0 .28 112 756)" style="fill:#fff"/><path d="M0 0h100v100H0z" transform="matrix(.28 0 0 .28 140 756)" style="fill:#fff"/><path d="M0 0h100v100H0z" transform="matrix(.28 0 0 .28 336 756)" style="fill:#fff"/><path d="M0 0h100v100H0z" transform="matrix(.28 0 0 .28 364 756)" style="fill:#fff"/><path d="M0 0h100v100H0z" transform="matrix(.28 0 0 .28 392 756)" style="fill:#fff"/><path d="M0 0h100v100H0z" transform="matrix(.28 0 0 .28 476 756)" style="fill:#fff"/><path d="M0 0h100v100H0z" transform="matrix(.28 0 0 .28 588 756)" style="fill:#fff"/><path d="M0 0h100v100H0z" transform="matrix(.28 0 0 .28 616 756)" style="fill:#fff"/><path d="M0 0h100v100H0z" transform="matrix(.28 0 0 .28 672 756)" style="fill:#fff"/><path d="M0 0h100v100H0z" transform="matrix(.28 0 0 .28 756 756)" style="fill:#fff"/><path d="M0 0h100v100H0z" transform="matrix(.28 0 0 .28 784 756)" style="fill:#fff"/><path d="M0 0h100v100H0z" transform="matrix(.28 0 0 .28 812 756)" style="fill:#fff"/><path d="M0 0h100v100H0z" transform="matrix(.28 0 0 .28 840 756)" style="fill:#fff"/><path d="M0 0h100v100H0z" transform="matrix(.28 0 0 .28 952 756)" style="fill:#fff"/><path d="M0 0h100v100H0z" transform="matrix(.28 0 0 .28 1008 756)" style="fill:#fff"/><path d="M0 0h100v100H0z" transform="matrix(.28 0 0 .28 0 784)" style="fill:#fff"/><path d="M0 0h100v100H0z" transform="matrix(.28 0 0 .28 28 784)" style="fill:#fff"/><path d="M0 0h100v100H0z" transform="matrix(.28 0 0 .28 56 784)" style="fill:#fff"/><path d="M0 0h100v100H0z" transform="matrix(.28 0 0 .28 112 784)" style="fill:#fff"/><path d="M0 0h100v100H0z" transform="matrix(.28 0 0 .28 140 784)" style="fill:#fff"/><path d="M0 0h100v100H0z" transform="matrix(.28 0 0 .28 168 784)" style="fill:#fff"/><path d="M0 0h100v100H0z" transform="matrix(.28 0 0 .28 196 784)" style="fill:#fff"/><path d="M0 0h100v100H0z" transform="matrix(.28 0 0 .28 252 784)" style="fill:#fff"/><path d="M0 0h100v100H0z" transform="matrix(.28 0 0 .28 308 784)" style="fill:#fff"/><path d="M0 0h100v100H0z" transform="matrix(.28 0 0 .28 364 784)" style="fill:#fff"/><path d="M0 0h100v100H0z" transform="matrix(.28 0 0 .28 420 784)" style="fill:#fff"/><path d="M0 0h100v100H0z" transform="matrix(.28 0 0 .28 476 784)" style="fill:#fff"/><path d="M0 0h100v100H0z" transform="matrix(.28 0 0 .28 532 784)" style="fill:#fff"/><path d="M0 0h100v100H0z" transform="matrix(.28 0 0 .28 560 784)" style="fill:#fff"/><path d="M0 0h100v100H0z" transform="matrix(.28 0 0 .28 588 784)" style="fill:#fff"/><path d="M0 0h100v100H0z" transform="matrix(.28 0 0 .28 616 784)" style="fill:#fff"/><path d="M0 0h100v100H0z" transform="matrix(.28 0 0 .28 644 784)" style="fill:#fff"/><path d="M0 0h100v100H0z" transform="matrix(.28 0 0 .28 784 784)" style="fill:#fff"/><path d="M0 0h100v100H0z" transform="matrix(.28 0 0 .28 812 784)" style="fill:#fff"/><path d="M0 0h100v100H0z" transform="matrix(.28 0 0 .28 840 784)" style="fill:#fff"/><path d="M0 0h100v100H0z" transform="matrix(.28 0 0 .28 868 784)" style="fill:#fff"/><path d="M0 0h100v100H0z" transform="matrix(.28 0 0 .28 896 784)" style="fill:#fff"/><path d="M0 0h100v100H0z" transform="matrix(.28 0 0 .28 924 784)" style="fill:#fff"/><path d="M0 0h100v100H0z" transform="matrix(.28 0 0 .28 952 784)" style="fill:#fff"/><path d="M0 0h100v100H0z" transform="matrix(.28 0 0 .28 980 784)" style="fill:#fff"/><path d="M0 0h100v100H0z" transform="matrix(.28 0 0 .28 224 812)" style="fill:#fff"/><path d="M0 0h100v100H0z" transform="matrix(.28 0 0 .28 280 812)" style="fill:#fff"/><path d="M0 0h100v100H0z" transform="matrix(.28 0 0 .28 336 812)" style="fill:#fff"/><path d="M0 0h100v100H0z" transform="matrix(.28 0 0 .28 420 812)" style="fill:#fff"/><path d="M0 0h100v100H0z" transform="matrix(.28 0 0 .28 448 812)" style="fill:#fff"/><path d="M0 0h100v100H0z" transform="matrix(.28 0 0 .28 476 812)" style="fill:#fff"/><path d="M0 0h100v100H0z" transform="matrix(.28 0 0 .28 644 812)" style="fill:#fff"/><path d="M0 0h100v100H0z" transform="matrix(.28 0 0 .28 700 812)" style="fill:#fff"/><path d="M0 0h100v100H0z" transform="matrix(.28 0 0 .28 728 812)" style="fill:#fff"/><path d="M0 0h100v100H0z" transform="matrix(.28 0 0 .28 784 812)" style="fill:#fff"/><path d="M0 0h100v100H0z" transform="matrix(.28 0 0 .28 896 812)" style="fill:#fff"/><path d="M0 0h100v100H0z" transform="matrix(.28 0 0 .28 224 840)" style="fill:#fff"/><path d="M0 0h100v100H0z" transform="matrix(.28 0 0 .28 252 840)" style="fill:#fff"/><path d="M0 0h100v100H0z" transform="matrix(.28 0 0 .28 280 840)" style="fill:#fff"/><path d="M0 0h100v100H0z" transform="matrix(.28 0 0 .28 364 840)" style="fill:#fff"/><path d="M0 0h100v100H0z" transform="matrix(.28 0 0 .28 392 840)" style="fill:#fff"/><path d="M0 0h100v100H0z" transform="matrix(.28 0 0 .28 420 840)" style="fill:#fff"/><path d="M0 0h100v100H0z" transform="matrix(.28 0 0 .28 504 840)" style="fill:#fff"/><path d="M0 0h100v100H0z" transform="matrix(.28 0 0 .28 560 840)" style="fill:#fff"/><path d="M0 0h100v100H0z" transform="matrix(.28 0 0 .28 588 840)" style="fill:#fff"/><path d="M0 0h100v100H0z" transform="matrix(.28 0 0 .28 616 840)" style="fill:#fff"/><path d="M0 0h100v100H0z" transform="matrix(.28 0 0 .28 644 840)" style="fill:#fff"/><path d="M0 0h100v100H0z" transform="matrix(.28 0 0 .28 700 840)" style="fill:#fff"/><path d="M0 0h100v100H0z" transform="matrix(.28 0 0 .28 784 840)" style="fill:#fff"/><path d="M0 0h100v100H0z" transform="matrix(.28 0 0 .28 840 840)" style="fill:#fff"/><path d="M0 0h100v100H0z" transform="matrix(.28 0 0 .28 896 840)" style="fill:#fff"/><path d="M0 0h100v100H0z" transform="matrix(.28 0 0 .28 336 868)" style="fill:#fff"/><path d="M0 0h100v100H0z" transform="matrix(.28 0 0 .28 364 868)" style="fill:#fff"/><path d="M0 0h100v100H0z" transform="matrix(.28 0 0 .28 392 868)" style="fill:#fff"/><path d="M0 0h100v100H0z" transform="matrix(.28 0 0 .28 420 868)" style="fill:#fff"/><path d="M0 0h100v100H0z" transform="matrix(.28 0 0 .28 560 868)" style="fill:#fff"/><path d="M0 0h100v100H0z" transform="matrix(.28 0 0 .28 588 868)" style="fill:#fff"/><path d="M0 0h100v100H0z" transform="matrix(.28 0 0 .28 644 868)" style="fill:#fff"/><path d="M0 0h100v100H0z" transform="matrix(.28 0 0 .28 672 868)" style="fill:#fff"/><path d="M0 0h100v100H0z" transform="matrix(.28 0 0 .28 784 868)" style="fill:#fff"/><path d="M0 0h100v100H0z" transform="matrix(.28 0 0 .28 896 868)" style="fill:#fff"/><path d="M0 0h100v100H0z" transform="matrix(.28 0 0 .28 924 868)" style="fill:#fff"/><path d="M0 0h100v100H0z" transform="matrix(.28 0 0 .28 952 868)" style="fill:#fff"/><path d="M0 0h100v100H0z" transform="matrix(.28 0 0 .28 224 896)" style="fill:#fff"/><path d="M0 0h100v100H0z" transform="matrix(.28 0 0 .28 252 896)" style="fill:#fff"/><path d="M0 0h100v100H0z" transform="matrix(.28 0 0 .28 308 896)" style="fill:#fff"/><path d="M0 0h100v100H0z" transform="matrix(.28 0 0 .28 448 896)" style="fill:#fff"/><path d="M0 0h100v100H0z" transform="matrix(.28 0 0 .28 532 896)" style="fill:#fff"/><path d="M0 0h100v100H0z" transform="matrix(.28 0 0 .28 560 896)" style="fill:#fff"/><path d="M0 0h100v100H0z" transform="matrix(.28 0 0 .28 672 896)" style="fill:#fff"/><path d="M0 0h100v100H0z" transform="matrix(.28 0 0 .28 728 896)" style="fill:#fff"/><path d="M0 0h100v100H0z" transform="matrix(.28 0 0 .28 784 896)" style="fill:#fff"/><path d="M0 0h100v100H0z" transform="matrix(.28 0 0 .28 812 896)" style="fill:#fff"/><path d="M0 0h100v100H0z" transform="matrix(.28 0 0 .28 840 896)" style="fill:#fff"/><path d="M0 0h100v100H0z" transform="matrix(.28 0 0 .28 868 896)" style="fill:#fff"/><path d="M0 0h100v100H0z" transform="matrix(.28 0 0 .28 896 896)" style="fill:#fff"/><path d="M0 0h100v100H0z" transform="matrix(.28 0 0 .28 952 896)" style="fill:#fff"/><path d="M0 0h100v100H0z" transform="matrix(.28 0 0 .28 980 896)" style="fill:#fff"/><path d="M0 0h100v100H0z" transform="matrix(.28 0 0 .28 1008 896)" style="fill:#fff"/><path d="M0 0h100v100H0z" transform="matrix(.28 0 0 .28 308 924)" style="fill:#fff"/><path d="M0 0h100v100H0z" transform="matrix(.28 0 0 .28 336 924)" style="fill:#fff"/><path d="M0 0h100v100H0z" transform="matrix(.28 0 0 .28 364 924)" style="fill:#fff"/><path d="M0 0h100v100H0z" transform="matrix(.28 0 0 .28 392 924)" style="fill:#fff"/><path d="M0 0h100v100H0z" transform="matrix(.28 0 0 .28 504 924)" style="fill:#fff"/><path d="M0 0h100v100H0z" transform="matrix(.28 0 0 .28 532 924)" style="fill:#fff"/><path d="M0 0h100v100H0z" transform="matrix(.28 0 0 .28 588 924)" style="fill:#fff"/><path d="M0 0h100v100H0z" transform="matrix(.28 0 0 .28 616 924)" style="fill:#fff"/><path d="M0 0h100v100H0z" transform="matrix(.28 0 0 .28 672 924)" style="fill:#fff"/><path d="M0 0h100v100H0z" transform="matrix(.28 0 0 .28 700 924)" style="fill:#fff"/><path d="M0 0h100v100H0z" transform="matrix(.28 0 0 .28 728 924)" style="fill:#fff"/><path d="M0 0h100v100H0z" transform="matrix(.28 0 0 .28 756 924)" style="fill:#fff"/><path d="M0 0h100v100H0z" transform="matrix(.28 0 0 .28 812 924)" style="fill:#fff"/><path d="M0 0h100v100H0z" transform="matrix(.28 0 0 .28 840 924)" style="fill:#fff"/><path d="M0 0h100v100H0z" transform="matrix(.28 0 0 .28 868 924)" style="fill:#fff"/><path d="M0 0h100v100H0z" transform="matrix(.28 0 0 .28 952 924)" style="fill:#fff"/><path d="M0 0h100v100H0z" transform="matrix(.28 0 0 .28 980 924)" style="fill:#fff"/><path d="M0 0h100v100H0z" transform="matrix(.28 0 0 .28 308 952)" style="fill:#fff"/><path d="M0 0h100v100H0z" transform="matrix(.28 0 0 .28 336 952)" style="fill:#fff"/><path d="M0 0h100v100H0z" transform="matrix(.28 0 0 .28 364 952)" style="fill:#fff"/><path d="M0 0h100v100H0z" transform="matrix(.28 0 0 .28 392 952)" style="fill:#fff"/><path d="M0 0h100v100H0z" transform="matrix(.28 0 0 .28 420 952)" style="fill:#fff"/><path d="M0 0h100v100H0z" transform="matrix(.28 0 0 .28 476 952)" style="fill:#fff"/><path d="M0 0h100v100H0z" transform="matrix(.28 0 0 .28 532 952)" style="fill:#fff"/><path d="M0 0h100v100H0z" transform="matrix(.28 0 0 .28 588 952)" style="fill:#fff"/><path d="M0 0h100v100H0z" transform="matrix(.28 0 0 .28 644 952)" style="fill:#fff"/><path d="M0 0h100v100H0z" transform="matrix(.28 0 0 .28 728 952)" style="fill:#fff"/><path d="M0 0h100v100H0z" transform="matrix(.28 0 0 .28 784 952)" style="fill:#fff"/><path d="M0 0h100v100H0z" transform="matrix(.28 0 0 .28 812 952)" style="fill:#fff"/><path d="M0 0h100v100H0z" transform="matrix(.28 0 0 .28 840 952)" style="fill:#fff"/><path d="M0 0h100v100H0z" transform="matrix(.28 0 0 .28 868 952)" style="fill:#fff"/><path d="M0 0h100v100H0z" transform="matrix(.28 0 0 .28 980 952)" style="fill:#fff"/><path d="M0 0h100v100H0z" transform="matrix(.28 0 0 .28 364 980)" style="fill:#fff"/><path d="M0 0h100v100H0z" transform="matrix(.28 0 0 .28 392 980)" style="fill:#fff"/><path d="M0 0h100v100H0z" transform="matrix(.28 0 0 .28 420 980)" style="fill:#fff"/><path d="M0 0h100v100H0z" transform="matrix(.28 0 0 .28 448 980)" style="fill:#fff"/><path d="M0 0h100v100H0z" transform="matrix(.28 0 0 .28 476 980)" style="fill:#fff"/><path d="M0 0h100v100H0z" transform="matrix(.28 0 0 .28 532 980)" style="fill:#fff"/><path d="M0 0h100v100H0z" transform="matrix(.28 0 0 .28 560 980)" style="fill:#fff"/><path d="M0 0h100v100H0z" transform="matrix(.28 0 0 .28 588 980)" style="fill:#fff"/><path d="M0 0h100v100H0z" transform="matrix(.28 0 0 .28 616 980)" style="fill:#fff"/><path d="M0 0h100v100H0z" transform="matrix(.28 0 0 .28 672 980)" style="fill:#fff"/><path d="M0 0h100v100H0z" transform="matrix(.28 0 0 .28 728 980)" style="fill:#fff"/><path d="M0 0h100v100H0z" transform="matrix(.28 0 0 .28 756 980)" style="fill:#fff"/><path d="M0 0h100v100H0z" transform="matrix(.28 0 0 .28 840 980)" style="fill:#fff"/><path d="M0 0h100v100H0z" transform="matrix(.28 0 0 .28 980 980)" style="fill:#fff"/><path d="M0 0h100v100H0z" transform="matrix(.28 0 0 .28 224 1008)" style="fill:#fff"/><path d="M0 0h100v100H0z" transform="matrix(.28 0 0 .28 336 1008)" style="fill:#fff"/><path d="M0 0h100v100H0z" transform="matrix(.28 0 0 .28 476 1008)" style="fill:#fff"/><path d="M0 0h100v100H0z" transform="matrix(.28 0 0 .28 588 1008)" style="fill:#fff"/><path d="M0 0h100v100H0z" transform="matrix(.28 0 0 .28 616 1008)" style="fill:#fff"/><path d="M0 0h100v100H0z" transform="matrix(.28 0 0 .28 644 1008)" style="fill:#fff"/><path d="M0 0h100v100H0z" transform="matrix(.28 0 0 .28 868 1008)" style="fill:#fff"/><path d="M0 0h100v100H0z" transform="matrix(.28 0 0 .28 896 1008)" style="fill:#fff"/><path d="M0 0h100v100H0z" transform="matrix(.28 0 0 .28 952 1008)" style="fill:#fff"/><path d="M0 0h100v100H0z" transform="matrix(.28 0 0 .28 980 1008)" style="fill:#fff"/><path d="M0 0h100v100H0z" transform="matrix(.28 0 0 .28 1008 1008)" style="fill:#fff"/><path d="M38.806 99.939c-6.634.002-13.268-.006-19.901-.004-3.317.002-6.634.004-9.951.011l-4.776.013c-.932.002-2.048.158-2.964-.094-.627-.174-.814-.715-.806-1.316.02-1.441.518-2.924.759-4.342.543-3.193.89-6.416 1.183-9.643.593-6.527 1.136-13.072 1.347-19.627.209-6.504.003-13.029-.67-19.498-.331-3.189-.795-6.367-1.449-9.508C.975 33.038.263 30.212.089 27.249c-.328-5.582.97-11.088 3.898-15.863C6.72 6.928 10.834 3.84 15.721 2.064 21.696-.106 28.007.015 34.267.035 40.866.056 47.464.013 54.064.011c6.597-.003 13.192.034 19.791.215 4.941.137 9.908 1.019 14.252 3.496 4.613 2.629 8.197 6.862 9.906 11.899 1.957 5.777 1.827 12.262 1.836 18.291.017 13.041.428 26.125-.021 39.162-.176 5.041-1.145 10.145-3.738 14.533-2.748 4.651-7.089 8.107-12.105 10.035-5.844 2.246-12.051 2.421-18.23 2.314-6.49-.111-12.98.047-19.473.014-2.493-.011-4.985-.031-7.476-.031-11.941.002 6.556 0 0 0zm2.849-14.314c0-.07 17.863-.027 19.555-.045 3.149-.023 6.341.084 9.437-.604 2.674-.592 5.233-1.691 7.478-3.266 3.683-2.582 6.093-6.438 6.832-10.869.478-2.859.321-5.83.347-8.719.027-3.328.033-6.654.021-9.982-.014-3.328-.043-6.655-.088-9.982-.041-3.158.078-6.328-.053-9.481-.205-4.94-1.652-10.068-5.283-13.609a13.183 13.183 0 0 0-5.418-3.2c-2.674-.797-5.596-.707-8.356-.857-6.599-.365-13.205-.635-19.815-.623-3.303.006-6.607.084-9.906.254-2.948.152-6.037.182-8.932.799-4.294.918-8.128 3.613-10.397 7.381-2.956 4.909-2.423 10.362-1.473 15.77 1.124 6.402 1.383 12.863 1.374 19.349-.006 4.813-.133 9.591-.639 14.381a274.637 274.637 0 0 1-.845 6.938c-.152 1.156-.307 2.312-.458 3.466-.089.685-.248 1.505.087 2.151.657 1.267 3.101.783 4.188.771a871.05 871.05 0 0 1 7.582-.039c4.918-.007 9.84.016 14.762.016 0-.018-8.114 0 0 0z" transform="matrix(-1.96 0 0 1.96 196 0)" style="fill:#fff"/><path d="M38.806 99.939c-6.634.002-13.268-.006-19.901-.004-3.317.002-6.634.004-9.951.011l-4.776.013c-.932.002-2.048.158-2.964-.094-.627-.174-.814-.715-.806-1.316.02-1.441.518-2.924.759-4.342.543-3.193.89-6.416 1.183-9.643.593-6.527 1.136-13.072 1.347-19.627.209-6.504.003-13.029-.67-19.498-.331-3.189-.795-6.367-1.449-9.508C.975 33.038.263 30.212.089 27.249c-.328-5.582.97-11.088 3.898-15.863C6.72 6.928 10.834 3.84 15.721 2.064 21.696-.106 28.007.015 34.267.035 40.866.056 47.464.013 54.064.011c6.597-.003 13.192.034 19.791.215 4.941.137 9.908 1.019 14.252 3.496 4.613 2.629 8.197 6.862 9.906 11.899 1.957 5.777 1.827 12.262 1.836 18.291.017 13.041.428 26.125-.021 39.162-.176 5.041-1.145 10.145-3.738 14.533-2.748 4.651-7.089 8.107-12.105 10.035-5.844 2.246-12.051 2.421-18.23 2.314-6.49-.111-12.98.047-19.473.014-2.493-.011-4.985-.031-7.476-.031-11.941.002 6.556 0 0 0zm2.849-14.314c0-.07 17.863-.027 19.555-.045 3.149-.023 6.341.084 9.437-.604 2.674-.592 5.233-1.691 7.478-3.266 3.683-2.582 6.093-6.438 6.832-10.869.478-2.859.321-5.83.347-8.719.027-3.328.033-6.654.021-9.982-.014-3.328-.043-6.655-.088-9.982-.041-3.158.078-6.328-.053-9.481-.205-4.94-1.652-10.068-5.283-13.609a13.183 13.183 0 0 0-5.418-3.2c-2.674-.797-5.596-.707-8.356-.857-6.599-.365-13.205-.635-19.815-.623-3.303.006-6.607.084-9.906.254-2.948.152-6.037.182-8.932.799-4.294.918-8.128 3.613-10.397 7.381-2.956 4.909-2.423 10.362-1.473 15.77 1.124 6.402 1.383 12.863 1.374 19.349-.006 4.813-.133 9.591-.639 14.381a274.637 274.637 0 0 1-.845 6.938c-.152 1.156-.307 2.312-.458 3.466-.089.685-.248 1.505.087 2.151.657 1.267 3.101.783 4.188.771a871.05 871.05 0 0 1 7.582-.039c4.918-.007 9.84.016 14.762.016 0-.018-8.114 0 0 0z" transform="translate(840) scale(1.96)" style="fill:#fff"/><path d="M38.806 99.939c-6.634.002-13.268-.006-19.901-.004-3.317.002-6.634.004-9.951.011l-4.776.013c-.932.002-2.048.158-2.964-.094-.627-.174-.814-.715-.806-1.316.02-1.441.518-2.924.759-4.342.543-3.193.89-6.416 1.183-9.643.593-6.527 1.136-13.072 1.347-19.627.209-6.504.003-13.029-.67-19.498-.331-3.189-.795-6.367-1.449-9.508C.975 33.038.263 30.212.089 27.249c-.328-5.582.97-11.088 3.898-15.863C6.72 6.928 10.834 3.84 15.721 2.064 21.696-.106 28.007.015 34.267.035 40.866.056 47.464.013 54.064.011c6.597-.003 13.192.034 19.791.215 4.941.137 9.908 1.019 14.252 3.496 4.613 2.629 8.197 6.862 9.906 11.899 1.957 5.777 1.827 12.262 1.836 18.291.017 13.041.428 26.125-.021 39.162-.176 5.041-1.145 10.145-3.738 14.533-2.748 4.651-7.089 8.107-12.105 10.035-5.844 2.246-12.051 2.421-18.23 2.314-6.49-.111-12.98.047-19.473.014-2.493-.011-4.985-.031-7.476-.031-11.941.002 6.556 0 0 0zm2.849-14.314c0-.07 17.863-.027 19.555-.045 3.149-.023 6.341.084 9.437-.604 2.674-.592 5.233-1.691 7.478-3.266 3.683-2.582 6.093-6.438 6.832-10.869.478-2.859.321-5.83.347-8.719.027-3.328.033-6.654.021-9.982-.014-3.328-.043-6.655-.088-9.982-.041-3.158.078-6.328-.053-9.481-.205-4.94-1.652-10.068-5.283-13.609a13.183 13.183 0 0 0-5.418-3.2c-2.674-.797-5.596-.707-8.356-.857-6.599-.365-13.205-.635-19.815-.623-3.303.006-6.607.084-9.906.254-2.948.152-6.037.182-8.932.799-4.294.918-8.128 3.613-10.397 7.381-2.956 4.909-2.423 10.362-1.473 15.77 1.124 6.402 1.383 12.863 1.374 19.349-.006 4.813-.133 9.591-.639 14.381a274.637 274.637 0 0 1-.845 6.938c-.152 1.156-.307 2.312-.458 3.466-.089.685-.248 1.505.087 2.151.657 1.267 3.101.783 4.188.771a871.05 871.05 0 0 1 7.582-.039c4.918-.007 9.84.016 14.762.016 0-.018-8.114 0 0 0z" transform="rotate(180 98 518) scale(1.96)" style="fill:#fff"/><path d="M0 0h100v100H0z" transform="matrix(.84 0 0 .84 56 56)" style="fill:#fff"/><path d="M0 0h100v100H0z" transform="matrix(.84 0 0 .84 896 56)" style="fill:#fff"/><path d="M0 0h100v100H0z" transform="matrix(.84 0 0 .84 56 896)" style="fill:#fff"/></mask></defs><path fill="url(#a)" mask="url(#b)" d="M0 0h1036v1036H0z" transform="translate(56 56)"/></svg>