<svg xmlns="http://www.w3.org/2000/svg" width="1155" height="1155" xml:space="preserve"><path fill="#FFF" d="M0 0h1155v1155H0z"/><defs transform="translate(70 70)"><linearGradient gradientTransform="rotate(90)" id="a"><stop offset="5%"/><stop offset="95%" stop-color="#0277BD"/></linearGradient><mask id="b"><path d="M0 0h100v100H0z" transform="translate(280) scale(.35)" style="fill:#fff"/><path d="M0 0h100v100H0z" transform="translate(350) scale(.35)" style="fill:#fff"/><path d="M0 0h100v100H0z" transform="translate(455) scale(.35)" style="fill:#fff"/><path d="M0 0h100v100H0z" transform="translate(525) scale(.35)" style="fill:#fff"/><path d="M0 0h100v100H0z" transform="translate(560) scale(.35)" style="fill:#fff"/><path d="M0 0h100v100H0z" transform="translate(630) scale(.35)" style="fill:#fff"/><path d="M0 0h100v100H0z" transform="matrix(.35 0 0 .35 315 35)" style="fill:#fff"/><path d="M0 0h100v100H0z" transform="matrix(.35 0 0 .35 350 35)" style="fill:#fff"/><path d="M0 0h100v100H0z" transform="matrix(.35 0 0 .35 385 35)" style="fill:#fff"/><path d="M0 0h100v100H0z" transform="matrix(.35 0 0 .35 420 35)" style="fill:#fff"/><path d="M0 0h100v100H0z" transform="matrix(.35 0 0 .35 490 35)" style="fill:#fff"/><path d="M0 0h100v100H0z" transform="matrix(.35 0 0 .35 595 35)" style="fill:#fff"/><path d="M0 0h100v100H0z" transform="matrix(.35 0 0 .35 630 35)" style="fill:#fff"/><path d="M0 0h100v100H0z" transform="matrix(.35 0 0 .35 665 35)" style="fill:#fff"/><path d="M0 0h100v100H0z" transform="matrix(.35 0 0 .35 420 70)" style="fill:#fff"/><path d="M0 0h100v100H0z" transform="matrix(.35 0 0 .35 525 70)" style="fill:#fff"/><path d="M0 0h100v100H0z" transform="matrix(.35 0 0 .35 595 70)" style="fill:#fff"/><path d="M0 0h100v100H0z" transform="matrix(.35 0 0 .35 630 70)" style="fill:#fff"/><path d="M0 0h100v100H0z" transform="matrix(.35 0 0 .35 700 70)" style="fill:#fff"/><path d="M0 0h100v100H0z" transform="matrix(.35 0 0 .35 280 105)" style="fill:#fff"/><path d="M0 0h100v100H0z" transform="matrix(.35 0 0 .35 385 105)" style="fill:#fff"/><path d="M0 0h100v100H0z" transform="matrix(.35 0 0 .35 455 105)" style="fill:#fff"/><path d="M0 0h100v100H0z" transform="matrix(.35 0 0 .35 490 105)" style="fill:#fff"/><path d="M0 0h100v100H0z" transform="matrix(.35 0 0 .35 525 105)" style="fill:#fff"/><path d="M0 0h100v100H0z" transform="matrix(.35 0 0 .35 630 105)" style="fill:#fff"/><path d="M0 0h100v100H0z" transform="matrix(.35 0 0 .35 280 140)" style="fill:#fff"/><path d="M0 0h100v100H0z" transform="matrix(.35 0 0 .35 315 140)" style="fill:#fff"/><path d="M0 0h100v100H0z" transform="matrix(.35 0 0 .35 350 140)" style="fill:#fff"/><path d="M0 0h100v100H0z" transform="matrix(.35 0 0 .35 420 140)" style="fill:#fff"/><path d="M0 0h100v100H0z" transform="matrix(.35 0 0 .35 455 140)" style="fill:#fff"/><path d="M0 0h100v100H0z" transform="matrix(.35 0 0 .35 525 140)" style="fill:#fff"/><path d="M0 0h100v100H0z" transform="matrix(.35 0 0 .35 560 140)" style="fill:#fff"/><path d="M0 0h100v100H0z" transform="matrix(.35 0 0 .35 630 140)" style="fill:#fff"/><path d="M0 0h100v100H0z" transform="matrix(.35 0 0 .35 280 175)" style="fill:#fff"/><path d="M0 0h100v100H0z" transform="matrix(.35 0 0 .35 315 175)" style="fill:#fff"/><path d="M0 0h100v100H0z" transform="matrix(.35 0 0 .35 350 175)" style="fill:#fff"/><path d="M0 0h100v100H0z" transform="matrix(.35 0 0 .35 385 175)" style="fill:#fff"/><path d="M0 0h100v100H0z" transform="matrix(.35 0 0 .35 420 175)" style="fill:#fff"/><path d="M0 0h100v100H0z" transform="matrix(.35 0 0 .35 455 175)" style="fill:#fff"/><path d="M0 0h100v100H0z" transform="matrix(.35 0 0 .35 630 175)" style="fill:#fff"/><path d="M0 0h100v100H0z" transform="matrix(.35 0 0 .35 665 175)" style="fill:#fff"/><path d="M0 0h100v100H0z" transform="matrix(.35 0 0 .35 700 175)" style="fill:#fff"/><path d="M0 0h100v100H0z" transform="matrix(.35 0 0 .35 280 210)" style="fill:#fff"/><path d="M0 0h100v100H0z" transform="matrix(.35 0 0 .35 350 210)" style="fill:#fff"/><path d="M0 0h100v100H0z" transform="matrix(.35 0 0 .35 420 210)" style="fill:#fff"/><path d="M0 0h100v100H0z" transform="matrix(.35 0 0 .35 490 210)" style="fill:#fff"/><path d="M0 0h100v100H0z" transform="matrix(.35 0 0 .35 560 210)" style="fill:#fff"/><path d="M0 0h100v100H0z" transform="matrix(.35 0 0 .35 630 210)" style="fill:#fff"/><path d="M0 0h100v100H0z" transform="matrix(.35 0 0 .35 700 210)" style="fill:#fff"/><path d="M0 0h100v100H0z" transform="matrix(.35 0 0 .35 280 245)" style="fill:#fff"/><path d="M0 0h100v100H0z" transform="matrix(.35 0 0 .35 385 245)" style="fill:#fff"/><path d="M0 0h100v100H0z" transform="matrix(.35 0 0 .35 490 245)" style="fill:#fff"/><path d="M0 0h100v100H0z" transform="matrix(.35 0 0 .35 525 245)" style="fill:#fff"/><path d="M0 0h100v100H0z" transform="matrix(.35 0 0 .35 560 245)" style="fill:#fff"/><path d="M0 0h100v100H0z" transform="matrix(.35 0 0 .35 595 245)" style="fill:#fff"/><path d="M0 0h100v100H0z" transform="matrix(.35 0 0 .35 630 245)" style="fill:#fff"/><path d="M0 0h100v100H0z" transform="matrix(.35 0 0 .35 665 245)" style="fill:#fff"/><path d="M0 0h100v100H0z" transform="matrix(.35 0 0 .35 0 280)" style="fill:#fff"/><path d="M0 0h100v100H0z" transform="matrix(.35 0 0 .35 140 280)" style="fill:#fff"/><path d="M0 0h100v100H0z" transform="matrix(.35 0 0 .35 210 280)" style="fill:#fff"/><path d="M0 0h100v100H0z" transform="matrix(.35 0 0 .35 245 280)" style="fill:#fff"/><path d="M0 0h100v100H0z" transform="matrix(.35 0 0 .35 280 280)" style="fill:#fff"/><path d="M0 0h100v100H0z" transform="matrix(.35 0 0 .35 385 280)" style="fill:#fff"/><path d="M0 0h100v100H0z" transform="matrix(.35 0 0 .35 595 280)" style="fill:#fff"/><path d="M0 0h100v100H0z" transform="matrix(.35 0 0 .35 665 280)" style="fill:#fff"/><path d="M0 0h100v100H0z" transform="matrix(.35 0 0 .35 700 280)" style="fill:#fff"/><path d="M0 0h100v100H0z" transform="matrix(.35 0 0 .35 735 280)" style="fill:#fff"/><path d="M0 0h100v100H0z" transform="matrix(.35 0 0 .35 770 280)" style="fill:#fff"/><path d="M0 0h100v100H0z" transform="matrix(.35 0 0 .35 805 280)" style="fill:#fff"/><path d="M0 0h100v100H0z" transform="matrix(.35 0 0 .35 840 280)" style="fill:#fff"/><path d="M0 0h100v100H0z" transform="matrix(.35 0 0 .35 875 280)" style="fill:#fff"/><path d="M0 0h100v100H0z" transform="matrix(.35 0 0 .35 980 280)" style="fill:#fff"/><path d="M0 0h100v100H0z" transform="matrix(.35 0 0 .35 70 315)" style="fill:#fff"/><path d="M0 0h100v100H0z" transform="matrix(.35 0 0 .35 140 315)" style="fill:#fff"/><path d="M0 0h100v100H0z" transform="matrix(.35 0 0 .35 245 315)" style="fill:#fff"/><path d="M0 0h100v100H0z" transform="matrix(.35 0 0 .35 315 315)" style="fill:#fff"/><path d="M0 0h100v100H0z" transform="matrix(.35 0 0 .35 350 315)" style="fill:#fff"/><path d="M0 0h100v100H0z" transform="matrix(.35 0 0 .35 420 315)" style="fill:#fff"/><path d="M0 0h100v100H0z" transform="matrix(.35 0 0 .35 455 315)" style="fill:#fff"/><path d="M0 0h100v100H0z" transform="matrix(.35 0 0 .35 490 315)" style="fill:#fff"/><path d="M0 0h100v100H0z" transform="matrix(.35 0 0 .35 525 315)" style="fill:#fff"/><path d="M0 0h100v100H0z" transform="matrix(.35 0 0 .35 735 315)" style="fill:#fff"/><path d="M0 0h100v100H0z" transform="matrix(.35 0 0 .35 770 315)" style="fill:#fff"/><path d="M0 0h100v100H0z" transform="matrix(.35 0 0 .35 805 315)" style="fill:#fff"/><path d="M0 0h100v100H0z" transform="matrix(.35 0 0 .35 840 315)" style="fill:#fff"/><path d="M0 0h100v100H0z" transform="matrix(.35 0 0 .35 35 350)" style="fill:#fff"/><path d="M0 0h100v100H0z" transform="matrix(.35 0 0 .35 70 350)" style="fill:#fff"/><path d="M0 0h100v100H0z" transform="matrix(.35 0 0 .35 105 350)" style="fill:#fff"/><path d="M0 0h100v100H0z" transform="matrix(.35 0 0 .35 140 350)" style="fill:#fff"/><path d="M0 0h100v100H0z" transform="matrix(.35 0 0 .35 175 350)" style="fill:#fff"/><path d="M0 0h100v100H0z" transform="matrix(.35 0 0 .35 210 350)" style="fill:#fff"/><path d="M0 0h100v100H0z" transform="matrix(.35 0 0 .35 385 350)" style="fill:#fff"/><path d="M0 0h100v100H0z" transform="matrix(.35 0 0 .35 490 350)" style="fill:#fff"/><path d="M0 0h100v100H0z" transform="matrix(.35 0 0 .35 525 350)" style="fill:#fff"/><path d="M0 0h100v100H0z" transform="matrix(.35 0 0 .35 595 350)" style="fill:#fff"/><path d="M0 0h100v100H0z" transform="matrix(.35 0 0 .35 630 350)" style="fill:#fff"/><path d="M0 0h100v100H0z" transform="matrix(.35 0 0 .35 735 350)" style="fill:#fff"/><path d="M0 0h100v100H0z" transform="matrix(.35 0 0 .35 770 350)" style="fill:#fff"/><path d="M0 0h100v100H0z" transform="matrix(.35 0 0 .35 980 350)" style="fill:#fff"/><path d="M0 0h100v100H0z" transform="matrix(.35 0 0 .35 0 385)" style="fill:#fff"/><path d="M0 0h100v100H0z" transform="matrix(.35 0 0 .35 140 385)" style="fill:#fff"/><path d="M0 0h100v100H0z" transform="matrix(.35 0 0 .35 175 385)" style="fill:#fff"/><path d="M0 0h100v100H0z" transform="matrix(.35 0 0 .35 245 385)" style="fill:#fff"/><path d="M0 0h100v100H0z" transform="matrix(.35 0 0 .35 280 385)" style="fill:#fff"/><path d="M0 0h100v100H0z" transform="matrix(.35 0 0 .35 315 385)" style="fill:#fff"/><path d="M0 0h100v100H0z" transform="matrix(.35 0 0 .35 385 385)" style="fill:#fff"/><path d="M0 0h100v100H0z" transform="matrix(.35 0 0 .35 420 385)" style="fill:#fff"/><path d="M0 0h100v100H0z" transform="matrix(.35 0 0 .35 490 385)" style="fill:#fff"/><path d="M0 0h100v100H0z" transform="matrix(.35 0 0 .35 560 385)" style="fill:#fff"/><path d="M0 0h100v100H0z" transform="matrix(.35 0 0 .35 595 385)" style="fill:#fff"/><path d="M0 0h100v100H0z" transform="matrix(.35 0 0 .35 630 385)" style="fill:#fff"/><path d="M0 0h100v100H0z" transform="matrix(.35 0 0 .35 805 385)" style="fill:#fff"/><path d="M0 0h100v100H0z" transform="matrix(.35 0 0 .35 840 385)" style="fill:#fff"/><path d="M0 0h100v100H0z" transform="matrix(.35 0 0 .35 875 385)" style="fill:#fff"/><path d="M0 0h100v100H0z" transform="matrix(.35 0 0 .35 980 385)" style="fill:#fff"/><path d="M0 0h100v100H0z" transform="matrix(.35 0 0 .35 0 420)" style="fill:#fff"/><path d="M0 0h100v100H0z" transform="matrix(.35 0 0 .35 105 420)" style="fill:#fff"/><path d="M0 0h100v100H0z" transform="matrix(.35 0 0 .35 175 420)" style="fill:#fff"/><path d="M0 0h100v100H0z" transform="matrix(.35 0 0 .35 210 420)" style="fill:#fff"/><path d="M0 0h100v100H0z" transform="matrix(.35 0 0 .35 280 420)" style="fill:#fff"/><path d="M0 0h100v100H0z" transform="matrix(.35 0 0 .35 315 420)" style="fill:#fff"/><path d="M0 0h100v100H0z" transform="matrix(.35 0 0 .35 350 420)" style="fill:#fff"/><path d="M0 0h100v100H0z" transform="matrix(.35 0 0 .35 490 420)" style="fill:#fff"/><path d="M0 0h100v100H0z" transform="matrix(.35 0 0 .35 560 420)" style="fill:#fff"/><path d="M0 0h100v100H0z" transform="matrix(.35 0 0 .35 595 420)" style="fill:#fff"/><path d="M0 0h100v100H0z" transform="matrix(.35 0 0 .35 665 420)" style="fill:#fff"/><path d="M0 0h100v100H0z" transform="matrix(.35 0 0 .35 700 420)" style="fill:#fff"/><path d="M0 0h100v100H0z" transform="matrix(.35 0 0 .35 805 420)" style="fill:#fff"/><path d="M0 0h100v100H0z" transform="matrix(.35 0 0 .35 840 420)" style="fill:#fff"/><path d="M0 0h100v100H0z" transform="matrix(.35 0 0 .35 910 420)" style="fill:#fff"/><path d="M0 0h100v100H0z" transform="matrix(.35 0 0 .35 35 455)" style="fill:#fff"/><path d="M0 0h100v100H0z" transform="matrix(.35 0 0 .35 140 455)" style="fill:#fff"/><path d="M0 0h100v100H0z" transform="matrix(.35 0 0 .35 315 455)" style="fill:#fff"/><path d="M0 0h100v100H0z" transform="matrix(.35 0 0 .35 385 455)" style="fill:#fff"/><path d="M0 0h100v100H0z" transform="matrix(.35 0 0 .35 420 455)" style="fill:#fff"/><path d="M0 0h100v100H0z" transform="matrix(.35 0 0 .35 490 455)" style="fill:#fff"/><path d="M0 0h100v100H0z" transform="matrix(.35 0 0 .35 525 455)" style="fill:#fff"/><path d="M0 0h100v100H0z" transform="matrix(.35 0 0 .35 560 455)" style="fill:#fff"/><path d="M0 0h100v100H0z" transform="matrix(.35 0 0 .35 700 455)" style="fill:#fff"/><path d="M0 0h100v100H0z" transform="matrix(.35 0 0 .35 770 455)" style="fill:#fff"/><path d="M0 0h100v100H0z" transform="matrix(.35 0 0 .35 875 455)" style="fill:#fff"/><path d="M0 0h100v100H0z" transform="matrix(.35 0 0 .35 910 455)" style="fill:#fff"/><path d="M0 0h100v100H0z" transform="matrix(.35 0 0 .35 0 490)" style="fill:#fff"/><path d="M0 0h100v100H0z" transform="matrix(.35 0 0 .35 70 490)" style="fill:#fff"/><path d="M0 0h100v100H0z" transform="matrix(.35 0 0 .35 105 490)" style="fill:#fff"/><path d="M0 0h100v100H0z" transform="matrix(.35 0 0 .35 175 490)" style="fill:#fff"/><path d="M0 0h100v100H0z" transform="matrix(.35 0 0 .35 210 490)" style="fill:#fff"/><path d="M0 0h100v100H0z" transform="matrix(.35 0 0 .35 315 490)" style="fill:#fff"/><path d="M0 0h100v100H0z" transform="matrix(.35 0 0 .35 455 490)" style="fill:#fff"/><path d="M0 0h100v100H0z" transform="matrix(.35 0 0 .35 490 490)" style="fill:#fff"/><path d="M0 0h100v100H0z" transform="matrix(.35 0 0 .35 525 490)" style="fill:#fff"/><path d="M0 0h100v100H0z" transform="matrix(.35 0 0 .35 700 490)" style="fill:#fff"/><path d="M0 0h100v100H0z" transform="matrix(.35 0 0 .35 735 490)" style="fill:#fff"/><path d="M0 0h100v100H0z" transform="matrix(.35 0 0 .35 770 490)" style="fill:#fff"/><path d="M0 0h100v100H0z" transform="matrix(.35 0 0 .35 805 490)" style="fill:#fff"/><path d="M0 0h100v100H0z" transform="matrix(.35 0 0 .35 875 490)" style="fill:#fff"/><path d="M0 0h100v100H0z" transform="matrix(.35 0 0 .35 910 490)" style="fill:#fff"/><path d="M0 0h100v100H0z" transform="matrix(.35 0 0 .35 980 490)" style="fill:#fff"/><path d="M0 0h100v100H0z" transform="matrix(.35 0 0 .35 0 525)" style="fill:#fff"/><path d="M0 0h100v100H0z" transform="matrix(.35 0 0 .35 35 525)" style="fill:#fff"/><path d="M0 0h100v100H0z" transform="matrix(.35 0 0 .35 70 525)" style="fill:#fff"/><path d="M0 0h100v100H0z" transform="matrix(.35 0 0 .35 105 525)" style="fill:#fff"/><path d="M0 0h100v100H0z" transform="matrix(.35 0 0 .35 140 525)" style="fill:#fff"/><path d="M0 0h100v100H0z" transform="matrix(.35 0 0 .35 245 525)" style="fill:#fff"/><path d="M0 0h100v100H0z" transform="matrix(.35 0 0 .35 280 525)" style="fill:#fff"/><path d="M0 0h100v100H0z" transform="matrix(.35 0 0 .35 350 525)" style="fill:#fff"/><path d="M0 0h100v100H0z" transform="matrix(.35 0 0 .35 385 525)" style="fill:#fff"/><path d="M0 0h100v100H0z" transform="matrix(.35 0 0 .35 525 525)" style="fill:#fff"/><path d="M0 0h100v100H0z" transform="matrix(.35 0 0 .35 560 525)" style="fill:#fff"/><path d="M0 0h100v100H0z" transform="matrix(.35 0 0 .35 595 525)" style="fill:#fff"/><path d="M0 0h100v100H0z" transform="matrix(.35 0 0 .35 630 525)" style="fill:#fff"/><path d="M0 0h100v100H0z" transform="matrix(.35 0 0 .35 735 525)" style="fill:#fff"/><path d="M0 0h100v100H0z" transform="matrix(.35 0 0 .35 770 525)" style="fill:#fff"/><path d="M0 0h100v100H0z" transform="matrix(.35 0 0 .35 805 525)" style="fill:#fff"/><path d="M0 0h100v100H0z" transform="matrix(.35 0 0 .35 875 525)" style="fill:#fff"/><path d="M0 0h100v100H0z" transform="matrix(.35 0 0 .35 945 525)" style="fill:#fff"/><path d="M0 0h100v100H0z" transform="matrix(.35 0 0 .35 0 560)" style="fill:#fff"/><path d="M0 0h100v100H0z" transform="matrix(.35 0 0 .35 70 560)" style="fill:#fff"/><path d="M0 0h100v100H0z" transform="matrix(.35 0 0 .35 140 560)" style="fill:#fff"/><path d="M0 0h100v100H0z" transform="matrix(.35 0 0 .35 210 560)" style="fill:#fff"/><path d="M0 0h100v100H0z" transform="matrix(.35 0 0 .35 280 560)" style="fill:#fff"/><path d="M0 0h100v100H0z" transform="matrix(.35 0 0 .35 350 560)" style="fill:#fff"/><path d="M0 0h100v100H0z" transform="matrix(.35 0 0 .35 385 560)" style="fill:#fff"/><path d="M0 0h100v100H0z" transform="matrix(.35 0 0 .35 420 560)" style="fill:#fff"/><path d="M0 0h100v100H0z" transform="matrix(.35 0 0 .35 455 560)" style="fill:#fff"/><path d="M0 0h100v100H0z" transform="matrix(.35 0 0 .35 490 560)" style="fill:#fff"/><path d="M0 0h100v100H0z" transform="matrix(.35 0 0 .35 525 560)" style="fill:#fff"/><path d="M0 0h100v100H0z" transform="matrix(.35 0 0 .35 560 560)" style="fill:#fff"/><path d="M0 0h100v100H0z" transform="matrix(.35 0 0 .35 595 560)" style="fill:#fff"/><path d="M0 0h100v100H0z" transform="matrix(.35 0 0 .35 735 560)" style="fill:#fff"/><path d="M0 0h100v100H0z" transform="matrix(.35 0 0 .35 840 560)" style="fill:#fff"/><path d="M0 0h100v100H0z" transform="matrix(.35 0 0 .35 875 560)" style="fill:#fff"/><path d="M0 0h100v100H0z" transform="matrix(.35 0 0 .35 910 560)" style="fill:#fff"/><path d="M0 0h100v100H0z" transform="matrix(.35 0 0 .35 945 560)" style="fill:#fff"/><path d="M0 0h100v100H0z" transform="matrix(.35 0 0 .35 0 595)" style="fill:#fff"/><path d="M0 0h100v100H0z" transform="matrix(.35 0 0 .35 35 595)" style="fill:#fff"/><path d="M0 0h100v100H0z" transform="matrix(.35 0 0 .35 315 595)" style="fill:#fff"/><path d="M0 0h100v100H0z" transform="matrix(.35 0 0 .35 350 595)" style="fill:#fff"/><path d="M0 0h100v100H0z" transform="matrix(.35 0 0 .35 490 595)" style="fill:#fff"/><path d="M0 0h100v100H0z" transform="matrix(.35 0 0 .35 630 595)" style="fill:#fff"/><path d="M0 0h100v100H0z" transform="matrix(.35 0 0 .35 770 595)" style="fill:#fff"/><path d="M0 0h100v100H0z" transform="matrix(.35 0 0 .35 910 595)" style="fill:#fff"/><path d="M0 0h100v100H0z" transform="matrix(.35 0 0 .35 70 630)" style="fill:#fff"/><path d="M0 0h100v100H0z" transform="matrix(.35 0 0 .35 175 630)" style="fill:#fff"/><path d="M0 0h100v100H0z" transform="matrix(.35 0 0 .35 210 630)" style="fill:#fff"/><path d="M0 0h100v100H0z" transform="matrix(.35 0 0 .35 245 630)" style="fill:#fff"/><path d="M0 0h100v100H0z" transform="matrix(.35 0 0 .35 315 630)" style="fill:#fff"/><path d="M0 0h100v100H0z" transform="matrix(.35 0 0 .35 350 630)" style="fill:#fff"/><path d="M0 0h100v100H0z" transform="matrix(.35 0 0 .35 385 630)" style="fill:#fff"/><path d="M0 0h100v100H0z" transform="matrix(.35 0 0 .35 455 630)" style="fill:#fff"/><path d="M0 0h100v100H0z" transform="matrix(.35 0 0 .35 490 630)" style="fill:#fff"/><path d="M0 0h100v100H0z" transform="matrix(.35 0 0 .35 560 630)" style="fill:#fff"/><path d="M0 0h100v100H0z" transform="matrix(.35 0 0 .35 595 630)" style="fill:#fff"/><path d="M0 0h100v100H0z" transform="matrix(.35 0 0 .35 630 630)" style="fill:#fff"/><path d="M0 0h100v100H0z" transform="matrix(.35 0 0 .35 770 630)" style="fill:#fff"/><path d="M0 0h100v100H0z" transform="matrix(.35 0 0 .35 805 630)" style="fill:#fff"/><path d="M0 0h100v100H0z" transform="matrix(.35 0 0 .35 840 630)" style="fill:#fff"/><path d="M0 0h100v100H0z" transform="matrix(.35 0 0 .35 875 630)" style="fill:#fff"/><path d="M0 0h100v100H0z" transform="matrix(.35 0 0 .35 980 630)" style="fill:#fff"/><path d="M0 0h100v100H0z" transform="matrix(.35 0 0 .35 105 665)" style="fill:#fff"/><path d="M0 0h100v100H0z" transform="matrix(.35 0 0 .35 140 665)" style="fill:#fff"/><path d="M0 0h100v100H0z" transform="matrix(.35 0 0 .35 245 665)" style="fill:#fff"/><path d="M0 0h100v100H0z" transform="matrix(.35 0 0 .35 455 665)" style="fill:#fff"/><path d="M0 0h100v100H0z" transform="matrix(.35 0 0 .35 525 665)" style="fill:#fff"/><path d="M0 0h100v100H0z" transform="matrix(.35 0 0 .35 560 665)" style="fill:#fff"/><path d="M0 0h100v100H0z" transform="matrix(.35 0 0 .35 595 665)" style="fill:#fff"/><path d="M0 0h100v100H0z" transform="matrix(.35 0 0 .35 630 665)" style="fill:#fff"/><path d="M0 0h100v100H0z" transform="matrix(.35 0 0 .35 665 665)" style="fill:#fff"/><path d="M0 0h100v100H0z" transform="matrix(.35 0 0 .35 700 665)" style="fill:#fff"/><path d="M0 0h100v100H0z" transform="matrix(.35 0 0 .35 735 665)" style="fill:#fff"/><path d="M0 0h100v100H0z" transform="matrix(.35 0 0 .35 805 665)" style="fill:#fff"/><path d="M0 0h100v100H0z" transform="matrix(.35 0 0 .35 980 665)" style="fill:#fff"/><path d="M0 0h100v100H0z" transform="matrix(.35 0 0 .35 0 700)" style="fill:#fff"/><path d="M0 0h100v100H0z" transform="matrix(.35 0 0 .35 35 700)" style="fill:#fff"/><path d="M0 0h100v100H0z" transform="matrix(.35 0 0 .35 175 700)" style="fill:#fff"/><path d="M0 0h100v100H0z" transform="matrix(.35 0 0 .35 210 700)" style="fill:#fff"/><path d="M0 0h100v100H0z" transform="matrix(.35 0 0 .35 245 700)" style="fill:#fff"/><path d="M0 0h100v100H0z" transform="matrix(.35 0 0 .35 280 700)" style="fill:#fff"/><path d="M0 0h100v100H0z" transform="matrix(.35 0 0 .35 315 700)" style="fill:#fff"/><path d="M0 0h100v100H0z" transform="matrix(.35 0 0 .35 350 700)" style="fill:#fff"/><path d="M0 0h100v100H0z" transform="matrix(.35 0 0 .35 385 700)" style="fill:#fff"/><path d="M0 0h100v100H0z" transform="matrix(.35 0 0 .35 455 700)" style="fill:#fff"/><path d="M0 0h100v100H0z" transform="matrix(.35 0 0 .35 630 700)" style="fill:#fff"/><path d="M0 0h100v100H0z" transform="matrix(.35 0 0 .35 700 700)" style="fill:#fff"/><path d="M0 0h100v100H0z" transform="matrix(.35 0 0 .35 735 700)" style="fill:#fff"/><path d="M0 0h100v100H0z" transform="matrix(.35 0 0 .35 770 700)" style="fill:#fff"/><path d="M0 0h100v100H0z" transform="matrix(.35 0 0 .35 805 700)" style="fill:#fff"/><path d="M0 0h100v100H0z" transform="matrix(.35 0 0 .35 840 700)" style="fill:#fff"/><path d="M0 0h100v100H0z" transform="matrix(.35 0 0 .35 875 700)" style="fill:#fff"/><path d="M0 0h100v100H0z" transform="matrix(.35 0 0 .35 910 700)" style="fill:#fff"/><path d="M0 0h100v100H0z" transform="matrix(.35 0 0 .35 280 735)" style="fill:#fff"/><path d="M0 0h100v100H0z" transform="matrix(.35 0 0 .35 315 735)" style="fill:#fff"/><path d="M0 0h100v100H0z" transform="matrix(.35 0 0 .35 385 735)" style="fill:#fff"/><path d="M0 0h100v100H0z" transform="matrix(.35 0 0 .35 455 735)" style="fill:#fff"/><path d="M0 0h100v100H0z" transform="matrix(.35 0 0 .35 490 735)" style="fill:#fff"/><path d="M0 0h100v100H0z" transform="matrix(.35 0 0 .35 595 735)" style="fill:#fff"/><path d="M0 0h100v100H0z" transform="matrix(.35 0 0 .35 630 735)" style="fill:#fff"/><path d="M0 0h100v100H0z" transform="matrix(.35 0 0 .35 665 735)" style="fill:#fff"/><path d="M0 0h100v100H0z" transform="matrix(.35 0 0 .35 700 735)" style="fill:#fff"/><path d="M0 0h100v100H0z" transform="matrix(.35 0 0 .35 840 735)" style="fill:#fff"/><path d="M0 0h100v100H0z" transform="matrix(.35 0 0 .35 875 735)" style="fill:#fff"/><path d="M0 0h100v100H0z" transform="matrix(.35 0 0 .35 980 735)" style="fill:#fff"/><path d="M0 0h100v100H0z" transform="matrix(.35 0 0 .35 280 770)" style="fill:#fff"/><path d="M0 0h100v100H0z" transform="matrix(.35 0 0 .35 385 770)" style="fill:#fff"/><path d="M0 0h100v100H0z" transform="matrix(.35 0 0 .35 560 770)" style="fill:#fff"/><path d="M0 0h100v100H0z" transform="matrix(.35 0 0 .35 665 770)" style="fill:#fff"/><path d="M0 0h100v100H0z" transform="matrix(.35 0 0 .35 700 770)" style="fill:#fff"/><path d="M0 0h100v100H0z" transform="matrix(.35 0 0 .35 770 770)" style="fill:#fff"/><path d="M0 0h100v100H0z" transform="matrix(.35 0 0 .35 840 770)" style="fill:#fff"/><path d="M0 0h100v100H0z" transform="matrix(.35 0 0 .35 910 770)" style="fill:#fff"/><path d="M0 0h100v100H0z" transform="matrix(.35 0 0 .35 945 770)" style="fill:#fff"/><path d="M0 0h100v100H0z" transform="matrix(.35 0 0 .35 980 770)" style="fill:#fff"/><path d="M0 0h100v100H0z" transform="matrix(.35 0 0 .35 315 805)" style="fill:#fff"/><path d="M0 0h100v100H0z" transform="matrix(.35 0 0 .35 350 805)" style="fill:#fff"/><path d="M0 0h100v100H0z" transform="matrix(.35 0 0 .35 385 805)" style="fill:#fff"/><path d="M0 0h100v100H0z" transform="matrix(.35 0 0 .35 490 805)" style="fill:#fff"/><path d="M0 0h100v100H0z" transform="matrix(.35 0 0 .35 560 805)" style="fill:#fff"/><path d="M0 0h100v100H0z" transform="matrix(.35 0 0 .35 595 805)" style="fill:#fff"/><path d="M0 0h100v100H0z" transform="matrix(.35 0 0 .35 665 805)" style="fill:#fff"/><path d="M0 0h100v100H0z" transform="matrix(.35 0 0 .35 700 805)" style="fill:#fff"/><path d="M0 0h100v100H0z" transform="matrix(.35 0 0 .35 840 805)" style="fill:#fff"/><path d="M0 0h100v100H0z" transform="matrix(.35 0 0 .35 875 805)" style="fill:#fff"/><path d="M0 0h100v100H0z" transform="matrix(.35 0 0 .35 945 805)" style="fill:#fff"/><path d="M0 0h100v100H0z" transform="matrix(.35 0 0 .35 980 805)" style="fill:#fff"/><path d="M0 0h100v100H0z" transform="matrix(.35 0 0 .35 280 840)" style="fill:#fff"/><path d="M0 0h100v100H0z" transform="matrix(.35 0 0 .35 350 840)" style="fill:#fff"/><path d="M0 0h100v100H0z" transform="matrix(.35 0 0 .35 385 840)" style="fill:#fff"/><path d="M0 0h100v100H0z" transform="matrix(.35 0 0 .35 455 840)" style="fill:#fff"/><path d="M0 0h100v100H0z" transform="matrix(.35 0 0 .35 490 840)" style="fill:#fff"/><path d="M0 0h100v100H0z" transform="matrix(.35 0 0 .35 665 840)" style="fill:#fff"/><path d="M0 0h100v100H0z" transform="matrix(.35 0 0 .35 700 840)" style="fill:#fff"/><path d="M0 0h100v100H0z" transform="matrix(.35 0 0 .35 735 840)" style="fill:#fff"/><path d="M0 0h100v100H0z" transform="matrix(.35 0 0 .35 770 840)" style="fill:#fff"/><path d="M0 0h100v100H0z" transform="matrix(.35 0 0 .35 805 840)" style="fill:#fff"/><path d="M0 0h100v100H0z" transform="matrix(.35 0 0 .35 840 840)" style="fill:#fff"/><path d="M0 0h100v100H0z" transform="matrix(.35 0 0 .35 875 840)" style="fill:#fff"/><path d="M0 0h100v100H0z" transform="matrix(.35 0 0 .35 910 840)" style="fill:#fff"/><path d="M0 0h100v100H0z" transform="matrix(.35 0 0 .35 980 840)" style="fill:#fff"/><path d="M0 0h100v100H0z" transform="matrix(.35 0 0 .35 385 875)" style="fill:#fff"/><path d="M0 0h100v100H0z" transform="matrix(.35 0 0 .35 525 875)" style="fill:#fff"/><path d="M0 0h100v100H0z" transform="matrix(.35 0 0 .35 560 875)" style="fill:#fff"/><path d="M0 0h100v100H0z" transform="matrix(.35 0 0 .35 595 875)" style="fill:#fff"/><path d="M0 0h100v100H0z" transform="matrix(.35 0 0 .35 630 875)" style="fill:#fff"/><path d="M0 0h100v100H0z" transform="matrix(.35 0 0 .35 665 875)" style="fill:#fff"/><path d="M0 0h100v100H0z" transform="matrix(.35 0 0 .35 735 875)" style="fill:#fff"/><path d="M0 0h100v100H0z" transform="matrix(.35 0 0 .35 875 875)" style="fill:#fff"/><path d="M0 0h100v100H0z" transform="matrix(.35 0 0 .35 980 875)" style="fill:#fff"/><path d="M0 0h100v100H0z" transform="matrix(.35 0 0 .35 315 910)" style="fill:#fff"/><path d="M0 0h100v100H0z" transform="matrix(.35 0 0 .35 420 910)" style="fill:#fff"/><path d="M0 0h100v100H0z" transform="matrix(.35 0 0 .35 490 910)" style="fill:#fff"/><path d="M0 0h100v100H0z" transform="matrix(.35 0 0 .35 560 910)" style="fill:#fff"/><path d="M0 0h100v100H0z" transform="matrix(.35 0 0 .35 595 910)" style="fill:#fff"/><path d="M0 0h100v100H0z" transform="matrix(.35 0 0 .35 665 910)" style="fill:#fff"/><path d="M0 0h100v100H0z" transform="matrix(.35 0 0 .35 700 910)" style="fill:#fff"/><path d="M0 0h100v100H0z" transform="matrix(.35 0 0 .35 840 910)" style="fill:#fff"/><path d="M0 0h100v100H0z" transform="matrix(.35 0 0 .35 875 910)" style="fill:#fff"/><path d="M0 0h100v100H0z" transform="matrix(.35 0 0 .35 945 910)" style="fill:#fff"/><path d="M0 0h100v100H0z" transform="matrix(.35 0 0 .35 980 910)" style="fill:#fff"/><path d="M0 0h100v100H0z" transform="matrix(.35 0 0 .35 350 945)" style="fill:#fff"/><path d="M0 0h100v100H0z" transform="matrix(.35 0 0 .35 385 945)" style="fill:#fff"/><path d="M0 0h100v100H0z" transform="matrix(.35 0 0 .35 420 945)" style="fill:#fff"/><path d="M0 0h100v100H0z" transform="matrix(.35 0 0 .35 525 945)" style="fill:#fff"/><path d="M0 0h100v100H0z" transform="matrix(.35 0 0 .35 595 945)" style="fill:#fff"/><path d="M0 0h100v100H0z" transform="matrix(.35 0 0 .35 630 945)" style="fill:#fff"/><path d="M0 0h100v100H0z" transform="matrix(.35 0 0 .35 700 945)" style="fill:#fff"/><path d="M0 0h100v100H0z" transform="matrix(.35 0 0 .35 770 945)" style="fill:#fff"/><path d="M0 0h100v100H0z" transform="matrix(.35 0 0 .35 805 945)" style="fill:#fff"/><path d="M0 0h100v100H0z" transform="matrix(.35 0 0 .35 875 945)" style="fill:#fff"/><path d="M0 0h100v100H0z" transform="matrix(.35 0 0 .35 945 945)" style="fill:#fff"/><path d="M0 0h100v100H0z" transform="matrix(.35 0 0 .35 980 945)" style="fill:#fff"/><path d="M0 0h100v100H0z" transform="matrix(.35 0 0 .35 280 980)" style="fill:#fff"/><path d="M0 0h100v100H0z" transform="matrix(.35 0 0 .35 315 980)" style="fill:#fff"/><path d="M0 0h100v100H0z" transform="matrix(.35 0 0 .35 350 980)" style="fill:#fff"/><path d="M0 0h100v100H0z" transform="matrix(.35 0 0 .35 385 980)" style="fill:#fff"/><path d="M0 0h100v100H0z" transform="matrix(.35 0 0 .35 455 980)" style="fill:#fff"/><path d="M0 0h100v100H0z" transform="matrix(.35 0 0 .35 560 980)" style="fill:#fff"/><path d="M0 0h100v100H0z" transform="matrix(.35 0 0 .35 595 980)" style="fill:#fff"/><path d="M0 0h100v100H0z" transform="matrix(.35 0 0 .35 700 980)" style="fill:#fff"/><path d="M0 0h100v100H0z" transform="matrix(.35 0 0 .35 735 980)" style="fill:#fff"/><path d="M0 0h100v100H0z" transform="matrix(.35 0 0 .35 805 980)" style="fill:#fff"/><path d="M0 0h100v100H0z" transform="matrix(.35 0 0 .35 840 980)" style="fill:#fff"/><path d="M0 0h100v100H0z" transform="matrix(.35 0 0 .35 945 980)" style="fill:#fff"/><path d="M38.806 99.939c-6.634.002-13.268-.006-19.901-.004-3.317.002-6.634.004-9.951.011l-4.776.013c-.932.002-2.048.158-2.964-.094-.627-.174-.814-.715-.806-1.316.02-1.441.518-2.924.759-4.342.543-3.193.89-6.416 1.183-9.643.593-6.527 1.136-13.072 1.347-19.627.209-6.504.003-13.029-.67-19.498-.331-3.189-.795-6.367-1.449-9.508C.975 33.038.263 30.212.089 27.249c-.328-5.582.97-11.088 3.898-15.863C6.72 6.928 10.834 3.84 15.721 2.064 21.696-.106 28.007.015 34.267.035 40.866.056 47.464.013 54.064.011c6.597-.003 13.192.034 19.791.215 4.941.137 9.908 1.019 14.252 3.496 4.613 2.629 8.197 6.862 9.906 11.899 1.957 5.777 1.827 12.262 1.836 18.291.017 13.041.428 26.125-.021 39.162-.176 5.041-1.145 10.145-3.738 14.533-2.748 4.651-7.089 8.107-12.105 10.035-5.844 2.246-12.051 2.421-18.23 2.314-6.49-.111-12.98.047-19.473.014-2.493-.011-4.985-.031-7.476-.031-11.941.002 6.556 0 0 0zm2.849-14.314c0-.07 17.863-.027 19.555-.045 3.149-.023 6.341.084 9.437-.604 2.674-.592 5.233-1.691 7.478-3.266 3.683-2.582 6.093-6.438 6.832-10.869.478-2.859.321-5.83.347-8.719.027-3.328.033-6.654.021-9.982-.014-3.328-.043-6.655-.088-9.982-.041-3.158.078-6.328-.053-9.481-.205-4.94-1.652-10.068-5.283-13.609a13.183 13.183 0 0 0-5.418-3.2c-2.674-.797-5.596-.707-8.356-.857-6.599-.365-13.205-.635-19.815-.623-3.303.006-6.607.084-9.906.254-2.948.152-6.037.182-8.932.799-4.294.918-8.128 3.613-10.397 7.381-2.956 4.909-2.423 10.362-1.473 15.77 1.124 6.402 1.383 12.863 1.374 19.349-.006 4.813-.133 9.591-.639 14.381a274.637 274.637 0 0 1-.845 6.938c-.152 1.156-.307 2.312-.458 3.466-.089.685-.248 1.505.087 2.151.657 1.267 3.101.783 4.188.771a871.05 871.05 0 0 1 7.582-.039c4.918-.007 9.84.016 14.762.016 0-.018-8.114 0 0 0z" transform="matrix(-2.45 0 0 2.45 245 0)" style="fill:#fff"/><path d="M38.806 99.939c-6.634.002-13.268-.006-19.901-.004-3.317.002-6.634.004-9.951.011l-4.776.013c-.932.002-2.048.158-2.964-.094-.627-.174-.814-.715-.806-1.316.02-1.441.518-2.924.759-4.342.543-3.193.89-6.416 1.183-9.643.593-6.527 1.136-13.072 1.347-19.627.209-6.504.003-13.029-.67-19.498-.331-3.189-.795-6.367-1.449-9.508C.975 33.038.263 30.212.089 27.249c-.328-5.582.97-11.088 3.898-15.863C6.72 6.928 10.834 3.84 15.721 2.064 21.696-.106 28.007.015 34.267.035 40.866.056 47.464.013 54.064.011c6.597-.003 13.192.034 19.791.215 4.941.137 9.908 1.019 14.252 3.496 4.613 2.629 8.197 6.862 9.906 11.899 1.957 5.777 1.827 12.262 1.836 18.291.017 13.041.428 26.125-.021 39.162-.176 5.041-1.145 10.145-3.738 14.533-2.748 4.651-7.089 8.107-12.105 10.035-5.844 2.246-12.051 2.421-18.23 2.314-6.49-.111-12.98.047-19.473.014-2.493-.011-4.985-.031-7.476-.031-11.941.002 6.556 0 0 0zm2.849-14.314c0-.07 17.863-.027 19.555-.045 3.149-.023 6.341.084 9.437-.604 2.674-.592 5.233-1.691 7.478-3.266 3.683-2.582 6.093-6.438 6.832-10.869.478-2.859.321-5.83.347-8.719.027-3.328.033-6.654.021-9.982-.014-3.328-.043-6.655-.088-9.982-.041-3.158.078-6.328-.053-9.481-.205-4.94-1.652-10.068-5.283-13.609a13.183 13.183 0 0 0-5.418-3.2c-2.674-.797-5.596-.707-8.356-.857-6.599-.365-13.205-.635-19.815-.623-3.303.006-6.607.084-9.906.254-2.948.152-6.037.182-8.932.799-4.294.918-8.128 3.613-10.397 7.381-2.956 4.909-2.423 10.362-1.473 15.77 1.124 6.402 1.383 12.863 1.374 19.349-.006 4.813-.133 9.591-.639 14.381a274.637 274.637 0 0 1-.845 6.938c-.152 1.156-.307 2.312-.458 3.466-.089.685-.248 1.505.087 2.151.657 1.267 3.101.783 4.188.771a871.05 871.05 0 0 1 7.582-.039c4.918-.007 9.84.016 14.762.016 0-.018-8.114 0 0 0z" transform="translate(770) scale(2.45)" style="fill:#fff"/><path d="M38.806 99.939c-6.634.002-13.268-.006-19.901-.004-3.317.002-6.634.004-9.951.011l-4.776.013c-.932.002-2.048.158-2.964-.094-.627-.174-.814-.715-.806-1.316.02-1.441.518-2.924.759-4.342.543-3.193.89-6.416 1.183-9.643.593-6.527 1.136-13.072 1.347-19.627.209-6.504.003-13.029-.67-19.498-.331-3.189-.795-6.367-1.449-9.508C.975 33.038.263 30.212.089 27.249c-.328-5.582.97-11.088 3.898-15.863C6.72 6.928 10.834 3.84 15.721 2.064 21.696-.106 28.007.015 34.267.035 40.866.056 47.464.013 54.064.011c6.597-.003 13.192.034 19.791.215 4.941.137 9.908 1.019 14.252 3.496 4.613 2.629 8.197 6.862 9.906 11.899 1.957 5.777 1.827 12.262 1.836 18.291.017 13.041.428 26.125-.021 39.162-.176 5.041-1.145 10.145-3.738 14.533-2.748 4.651-7.089 8.107-12.105 10.035-5.844 2.246-12.051 2.421-18.23 2.314-6.49-.111-12.98.047-19.473.014-2.493-.011-4.985-.031-7.476-.031-11.941.002 6.556 0 0 0zm2.849-14.314c0-.07 17.863-.027 19.555-.045 3.149-.023 6.341.084 9.437-.604 2.674-.592 5.233-1.691 7.478-3.266 3.683-2.582 6.093-6.438 6.832-10.869.478-2.859.321-5.83.347-8.719.027-3.328.033-6.654.021-9.982-.014-3.328-.043-6.655-.088-9.982-.041-3.158.078-6.328-.053-9.481-.205-4.94-1.652-10.068-5.283-13.609a13.183 13.183 0 0 0-5.418-3.2c-2.674-.797-5.596-.707-8.356-.857-6.599-.365-13.205-.635-19.815-.623-3.303.006-6.607.084-9.906.254-2.948.152-6.037.182-8.932.799-4.294.918-8.128 3.613-10.397 7.381-2.956 4.909-2.423 10.362-1.473 15.77 1.124 6.402 1.383 12.863 1.374 19.349-.006 4.813-.133 9.591-.639 14.381a274.637 274.637 0 0 1-.845 6.938c-.152 1.156-.307 2.312-.458 3.466-.089.685-.248 1.505.087 2.151.657 1.267 3.101.783 4.188.771a871.05 871.05 0 0 1 7.582-.039c4.918-.007 9.84.016 14.762.016 0-.018-8.114 0 0 0z" transform="matrix(-2.45 0 0 -2.45 245 1015)" style="fill:#fff"/><path d="M0 0h100v100H0z" transform="matrix(1.05 0 0 1.05 70 70)" style="fill:#fff"/><path d="M0 0h100v100H0z" transform="matrix(1.05 0 0 1.05 840 70)" style="fill:#fff"/><path d="M0 0h100v100H0z" transform="matrix(1.05 0 0 1.05 70 840)" style="fill:#fff"/></mask></defs><path fill="url(#a)" mask="url(#b)" d="M0 0h1015v1015H0z" transform="translate(70 70)"/></svg>