<svg xmlns="http://www.w3.org/2000/svg" width="1147" height="1147" xml:space="preserve"><path fill="#FFF" d="M0 0h1147v1147H0z"/><defs transform="translate(62 62)"><linearGradient gradientTransform="rotate(90)" id="a"><stop offset="5%"/><stop offset="95%" stop-color="#0277BD"/></linearGradient><mask id="b"><path d="M0 0h100v100H0z" transform="translate(496) scale(.31)" style="fill:#fff"/><path d="M0 0h100v100H0z" transform="translate(558) scale(.31)" style="fill:#fff"/><path d="M0 0h100v100H0z" transform="translate(589) scale(.31)" style="fill:#fff"/><path d="M0 0h100v100H0z" transform="translate(620) scale(.31)" style="fill:#fff"/><path d="M0 0h100v100H0z" transform="translate(651) scale(.31)" style="fill:#fff"/><path d="M0 0h100v100H0z" transform="matrix(.31 0 0 .31 248 31)" style="fill:#fff"/><path d="M0 0h100v100H0z" transform="matrix(.31 0 0 .31 279 31)" style="fill:#fff"/><path d="M0 0h100v100H0z" transform="matrix(.31 0 0 .31 341 31)" style="fill:#fff"/><path d="M0 0h100v100H0z" transform="matrix(.31 0 0 .31 372 31)" style="fill:#fff"/><path d="M0 0h100v100H0z" transform="matrix(.31 0 0 .31 403 31)" style="fill:#fff"/><path d="M0 0h100v100H0z" transform="matrix(.31 0 0 .31 434 31)" style="fill:#fff"/><path d="M0 0h100v100H0z" transform="matrix(.31 0 0 .31 496 31)" style="fill:#fff"/><path d="M0 0h100v100H0z" transform="matrix(.31 0 0 .31 527 31)" style="fill:#fff"/><path d="M0 0h100v100H0z" transform="matrix(.31 0 0 .31 620 31)" style="fill:#fff"/><path d="M0 0h100v100H0z" transform="matrix(.31 0 0 .31 682 31)" style="fill:#fff"/><path d="M0 0h100v100H0z" transform="matrix(.31 0 0 .31 744 31)" style="fill:#fff"/><path d="M0 0h100v100H0z" transform="matrix(.31 0 0 .31 248 62)" style="fill:#fff"/><path d="M0 0h100v100H0z" transform="matrix(.31 0 0 .31 279 62)" style="fill:#fff"/><path d="M0 0h100v100H0z" transform="matrix(.31 0 0 .31 310 62)" style="fill:#fff"/><path d="M0 0h100v100H0z" transform="matrix(.31 0 0 .31 341 62)" style="fill:#fff"/><path d="M0 0h100v100H0z" transform="matrix(.31 0 0 .31 403 62)" style="fill:#fff"/><path d="M0 0h100v100H0z" transform="matrix(.31 0 0 .31 465 62)" style="fill:#fff"/><path d="M0 0h100v100H0z" transform="matrix(.31 0 0 .31 527 62)" style="fill:#fff"/><path d="M0 0h100v100H0z" transform="matrix(.31 0 0 .31 558 62)" style="fill:#fff"/><path d="M0 0h100v100H0z" transform="matrix(.31 0 0 .31 589 62)" style="fill:#fff"/><path d="M0 0h100v100H0z" transform="matrix(.31 0 0 .31 651 62)" style="fill:#fff"/><path d="M0 0h100v100H0z" transform="matrix(.31 0 0 .31 744 62)" style="fill:#fff"/><path d="M0 0h100v100H0z" transform="matrix(.31 0 0 .31 248 93)" style="fill:#fff"/><path d="M0 0h100v100H0z" transform="matrix(.31 0 0 .31 310 93)" style="fill:#fff"/><path d="M0 0h100v100H0z" transform="matrix(.31 0 0 .31 465 93)" style="fill:#fff"/><path d="M0 0h100v100H0z" transform="matrix(.31 0 0 .31 589 93)" style="fill:#fff"/><path d="M0 0h100v100H0z" transform="matrix(.31 0 0 .31 651 93)" style="fill:#fff"/><path d="M0 0h100v100H0z" transform="matrix(.31 0 0 .31 682 93)" style="fill:#fff"/><path d="M0 0h100v100H0z" transform="matrix(.31 0 0 .31 279 124)" style="fill:#fff"/><path d="M0 0h100v100H0z" transform="matrix(.31 0 0 .31 341 124)" style="fill:#fff"/><path d="M0 0h100v100H0z" transform="matrix(.31 0 0 .31 403 124)" style="fill:#fff"/><path d="M0 0h100v100H0z" transform="matrix(.31 0 0 .31 465 124)" style="fill:#fff"/><path d="M0 0h100v100H0z" transform="matrix(.31 0 0 .31 527 124)" style="fill:#fff"/><path d="M0 0h100v100H0z" transform="matrix(.31 0 0 .31 558 124)" style="fill:#fff"/><path d="M0 0h100v100H0z" transform="matrix(.31 0 0 .31 713 124)" style="fill:#fff"/><path d="M0 0h100v100H0z" transform="matrix(.31 0 0 .31 372 155)" style="fill:#fff"/><path d="M0 0h100v100H0z" transform="matrix(.31 0 0 .31 403 155)" style="fill:#fff"/><path d="M0 0h100v100H0z" transform="matrix(.31 0 0 .31 496 155)" style="fill:#fff"/><path d="M0 0h100v100H0z" transform="matrix(.31 0 0 .31 527 155)" style="fill:#fff"/><path d="M0 0h100v100H0z" transform="matrix(.31 0 0 .31 558 155)" style="fill:#fff"/><path d="M0 0h100v100H0z" transform="matrix(.31 0 0 .31 620 155)" style="fill:#fff"/><path d="M0 0h100v100H0z" transform="matrix(.31 0 0 .31 651 155)" style="fill:#fff"/><path d="M0 0h100v100H0z" transform="matrix(.31 0 0 .31 248 186)" style="fill:#fff"/><path d="M0 0h100v100H0z" transform="matrix(.31 0 0 .31 310 186)" style="fill:#fff"/><path d="M0 0h100v100H0z" transform="matrix(.31 0 0 .31 372 186)" style="fill:#fff"/><path d="M0 0h100v100H0z" transform="matrix(.31 0 0 .31 434 186)" style="fill:#fff"/><path d="M0 0h100v100H0z" transform="matrix(.31 0 0 .31 496 186)" style="fill:#fff"/><path d="M0 0h100v100H0z" transform="matrix(.31 0 0 .31 558 186)" style="fill:#fff"/><path d="M0 0h100v100H0z" transform="matrix(.31 0 0 .31 620 186)" style="fill:#fff"/><path d="M0 0h100v100H0z" transform="matrix(.31 0 0 .31 682 186)" style="fill:#fff"/><path d="M0 0h100v100H0z" transform="matrix(.31 0 0 .31 744 186)" style="fill:#fff"/><path d="M0 0h100v100H0z" transform="matrix(.31 0 0 .31 248 217)" style="fill:#fff"/><path d="M0 0h100v100H0z" transform="matrix(.31 0 0 .31 279 217)" style="fill:#fff"/><path d="M0 0h100v100H0z" transform="matrix(.31 0 0 .31 310 217)" style="fill:#fff"/><path d="M0 0h100v100H0z" transform="matrix(.31 0 0 .31 372 217)" style="fill:#fff"/><path d="M0 0h100v100H0z" transform="matrix(.31 0 0 .31 434 217)" style="fill:#fff"/><path d="M0 0h100v100H0z" transform="matrix(.31 0 0 .31 558 217)" style="fill:#fff"/><path d="M0 0h100v100H0z" transform="matrix(.31 0 0 .31 682 217)" style="fill:#fff"/><path d="M0 0h100v100H0z" transform="matrix(.31 0 0 .31 744 217)" style="fill:#fff"/><path d="M0 0h100v100H0z" transform="matrix(.31 0 0 .31 0 248)" style="fill:#fff"/><path d="M0 0h100v100H0z" transform="matrix(.31 0 0 .31 186 248)" style="fill:#fff"/><path d="M0 0h100v100H0z" transform="matrix(.31 0 0 .31 248 248)" style="fill:#fff"/><path d="M0 0h100v100H0z" transform="matrix(.31 0 0 .31 310 248)" style="fill:#fff"/><path d="M0 0h100v100H0z" transform="matrix(.31 0 0 .31 465 248)" style="fill:#fff"/><path d="M0 0h100v100H0z" transform="matrix(.31 0 0 .31 527 248)" style="fill:#fff"/><path d="M0 0h100v100H0z" transform="matrix(.31 0 0 .31 620 248)" style="fill:#fff"/><path d="M0 0h100v100H0z" transform="matrix(.31 0 0 .31 651 248)" style="fill:#fff"/><path d="M0 0h100v100H0z" transform="matrix(.31 0 0 .31 744 248)" style="fill:#fff"/><path d="M0 0h100v100H0z" transform="matrix(.31 0 0 .31 775 248)" style="fill:#fff"/><path d="M0 0h100v100H0z" transform="matrix(.31 0 0 .31 806 248)" style="fill:#fff"/><path d="M0 0h100v100H0z" transform="matrix(.31 0 0 .31 899 248)" style="fill:#fff"/><path d="M0 0h100v100H0z" transform="matrix(.31 0 0 .31 930 248)" style="fill:#fff"/><path d="M0 0h100v100H0z" transform="matrix(.31 0 0 .31 961 248)" style="fill:#fff"/><path d="M0 0h100v100H0z" transform="matrix(.31 0 0 .31 0 279)" style="fill:#fff"/><path d="M0 0h100v100H0z" transform="matrix(.31 0 0 .31 124 279)" style="fill:#fff"/><path d="M0 0h100v100H0z" transform="matrix(.31 0 0 .31 155 279)" style="fill:#fff"/><path d="M0 0h100v100H0z" transform="matrix(.31 0 0 .31 217 279)" style="fill:#fff"/><path d="M0 0h100v100H0z" transform="matrix(.31 0 0 .31 248 279)" style="fill:#fff"/><path d="M0 0h100v100H0z" transform="matrix(.31 0 0 .31 341 279)" style="fill:#fff"/><path d="M0 0h100v100H0z" transform="matrix(.31 0 0 .31 434 279)" style="fill:#fff"/><path d="M0 0h100v100H0z" transform="matrix(.31 0 0 .31 465 279)" style="fill:#fff"/><path d="M0 0h100v100H0z" transform="matrix(.31 0 0 .31 496 279)" style="fill:#fff"/><path d="M0 0h100v100H0z" transform="matrix(.31 0 0 .31 589 279)" style="fill:#fff"/><path d="M0 0h100v100H0z" transform="matrix(.31 0 0 .31 620 279)" style="fill:#fff"/><path d="M0 0h100v100H0z" transform="matrix(.31 0 0 .31 651 279)" style="fill:#fff"/><path d="M0 0h100v100H0z" transform="matrix(.31 0 0 .31 682 279)" style="fill:#fff"/><path d="M0 0h100v100H0z" transform="matrix(.31 0 0 .31 713 279)" style="fill:#fff"/><path d="M0 0h100v100H0z" transform="matrix(.31 0 0 .31 744 279)" style="fill:#fff"/><path d="M0 0h100v100H0z" transform="matrix(.31 0 0 .31 837 279)" style="fill:#fff"/><path d="M0 0h100v100H0z" transform="matrix(.31 0 0 .31 868 279)" style="fill:#fff"/><path d="M0 0h100v100H0z" transform="matrix(.31 0 0 .31 0 310)" style="fill:#fff"/><path d="M0 0h100v100H0z" transform="matrix(.31 0 0 .31 124 310)" style="fill:#fff"/><path d="M0 0h100v100H0z" transform="matrix(.31 0 0 .31 155 310)" style="fill:#fff"/><path d="M0 0h100v100H0z" transform="matrix(.31 0 0 .31 186 310)" style="fill:#fff"/><path d="M0 0h100v100H0z" transform="matrix(.31 0 0 .31 217 310)" style="fill:#fff"/><path d="M0 0h100v100H0z" transform="matrix(.31 0 0 .31 248 310)" style="fill:#fff"/><path d="M0 0h100v100H0z" transform="matrix(.31 0 0 .31 372 310)" style="fill:#fff"/><path d="M0 0h100v100H0z" transform="matrix(.31 0 0 .31 465 310)" style="fill:#fff"/><path d="M0 0h100v100H0z" transform="matrix(.31 0 0 .31 558 310)" style="fill:#fff"/><path d="M0 0h100v100H0z" transform="matrix(.31 0 0 .31 620 310)" style="fill:#fff"/><path d="M0 0h100v100H0z" transform="matrix(.31 0 0 .31 651 310)" style="fill:#fff"/><path d="M0 0h100v100H0z" transform="matrix(.31 0 0 .31 806 310)" style="fill:#fff"/><path d="M0 0h100v100H0z" transform="matrix(.31 0 0 .31 930 310)" style="fill:#fff"/><path d="M0 0h100v100H0z" transform="matrix(.31 0 0 .31 961 310)" style="fill:#fff"/><path d="M0 0h100v100H0z" transform="matrix(.31 0 0 .31 93 341)" style="fill:#fff"/><path d="M0 0h100v100H0z" transform="matrix(.31 0 0 .31 217 341)" style="fill:#fff"/><path d="M0 0h100v100H0z" transform="matrix(.31 0 0 .31 279 341)" style="fill:#fff"/><path d="M0 0h100v100H0z" transform="matrix(.31 0 0 .31 341 341)" style="fill:#fff"/><path d="M0 0h100v100H0z" transform="matrix(.31 0 0 .31 372 341)" style="fill:#fff"/><path d="M0 0h100v100H0z" transform="matrix(.31 0 0 .31 434 341)" style="fill:#fff"/><path d="M0 0h100v100H0z" transform="matrix(.31 0 0 .31 744 341)" style="fill:#fff"/><path d="M0 0h100v100H0z" transform="matrix(.31 0 0 .31 806 341)" style="fill:#fff"/><path d="M0 0h100v100H0z" transform="matrix(.31 0 0 .31 899 341)" style="fill:#fff"/><path d="M0 0h100v100H0z" transform="matrix(.31 0 0 .31 930 341)" style="fill:#fff"/><path d="M0 0h100v100H0z" transform="matrix(.31 0 0 .31 961 341)" style="fill:#fff"/><path d="M0 0h100v100H0z" transform="matrix(.31 0 0 .31 992 341)" style="fill:#fff"/><path d="M0 0h100v100H0z" transform="matrix(.31 0 0 .31 93 372)" style="fill:#fff"/><path d="M0 0h100v100H0z" transform="matrix(.31 0 0 .31 124 372)" style="fill:#fff"/><path d="M0 0h100v100H0z" transform="matrix(.31 0 0 .31 155 372)" style="fill:#fff"/><path d="M0 0h100v100H0z" transform="matrix(.31 0 0 .31 186 372)" style="fill:#fff"/><path d="M0 0h100v100H0z" transform="matrix(.31 0 0 .31 248 372)" style="fill:#fff"/><path d="M0 0h100v100H0z" transform="matrix(.31 0 0 .31 372 372)" style="fill:#fff"/><path d="M0 0h100v100H0z" transform="matrix(.31 0 0 .31 403 372)" style="fill:#fff"/><path d="M0 0h100v100H0z" transform="matrix(.31 0 0 .31 434 372)" style="fill:#fff"/><path d="M0 0h100v100H0z" transform="matrix(.31 0 0 .31 496 372)" style="fill:#fff"/><path d="M0 0h100v100H0z" transform="matrix(.31 0 0 .31 527 372)" style="fill:#fff"/><path d="M0 0h100v100H0z" transform="matrix(.31 0 0 .31 558 372)" style="fill:#fff"/><path d="M0 0h100v100H0z" transform="matrix(.31 0 0 .31 620 372)" style="fill:#fff"/><path d="M0 0h100v100H0z" transform="matrix(.31 0 0 .31 682 372)" style="fill:#fff"/><path d="M0 0h100v100H0z" transform="matrix(.31 0 0 .31 744 372)" style="fill:#fff"/><path d="M0 0h100v100H0z" transform="matrix(.31 0 0 .31 806 372)" style="fill:#fff"/><path d="M0 0h100v100H0z" transform="matrix(.31 0 0 .31 837 372)" style="fill:#fff"/><path d="M0 0h100v100H0z" transform="matrix(.31 0 0 .31 868 372)" style="fill:#fff"/><path d="M0 0h100v100H0z" transform="matrix(.31 0 0 .31 899 372)" style="fill:#fff"/><path d="M0 0h100v100H0z" transform="matrix(.31 0 0 .31 31 403)" style="fill:#fff"/><path d="M0 0h100v100H0z" transform="matrix(.31 0 0 .31 62 403)" style="fill:#fff"/><path d="M0 0h100v100H0z" transform="matrix(.31 0 0 .31 93 403)" style="fill:#fff"/><path d="M0 0h100v100H0z" transform="matrix(.31 0 0 .31 155 403)" style="fill:#fff"/><path d="M0 0h100v100H0z" transform="matrix(.31 0 0 .31 248 403)" style="fill:#fff"/><path d="M0 0h100v100H0z" transform="matrix(.31 0 0 .31 341 403)" style="fill:#fff"/><path d="M0 0h100v100H0z" transform="matrix(.31 0 0 .31 403 403)" style="fill:#fff"/><path d="M0 0h100v100H0z" transform="matrix(.31 0 0 .31 434 403)" style="fill:#fff"/><path d="M0 0h100v100H0z" transform="matrix(.31 0 0 .31 496 403)" style="fill:#fff"/><path d="M0 0h100v100H0z" transform="matrix(.31 0 0 .31 620 403)" style="fill:#fff"/><path d="M0 0h100v100H0z" transform="matrix(.31 0 0 .31 651 403)" style="fill:#fff"/><path d="M0 0h100v100H0z" transform="matrix(.31 0 0 .31 713 403)" style="fill:#fff"/><path d="M0 0h100v100H0z" transform="matrix(.31 0 0 .31 775 403)" style="fill:#fff"/><path d="M0 0h100v100H0z" transform="matrix(.31 0 0 .31 806 403)" style="fill:#fff"/><path d="M0 0h100v100H0z" transform="matrix(.31 0 0 .31 899 403)" style="fill:#fff"/><path d="M0 0h100v100H0z" transform="matrix(.31 0 0 .31 930 403)" style="fill:#fff"/><path d="M0 0h100v100H0z" transform="matrix(.31 0 0 .31 992 403)" style="fill:#fff"/><path d="M0 0h100v100H0z" transform="matrix(.31 0 0 .31 0 434)" style="fill:#fff"/><path d="M0 0h100v100H0z" transform="matrix(.31 0 0 .31 62 434)" style="fill:#fff"/><path d="M0 0h100v100H0z" transform="matrix(.31 0 0 .31 93 434)" style="fill:#fff"/><path d="M0 0h100v100H0z" transform="matrix(.31 0 0 .31 186 434)" style="fill:#fff"/><path d="M0 0h100v100H0z" transform="matrix(.31 0 0 .31 217 434)" style="fill:#fff"/><path d="M0 0h100v100H0z" transform="matrix(.31 0 0 .31 248 434)" style="fill:#fff"/><path d="M0 0h100v100H0z" transform="matrix(.31 0 0 .31 310 434)" style="fill:#fff"/><path d="M0 0h100v100H0z" transform="matrix(.31 0 0 .31 341 434)" style="fill:#fff"/><path d="M0 0h100v100H0z" transform="matrix(.31 0 0 .31 372 434)" style="fill:#fff"/><path d="M0 0h100v100H0z" transform="matrix(.31 0 0 .31 403 434)" style="fill:#fff"/><path d="M0 0h100v100H0z" transform="matrix(.31 0 0 .31 527 434)" style="fill:#fff"/><path d="M0 0h100v100H0z" transform="matrix(.31 0 0 .31 558 434)" style="fill:#fff"/><path d="M0 0h100v100H0z" transform="matrix(.31 0 0 .31 589 434)" style="fill:#fff"/><path d="M0 0h100v100H0z" transform="matrix(.31 0 0 .31 775 434)" style="fill:#fff"/><path d="M0 0h100v100H0z" transform="matrix(.31 0 0 .31 806 434)" style="fill:#fff"/><path d="M0 0h100v100H0z" transform="matrix(.31 0 0 .31 868 434)" style="fill:#fff"/><path d="M0 0h100v100H0z" transform="matrix(.31 0 0 .31 930 434)" style="fill:#fff"/><path d="M0 0h100v100H0z" transform="matrix(.31 0 0 .31 961 434)" style="fill:#fff"/><path d="M0 0h100v100H0z" transform="matrix(.31 0 0 .31 31 465)" style="fill:#fff"/><path d="M0 0h100v100H0z" transform="matrix(.31 0 0 .31 62 465)" style="fill:#fff"/><path d="M0 0h100v100H0z" transform="matrix(.31 0 0 .31 93 465)" style="fill:#fff"/><path d="M0 0h100v100H0z" transform="matrix(.31 0 0 .31 124 465)" style="fill:#fff"/><path d="M0 0h100v100H0z" transform="matrix(.31 0 0 .31 217 465)" style="fill:#fff"/><path d="M0 0h100v100H0z" transform="matrix(.31 0 0 .31 310 465)" style="fill:#fff"/><path d="M0 0h100v100H0z" transform="matrix(.31 0 0 .31 403 465)" style="fill:#fff"/><path d="M0 0h100v100H0z" transform="matrix(.31 0 0 .31 465 465)" style="fill:#fff"/><path d="M0 0h100v100H0z" transform="matrix(.31 0 0 .31 589 465)" style="fill:#fff"/><path d="M0 0h100v100H0z" transform="matrix(.31 0 0 .31 682 465)" style="fill:#fff"/><path d="M0 0h100v100H0z" transform="matrix(.31 0 0 .31 806 465)" style="fill:#fff"/><path d="M0 0h100v100H0z" transform="matrix(.31 0 0 .31 899 465)" style="fill:#fff"/><path d="M0 0h100v100H0z" transform="matrix(.31 0 0 .31 930 465)" style="fill:#fff"/><path d="M0 0h100v100H0z" transform="matrix(.31 0 0 .31 961 465)" style="fill:#fff"/><path d="M0 0h100v100H0z" transform="matrix(.31 0 0 .31 31 496)" style="fill:#fff"/><path d="M0 0h100v100H0z" transform="matrix(.31 0 0 .31 93 496)" style="fill:#fff"/><path d="M0 0h100v100H0z" transform="matrix(.31 0 0 .31 186 496)" style="fill:#fff"/><path d="M0 0h100v100H0z" transform="matrix(.31 0 0 .31 279 496)" style="fill:#fff"/><path d="M0 0h100v100H0z" transform="matrix(.31 0 0 .31 372 496)" style="fill:#fff"/><path d="M0 0h100v100H0z" transform="matrix(.31 0 0 .31 403 496)" style="fill:#fff"/><path d="M0 0h100v100H0z" transform="matrix(.31 0 0 .31 527 496)" style="fill:#fff"/><path d="M0 0h100v100H0z" transform="matrix(.31 0 0 .31 589 496)" style="fill:#fff"/><path d="M0 0h100v100H0z" transform="matrix(.31 0 0 .31 682 496)" style="fill:#fff"/><path d="M0 0h100v100H0z" transform="matrix(.31 0 0 .31 744 496)" style="fill:#fff"/><path d="M0 0h100v100H0z" transform="matrix(.31 0 0 .31 775 496)" style="fill:#fff"/><path d="M0 0h100v100H0z" transform="matrix(.31 0 0 .31 837 496)" style="fill:#fff"/><path d="M0 0h100v100H0z" transform="matrix(.31 0 0 .31 868 496)" style="fill:#fff"/><path d="M0 0h100v100H0z" transform="matrix(.31 0 0 .31 961 496)" style="fill:#fff"/><path d="M0 0h100v100H0z" transform="matrix(.31 0 0 .31 31 527)" style="fill:#fff"/><path d="M0 0h100v100H0z" transform="matrix(.31 0 0 .31 62 527)" style="fill:#fff"/><path d="M0 0h100v100H0z" transform="matrix(.31 0 0 .31 217 527)" style="fill:#fff"/><path d="M0 0h100v100H0z" transform="matrix(.31 0 0 .31 310 527)" style="fill:#fff"/><path d="M0 0h100v100H0z" transform="matrix(.31 0 0 .31 372 527)" style="fill:#fff"/><path d="M0 0h100v100H0z" transform="matrix(.31 0 0 .31 403 527)" style="fill:#fff"/><path d="M0 0h100v100H0z" transform="matrix(.31 0 0 .31 465 527)" style="fill:#fff"/><path d="M0 0h100v100H0z" transform="matrix(.31 0 0 .31 527 527)" style="fill:#fff"/><path d="M0 0h100v100H0z" transform="matrix(.31 0 0 .31 558 527)" style="fill:#fff"/><path d="M0 0h100v100H0z" transform="matrix(.31 0 0 .31 589 527)" style="fill:#fff"/><path d="M0 0h100v100H0z" transform="matrix(.31 0 0 .31 651 527)" style="fill:#fff"/><path d="M0 0h100v100H0z" transform="matrix(.31 0 0 .31 713 527)" style="fill:#fff"/><path d="M0 0h100v100H0z" transform="matrix(.31 0 0 .31 744 527)" style="fill:#fff"/><path d="M0 0h100v100H0z" transform="matrix(.31 0 0 .31 806 527)" style="fill:#fff"/><path d="M0 0h100v100H0z" transform="matrix(.31 0 0 .31 837 527)" style="fill:#fff"/><path d="M0 0h100v100H0z" transform="matrix(.31 0 0 .31 992 527)" style="fill:#fff"/><path d="M0 0h100v100H0z" transform="matrix(.31 0 0 .31 31 558)" style="fill:#fff"/><path d="M0 0h100v100H0z" transform="matrix(.31 0 0 .31 62 558)" style="fill:#fff"/><path d="M0 0h100v100H0z" transform="matrix(.31 0 0 .31 124 558)" style="fill:#fff"/><path d="M0 0h100v100H0z" transform="matrix(.31 0 0 .31 155 558)" style="fill:#fff"/><path d="M0 0h100v100H0z" transform="matrix(.31 0 0 .31 186 558)" style="fill:#fff"/><path d="M0 0h100v100H0z" transform="matrix(.31 0 0 .31 217 558)" style="fill:#fff"/><path d="M0 0h100v100H0z" transform="matrix(.31 0 0 .31 279 558)" style="fill:#fff"/><path d="M0 0h100v100H0z" transform="matrix(.31 0 0 .31 310 558)" style="fill:#fff"/><path d="M0 0h100v100H0z" transform="matrix(.31 0 0 .31 372 558)" style="fill:#fff"/><path d="M0 0h100v100H0z" transform="matrix(.31 0 0 .31 403 558)" style="fill:#fff"/><path d="M0 0h100v100H0z" transform="matrix(.31 0 0 .31 465 558)" style="fill:#fff"/><path d="M0 0h100v100H0z" transform="matrix(.31 0 0 .31 496 558)" style="fill:#fff"/><path d="M0 0h100v100H0z" transform="matrix(.31 0 0 .31 589 558)" style="fill:#fff"/><path d="M0 0h100v100H0z" transform="matrix(.31 0 0 .31 620 558)" style="fill:#fff"/><path d="M0 0h100v100H0z" transform="matrix(.31 0 0 .31 651 558)" style="fill:#fff"/><path d="M0 0h100v100H0z" transform="matrix(.31 0 0 .31 682 558)" style="fill:#fff"/><path d="M0 0h100v100H0z" transform="matrix(.31 0 0 .31 713 558)" style="fill:#fff"/><path d="M0 0h100v100H0z" transform="matrix(.31 0 0 .31 775 558)" style="fill:#fff"/><path d="M0 0h100v100H0z" transform="matrix(.31 0 0 .31 806 558)" style="fill:#fff"/><path d="M0 0h100v100H0z" transform="matrix(.31 0 0 .31 837 558)" style="fill:#fff"/><path d="M0 0h100v100H0z" transform="matrix(.31 0 0 .31 868 558)" style="fill:#fff"/><path d="M0 0h100v100H0z" transform="matrix(.31 0 0 .31 930 558)" style="fill:#fff"/><path d="M0 0h100v100H0z" transform="matrix(.31 0 0 .31 992 558)" style="fill:#fff"/><path d="M0 0h100v100H0z" transform="matrix(.31 0 0 .31 62 589)" style="fill:#fff"/><path d="M0 0h100v100H0z" transform="matrix(.31 0 0 .31 155 589)" style="fill:#fff"/><path d="M0 0h100v100H0z" transform="matrix(.31 0 0 .31 341 589)" style="fill:#fff"/><path d="M0 0h100v100H0z" transform="matrix(.31 0 0 .31 372 589)" style="fill:#fff"/><path d="M0 0h100v100H0z" transform="matrix(.31 0 0 .31 434 589)" style="fill:#fff"/><path d="M0 0h100v100H0z" transform="matrix(.31 0 0 .31 527 589)" style="fill:#fff"/><path d="M0 0h100v100H0z" transform="matrix(.31 0 0 .31 558 589)" style="fill:#fff"/><path d="M0 0h100v100H0z" transform="matrix(.31 0 0 .31 682 589)" style="fill:#fff"/><path d="M0 0h100v100H0z" transform="matrix(.31 0 0 .31 806 589)" style="fill:#fff"/><path d="M0 0h100v100H0z" transform="matrix(.31 0 0 .31 868 589)" style="fill:#fff"/><path d="M0 0h100v100H0z" transform="matrix(.31 0 0 .31 899 589)" style="fill:#fff"/><path d="M0 0h100v100H0z" transform="matrix(.31 0 0 .31 930 589)" style="fill:#fff"/><path d="M0 0h100v100H0z" transform="matrix(.31 0 0 .31 961 589)" style="fill:#fff"/><path d="M0 0h100v100H0z" transform="matrix(.31 0 0 .31 992 589)" style="fill:#fff"/><path d="M0 0h100v100H0z" transform="matrix(.31 0 0 .31 0 620)" style="fill:#fff"/><path d="M0 0h100v100H0z" transform="matrix(.31 0 0 .31 31 620)" style="fill:#fff"/><path d="M0 0h100v100H0z" transform="matrix(.31 0 0 .31 62 620)" style="fill:#fff"/><path d="M0 0h100v100H0z" transform="matrix(.31 0 0 .31 186 620)" style="fill:#fff"/><path d="M0 0h100v100H0z" transform="matrix(.31 0 0 .31 217 620)" style="fill:#fff"/><path d="M0 0h100v100H0z" transform="matrix(.31 0 0 .31 279 620)" style="fill:#fff"/><path d="M0 0h100v100H0z" transform="matrix(.31 0 0 .31 310 620)" style="fill:#fff"/><path d="M0 0h100v100H0z" transform="matrix(.31 0 0 .31 465 620)" style="fill:#fff"/><path d="M0 0h100v100H0z" transform="matrix(.31 0 0 .31 496 620)" style="fill:#fff"/><path d="M0 0h100v100H0z" transform="matrix(.31 0 0 .31 589 620)" style="fill:#fff"/><path d="M0 0h100v100H0z" transform="matrix(.31 0 0 .31 744 620)" style="fill:#fff"/><path d="M0 0h100v100H0z" transform="matrix(.31 0 0 .31 775 620)" style="fill:#fff"/><path d="M0 0h100v100H0z" transform="matrix(.31 0 0 .31 868 620)" style="fill:#fff"/><path d="M0 0h100v100H0z" transform="matrix(.31 0 0 .31 0 651)" style="fill:#fff"/><path d="M0 0h100v100H0z" transform="matrix(.31 0 0 .31 62 651)" style="fill:#fff"/><path d="M0 0h100v100H0z" transform="matrix(.31 0 0 .31 93 651)" style="fill:#fff"/><path d="M0 0h100v100H0z" transform="matrix(.31 0 0 .31 124 651)" style="fill:#fff"/><path d="M0 0h100v100H0z" transform="matrix(.31 0 0 .31 217 651)" style="fill:#fff"/><path d="M0 0h100v100H0z" transform="matrix(.31 0 0 .31 248 651)" style="fill:#fff"/><path d="M0 0h100v100H0z" transform="matrix(.31 0 0 .31 372 651)" style="fill:#fff"/><path d="M0 0h100v100H0z" transform="matrix(.31 0 0 .31 434 651)" style="fill:#fff"/><path d="M0 0h100v100H0z" transform="matrix(.31 0 0 .31 496 651)" style="fill:#fff"/><path d="M0 0h100v100H0z" transform="matrix(.31 0 0 .31 527 651)" style="fill:#fff"/><path d="M0 0h100v100H0z" transform="matrix(.31 0 0 .31 558 651)" style="fill:#fff"/><path d="M0 0h100v100H0z" transform="matrix(.31 0 0 .31 620 651)" style="fill:#fff"/><path d="M0 0h100v100H0z" transform="matrix(.31 0 0 .31 713 651)" style="fill:#fff"/><path d="M0 0h100v100H0z" transform="matrix(.31 0 0 .31 868 651)" style="fill:#fff"/><path d="M0 0h100v100H0z" transform="matrix(.31 0 0 .31 899 651)" style="fill:#fff"/><path d="M0 0h100v100H0z" transform="matrix(.31 0 0 .31 930 651)" style="fill:#fff"/><path d="M0 0h100v100H0z" transform="matrix(.31 0 0 .31 961 651)" style="fill:#fff"/><path d="M0 0h100v100H0z" transform="matrix(.31 0 0 .31 0 682)" style="fill:#fff"/><path d="M0 0h100v100H0z" transform="matrix(.31 0 0 .31 62 682)" style="fill:#fff"/><path d="M0 0h100v100H0z" transform="matrix(.31 0 0 .31 93 682)" style="fill:#fff"/><path d="M0 0h100v100H0z" transform="matrix(.31 0 0 .31 155 682)" style="fill:#fff"/><path d="M0 0h100v100H0z" transform="matrix(.31 0 0 .31 186 682)" style="fill:#fff"/><path d="M0 0h100v100H0z" transform="matrix(.31 0 0 .31 217 682)" style="fill:#fff"/><path d="M0 0h100v100H0z" transform="matrix(.31 0 0 .31 279 682)" style="fill:#fff"/><path d="M0 0h100v100H0z" transform="matrix(.31 0 0 .31 341 682)" style="fill:#fff"/><path d="M0 0h100v100H0z" transform="matrix(.31 0 0 .31 465 682)" style="fill:#fff"/><path d="M0 0h100v100H0z" transform="matrix(.31 0 0 .31 496 682)" style="fill:#fff"/><path d="M0 0h100v100H0z" transform="matrix(.31 0 0 .31 620 682)" style="fill:#fff"/><path d="M0 0h100v100H0z" transform="matrix(.31 0 0 .31 651 682)" style="fill:#fff"/><path d="M0 0h100v100H0z" transform="matrix(.31 0 0 .31 682 682)" style="fill:#fff"/><path d="M0 0h100v100H0z" transform="matrix(.31 0 0 .31 744 682)" style="fill:#fff"/><path d="M0 0h100v100H0z" transform="matrix(.31 0 0 .31 806 682)" style="fill:#fff"/><path d="M0 0h100v100H0z" transform="matrix(.31 0 0 .31 899 682)" style="fill:#fff"/><path d="M0 0h100v100H0z" transform="matrix(.31 0 0 .31 930 682)" style="fill:#fff"/><path d="M0 0h100v100H0z" transform="matrix(.31 0 0 .31 961 682)" style="fill:#fff"/><path d="M0 0h100v100H0z" transform="matrix(.31 0 0 .31 0 713)" style="fill:#fff"/><path d="M0 0h100v100H0z" transform="matrix(.31 0 0 .31 62 713)" style="fill:#fff"/><path d="M0 0h100v100H0z" transform="matrix(.31 0 0 .31 124 713)" style="fill:#fff"/><path d="M0 0h100v100H0z" transform="matrix(.31 0 0 .31 155 713)" style="fill:#fff"/><path d="M0 0h100v100H0z" transform="matrix(.31 0 0 .31 217 713)" style="fill:#fff"/><path d="M0 0h100v100H0z" transform="matrix(.31 0 0 .31 248 713)" style="fill:#fff"/><path d="M0 0h100v100H0z" transform="matrix(.31 0 0 .31 279 713)" style="fill:#fff"/><path d="M0 0h100v100H0z" transform="matrix(.31 0 0 .31 310 713)" style="fill:#fff"/><path d="M0 0h100v100H0z" transform="matrix(.31 0 0 .31 372 713)" style="fill:#fff"/><path d="M0 0h100v100H0z" transform="matrix(.31 0 0 .31 434 713)" style="fill:#fff"/><path d="M0 0h100v100H0z" transform="matrix(.31 0 0 .31 558 713)" style="fill:#fff"/><path d="M0 0h100v100H0z" transform="matrix(.31 0 0 .31 620 713)" style="fill:#fff"/><path d="M0 0h100v100H0z" transform="matrix(.31 0 0 .31 682 713)" style="fill:#fff"/><path d="M0 0h100v100H0z" transform="matrix(.31 0 0 .31 744 713)" style="fill:#fff"/><path d="M0 0h100v100H0z" transform="matrix(.31 0 0 .31 775 713)" style="fill:#fff"/><path d="M0 0h100v100H0z" transform="matrix(.31 0 0 .31 868 713)" style="fill:#fff"/><path d="M0 0h100v100H0z" transform="matrix(.31 0 0 .31 930 713)" style="fill:#fff"/><path d="M0 0h100v100H0z" transform="matrix(.31 0 0 .31 992 713)" style="fill:#fff"/><path d="M0 0h100v100H0z" transform="matrix(.31 0 0 .31 0 744)" style="fill:#fff"/><path d="M0 0h100v100H0z" transform="matrix(.31 0 0 .31 31 744)" style="fill:#fff"/><path d="M0 0h100v100H0z" transform="matrix(.31 0 0 .31 62 744)" style="fill:#fff"/><path d="M0 0h100v100H0z" transform="matrix(.31 0 0 .31 124 744)" style="fill:#fff"/><path d="M0 0h100v100H0z" transform="matrix(.31 0 0 .31 155 744)" style="fill:#fff"/><path d="M0 0h100v100H0z" transform="matrix(.31 0 0 .31 186 744)" style="fill:#fff"/><path d="M0 0h100v100H0z" transform="matrix(.31 0 0 .31 217 744)" style="fill:#fff"/><path d="M0 0h100v100H0z" transform="matrix(.31 0 0 .31 310 744)" style="fill:#fff"/><path d="M0 0h100v100H0z" transform="matrix(.31 0 0 .31 372 744)" style="fill:#fff"/><path d="M0 0h100v100H0z" transform="matrix(.31 0 0 .31 403 744)" style="fill:#fff"/><path d="M0 0h100v100H0z" transform="matrix(.31 0 0 .31 434 744)" style="fill:#fff"/><path d="M0 0h100v100H0z" transform="matrix(.31 0 0 .31 465 744)" style="fill:#fff"/><path d="M0 0h100v100H0z" transform="matrix(.31 0 0 .31 620 744)" style="fill:#fff"/><path d="M0 0h100v100H0z" transform="matrix(.31 0 0 .31 713 744)" style="fill:#fff"/><path d="M0 0h100v100H0z" transform="matrix(.31 0 0 .31 744 744)" style="fill:#fff"/><path d="M0 0h100v100H0z" transform="matrix(.31 0 0 .31 775 744)" style="fill:#fff"/><path d="M0 0h100v100H0z" transform="matrix(.31 0 0 .31 806 744)" style="fill:#fff"/><path d="M0 0h100v100H0z" transform="matrix(.31 0 0 .31 837 744)" style="fill:#fff"/><path d="M0 0h100v100H0z" transform="matrix(.31 0 0 .31 868 744)" style="fill:#fff"/><path d="M0 0h100v100H0z" transform="matrix(.31 0 0 .31 899 744)" style="fill:#fff"/><path d="M0 0h100v100H0z" transform="matrix(.31 0 0 .31 961 744)" style="fill:#fff"/><path d="M0 0h100v100H0z" transform="matrix(.31 0 0 .31 992 744)" style="fill:#fff"/><path d="M0 0h100v100H0z" transform="matrix(.31 0 0 .31 248 775)" style="fill:#fff"/><path d="M0 0h100v100H0z" transform="matrix(.31 0 0 .31 279 775)" style="fill:#fff"/><path d="M0 0h100v100H0z" transform="matrix(.31 0 0 .31 310 775)" style="fill:#fff"/><path d="M0 0h100v100H0z" transform="matrix(.31 0 0 .31 341 775)" style="fill:#fff"/><path d="M0 0h100v100H0z" transform="matrix(.31 0 0 .31 372 775)" style="fill:#fff"/><path d="M0 0h100v100H0z" transform="matrix(.31 0 0 .31 403 775)" style="fill:#fff"/><path d="M0 0h100v100H0z" transform="matrix(.31 0 0 .31 465 775)" style="fill:#fff"/><path d="M0 0h100v100H0z" transform="matrix(.31 0 0 .31 496 775)" style="fill:#fff"/><path d="M0 0h100v100H0z" transform="matrix(.31 0 0 .31 558 775)" style="fill:#fff"/><path d="M0 0h100v100H0z" transform="matrix(.31 0 0 .31 589 775)" style="fill:#fff"/><path d="M0 0h100v100H0z" transform="matrix(.31 0 0 .31 651 775)" style="fill:#fff"/><path d="M0 0h100v100H0z" transform="matrix(.31 0 0 .31 744 775)" style="fill:#fff"/><path d="M0 0h100v100H0z" transform="matrix(.31 0 0 .31 868 775)" style="fill:#fff"/><path d="M0 0h100v100H0z" transform="matrix(.31 0 0 .31 899 775)" style="fill:#fff"/><path d="M0 0h100v100H0z" transform="matrix(.31 0 0 .31 992 775)" style="fill:#fff"/><path d="M0 0h100v100H0z" transform="matrix(.31 0 0 .31 279 806)" style="fill:#fff"/><path d="M0 0h100v100H0z" transform="matrix(.31 0 0 .31 403 806)" style="fill:#fff"/><path d="M0 0h100v100H0z" transform="matrix(.31 0 0 .31 465 806)" style="fill:#fff"/><path d="M0 0h100v100H0z" transform="matrix(.31 0 0 .31 496 806)" style="fill:#fff"/><path d="M0 0h100v100H0z" transform="matrix(.31 0 0 .31 558 806)" style="fill:#fff"/><path d="M0 0h100v100H0z" transform="matrix(.31 0 0 .31 713 806)" style="fill:#fff"/><path d="M0 0h100v100H0z" transform="matrix(.31 0 0 .31 744 806)" style="fill:#fff"/><path d="M0 0h100v100H0z" transform="matrix(.31 0 0 .31 806 806)" style="fill:#fff"/><path d="M0 0h100v100H0z" transform="matrix(.31 0 0 .31 868 806)" style="fill:#fff"/><path d="M0 0h100v100H0z" transform="matrix(.31 0 0 .31 930 806)" style="fill:#fff"/><path d="M0 0h100v100H0z" transform="matrix(.31 0 0 .31 961 806)" style="fill:#fff"/><path d="M0 0h100v100H0z" transform="matrix(.31 0 0 .31 279 837)" style="fill:#fff"/><path d="M0 0h100v100H0z" transform="matrix(.31 0 0 .31 310 837)" style="fill:#fff"/><path d="M0 0h100v100H0z" transform="matrix(.31 0 0 .31 403 837)" style="fill:#fff"/><path d="M0 0h100v100H0z" transform="matrix(.31 0 0 .31 713 837)" style="fill:#fff"/><path d="M0 0h100v100H0z" transform="matrix(.31 0 0 .31 744 837)" style="fill:#fff"/><path d="M0 0h100v100H0z" transform="matrix(.31 0 0 .31 868 837)" style="fill:#fff"/><path d="M0 0h100v100H0z" transform="matrix(.31 0 0 .31 899 837)" style="fill:#fff"/><path d="M0 0h100v100H0z" transform="matrix(.31 0 0 .31 930 837)" style="fill:#fff"/><path d="M0 0h100v100H0z" transform="matrix(.31 0 0 .31 279 868)" style="fill:#fff"/><path d="M0 0h100v100H0z" transform="matrix(.31 0 0 .31 310 868)" style="fill:#fff"/><path d="M0 0h100v100H0z" transform="matrix(.31 0 0 .31 403 868)" style="fill:#fff"/><path d="M0 0h100v100H0z" transform="matrix(.31 0 0 .31 465 868)" style="fill:#fff"/><path d="M0 0h100v100H0z" transform="matrix(.31 0 0 .31 558 868)" style="fill:#fff"/><path d="M0 0h100v100H0z" transform="matrix(.31 0 0 .31 620 868)" style="fill:#fff"/><path d="M0 0h100v100H0z" transform="matrix(.31 0 0 .31 651 868)" style="fill:#fff"/><path d="M0 0h100v100H0z" transform="matrix(.31 0 0 .31 744 868)" style="fill:#fff"/><path d="M0 0h100v100H0z" transform="matrix(.31 0 0 .31 775 868)" style="fill:#fff"/><path d="M0 0h100v100H0z" transform="matrix(.31 0 0 .31 806 868)" style="fill:#fff"/><path d="M0 0h100v100H0z" transform="matrix(.31 0 0 .31 837 868)" style="fill:#fff"/><path d="M0 0h100v100H0z" transform="matrix(.31 0 0 .31 868 868)" style="fill:#fff"/><path d="M0 0h100v100H0z" transform="matrix(.31 0 0 .31 992 868)" style="fill:#fff"/><path d="M0 0h100v100H0z" transform="matrix(.31 0 0 .31 310 899)" style="fill:#fff"/><path d="M0 0h100v100H0z" transform="matrix(.31 0 0 .31 496 899)" style="fill:#fff"/><path d="M0 0h100v100H0z" transform="matrix(.31 0 0 .31 589 899)" style="fill:#fff"/><path d="M0 0h100v100H0z" transform="matrix(.31 0 0 .31 620 899)" style="fill:#fff"/><path d="M0 0h100v100H0z" transform="matrix(.31 0 0 .31 775 899)" style="fill:#fff"/><path d="M0 0h100v100H0z" transform="matrix(.31 0 0 .31 868 899)" style="fill:#fff"/><path d="M0 0h100v100H0z" transform="matrix(.31 0 0 .31 961 899)" style="fill:#fff"/><path d="M0 0h100v100H0z" transform="matrix(.31 0 0 .31 992 899)" style="fill:#fff"/><path d="M0 0h100v100H0z" transform="matrix(.31 0 0 .31 434 930)" style="fill:#fff"/><path d="M0 0h100v100H0z" transform="matrix(.31 0 0 .31 496 930)" style="fill:#fff"/><path d="M0 0h100v100H0z" transform="matrix(.31 0 0 .31 527 930)" style="fill:#fff"/><path d="M0 0h100v100H0z" transform="matrix(.31 0 0 .31 589 930)" style="fill:#fff"/><path d="M0 0h100v100H0z" transform="matrix(.31 0 0 .31 620 930)" style="fill:#fff"/><path d="M0 0h100v100H0z" transform="matrix(.31 0 0 .31 651 930)" style="fill:#fff"/><path d="M0 0h100v100H0z" transform="matrix(.31 0 0 .31 682 930)" style="fill:#fff"/><path d="M0 0h100v100H0z" transform="matrix(.31 0 0 .31 744 930)" style="fill:#fff"/><path d="M0 0h100v100H0z" transform="matrix(.31 0 0 .31 837 930)" style="fill:#fff"/><path d="M0 0h100v100H0z" transform="matrix(.31 0 0 .31 868 930)" style="fill:#fff"/><path d="M0 0h100v100H0z" transform="matrix(.31 0 0 .31 899 930)" style="fill:#fff"/><path d="M0 0h100v100H0z" transform="matrix(.31 0 0 .31 930 930)" style="fill:#fff"/><path d="M0 0h100v100H0z" transform="matrix(.31 0 0 .31 961 930)" style="fill:#fff"/><path d="M0 0h100v100H0z" transform="matrix(.31 0 0 .31 992 930)" style="fill:#fff"/><path d="M0 0h100v100H0z" transform="matrix(.31 0 0 .31 279 961)" style="fill:#fff"/><path d="M0 0h100v100H0z" transform="matrix(.31 0 0 .31 310 961)" style="fill:#fff"/><path d="M0 0h100v100H0z" transform="matrix(.31 0 0 .31 403 961)" style="fill:#fff"/><path d="M0 0h100v100H0z" transform="matrix(.31 0 0 .31 434 961)" style="fill:#fff"/><path d="M0 0h100v100H0z" transform="matrix(.31 0 0 .31 465 961)" style="fill:#fff"/><path d="M0 0h100v100H0z" transform="matrix(.31 0 0 .31 496 961)" style="fill:#fff"/><path d="M0 0h100v100H0z" transform="matrix(.31 0 0 .31 589 961)" style="fill:#fff"/><path d="M0 0h100v100H0z" transform="matrix(.31 0 0 .31 682 961)" style="fill:#fff"/><path d="M0 0h100v100H0z" transform="matrix(.31 0 0 .31 713 961)" style="fill:#fff"/><path d="M0 0h100v100H0z" transform="matrix(.31 0 0 .31 775 961)" style="fill:#fff"/><path d="M0 0h100v100H0z" transform="matrix(.31 0 0 .31 837 961)" style="fill:#fff"/><path d="M0 0h100v100H0z" transform="matrix(.31 0 0 .31 930 961)" style="fill:#fff"/><path d="M0 0h100v100H0z" transform="matrix(.31 0 0 .31 248 992)" style="fill:#fff"/><path d="M0 0h100v100H0z" transform="matrix(.31 0 0 .31 279 992)" style="fill:#fff"/><path d="M0 0h100v100H0z" transform="matrix(.31 0 0 .31 310 992)" style="fill:#fff"/><path d="M0 0h100v100H0z" transform="matrix(.31 0 0 .31 341 992)" style="fill:#fff"/><path d="M0 0h100v100H0z" transform="matrix(.31 0 0 .31 372 992)" style="fill:#fff"/><path d="M0 0h100v100H0z" transform="matrix(.31 0 0 .31 527 992)" style="fill:#fff"/><path d="M0 0h100v100H0z" transform="matrix(.31 0 0 .31 589 992)" style="fill:#fff"/><path d="M0 0h100v100H0z" transform="matrix(.31 0 0 .31 620 992)" style="fill:#fff"/><path d="M0 0h100v100H0z" transform="matrix(.31 0 0 .31 682 992)" style="fill:#fff"/><path d="M0 0h100v100H0z" transform="matrix(.31 0 0 .31 713 992)" style="fill:#fff"/><path d="M0 0h100v100H0z" transform="matrix(.31 0 0 .31 744 992)" style="fill:#fff"/><path d="M0 0h100v100H0z" transform="matrix(.31 0 0 .31 775 992)" style="fill:#fff"/><path d="M0 0h100v100H0z" transform="matrix(.31 0 0 .31 961 992)" style="fill:#fff"/><g style="fill:#fff"><path style="fill:none" d="M15 15h70v70H15z" transform="scale(2.17)"/><path d="M85 0H0v100h100V0H85zm0 85H15V15h70v70z" transform="scale(2.17)"/></g><g style="fill:#fff"><path style="fill:none" d="M15 15h70v70H15z" transform="translate(806) scale(2.17)"/><path d="M85 0H0v100h100V0H85zm0 85H15V15h70v70z" transform="translate(806) scale(2.17)"/></g><g style="fill:#fff"><path style="fill:none" d="M15 15h70v70H15z" transform="matrix(2.17 0 0 2.17 0 806)"/><path d="M85 0H0v100h100V0H85zm0 85H15V15h70v70z" transform="matrix(2.17 0 0 2.17 0 806)"/></g><path d="M0 0h100v100H0z" transform="matrix(.93 0 0 .93 62 62)" style="fill:#fff"/><path d="M0 0h100v100H0z" transform="matrix(.93 0 0 .93 868 62)" style="fill:#fff"/><path d="M0 0h100v100H0z" transform="matrix(.93 0 0 .93 62 868)" style="fill:#fff"/></mask></defs><path fill="url(#a)" mask="url(#b)" d="M0 0h1023v1023H0z" transform="translate(62 62)"/></svg>