<svg xmlns="http://www.w3.org/2000/svg" width="1147" height="1147" xml:space="preserve"><path fill="#FFF" d="M0 0h1147v1147H0z"/><defs transform="translate(62 62)"><linearGradient gradientTransform="rotate(90)" id="a"><stop offset="5%"/><stop offset="95%" stop-color="#0277BD"/></linearGradient><mask id="b"><path d="M0 0h100v100H0z" transform="translate(248) scale(.31)" style="fill:#fff"/><path d="M0 0h100v100H0z" transform="translate(279) scale(.31)" style="fill:#fff"/><path d="M0 0h100v100H0z" transform="translate(403) scale(.31)" style="fill:#fff"/><path d="M0 0h100v100H0z" transform="translate(527) scale(.31)" style="fill:#fff"/><path d="M0 0h100v100H0z" transform="translate(558) scale(.31)" style="fill:#fff"/><path d="M0 0h100v100H0z" transform="translate(589) scale(.31)" style="fill:#fff"/><path d="M0 0h100v100H0z" transform="translate(713) scale(.31)" style="fill:#fff"/><path d="M0 0h100v100H0z" transform="translate(744) scale(.31)" style="fill:#fff"/><path d="M0 0h100v100H0z" transform="matrix(.31 0 0 .31 248 31)" style="fill:#fff"/><path d="M0 0h100v100H0z" transform="matrix(.31 0 0 .31 341 31)" style="fill:#fff"/><path d="M0 0h100v100H0z" transform="matrix(.31 0 0 .31 403 31)" style="fill:#fff"/><path d="M0 0h100v100H0z" transform="matrix(.31 0 0 .31 496 31)" style="fill:#fff"/><path d="M0 0h100v100H0z" transform="matrix(.31 0 0 .31 558 31)" style="fill:#fff"/><path d="M0 0h100v100H0z" transform="matrix(.31 0 0 .31 651 31)" style="fill:#fff"/><path d="M0 0h100v100H0z" transform="matrix(.31 0 0 .31 682 31)" style="fill:#fff"/><path d="M0 0h100v100H0z" transform="matrix(.31 0 0 .31 713 31)" style="fill:#fff"/><path d="M0 0h100v100H0z" transform="matrix(.31 0 0 .31 744 31)" style="fill:#fff"/><path d="M0 0h100v100H0z" transform="matrix(.31 0 0 .31 279 62)" style="fill:#fff"/><path d="M0 0h100v100H0z" transform="matrix(.31 0 0 .31 310 62)" style="fill:#fff"/><path d="M0 0h100v100H0z" transform="matrix(.31 0 0 .31 372 62)" style="fill:#fff"/><path d="M0 0h100v100H0z" transform="matrix(.31 0 0 .31 496 62)" style="fill:#fff"/><path d="M0 0h100v100H0z" transform="matrix(.31 0 0 .31 527 62)" style="fill:#fff"/><path d="M0 0h100v100H0z" transform="matrix(.31 0 0 .31 589 62)" style="fill:#fff"/><path d="M0 0h100v100H0z" transform="matrix(.31 0 0 .31 744 62)" style="fill:#fff"/><path d="M0 0h100v100H0z" transform="matrix(.31 0 0 .31 248 93)" style="fill:#fff"/><path d="M0 0h100v100H0z" transform="matrix(.31 0 0 .31 341 93)" style="fill:#fff"/><path d="M0 0h100v100H0z" transform="matrix(.31 0 0 .31 434 93)" style="fill:#fff"/><path d="M0 0h100v100H0z" transform="matrix(.31 0 0 .31 496 93)" style="fill:#fff"/><path d="M0 0h100v100H0z" transform="matrix(.31 0 0 .31 589 93)" style="fill:#fff"/><path d="M0 0h100v100H0z" transform="matrix(.31 0 0 .31 682 93)" style="fill:#fff"/><path d="M0 0h100v100H0z" transform="matrix(.31 0 0 .31 713 93)" style="fill:#fff"/><path d="M0 0h100v100H0z" transform="matrix(.31 0 0 .31 744 93)" style="fill:#fff"/><path d="M0 0h100v100H0z" transform="matrix(.31 0 0 .31 279 124)" style="fill:#fff"/><path d="M0 0h100v100H0z" transform="matrix(.31 0 0 .31 372 124)" style="fill:#fff"/><path d="M0 0h100v100H0z" transform="matrix(.31 0 0 .31 403 124)" style="fill:#fff"/><path d="M0 0h100v100H0z" transform="matrix(.31 0 0 .31 434 124)" style="fill:#fff"/><path d="M0 0h100v100H0z" transform="matrix(.31 0 0 .31 527 124)" style="fill:#fff"/><path d="M0 0h100v100H0z" transform="matrix(.31 0 0 .31 620 124)" style="fill:#fff"/><path d="M0 0h100v100H0z" transform="matrix(.31 0 0 .31 744 124)" style="fill:#fff"/><path d="M0 0h100v100H0z" transform="matrix(.31 0 0 .31 310 155)" style="fill:#fff"/><path d="M0 0h100v100H0z" transform="matrix(.31 0 0 .31 341 155)" style="fill:#fff"/><path d="M0 0h100v100H0z" transform="matrix(.31 0 0 .31 372 155)" style="fill:#fff"/><path d="M0 0h100v100H0z" transform="matrix(.31 0 0 .31 434 155)" style="fill:#fff"/><path d="M0 0h100v100H0z" transform="matrix(.31 0 0 .31 589 155)" style="fill:#fff"/><path d="M0 0h100v100H0z" transform="matrix(.31 0 0 .31 620 155)" style="fill:#fff"/><path d="M0 0h100v100H0z" transform="matrix(.31 0 0 .31 682 155)" style="fill:#fff"/><path d="M0 0h100v100H0z" transform="matrix(.31 0 0 .31 744 155)" style="fill:#fff"/><path d="M0 0h100v100H0z" transform="matrix(.31 0 0 .31 248 186)" style="fill:#fff"/><path d="M0 0h100v100H0z" transform="matrix(.31 0 0 .31 310 186)" style="fill:#fff"/><path d="M0 0h100v100H0z" transform="matrix(.31 0 0 .31 372 186)" style="fill:#fff"/><path d="M0 0h100v100H0z" transform="matrix(.31 0 0 .31 434 186)" style="fill:#fff"/><path d="M0 0h100v100H0z" transform="matrix(.31 0 0 .31 496 186)" style="fill:#fff"/><path d="M0 0h100v100H0z" transform="matrix(.31 0 0 .31 558 186)" style="fill:#fff"/><path d="M0 0h100v100H0z" transform="matrix(.31 0 0 .31 620 186)" style="fill:#fff"/><path d="M0 0h100v100H0z" transform="matrix(.31 0 0 .31 682 186)" style="fill:#fff"/><path d="M0 0h100v100H0z" transform="matrix(.31 0 0 .31 744 186)" style="fill:#fff"/><path d="M0 0h100v100H0z" transform="matrix(.31 0 0 .31 248 217)" style="fill:#fff"/><path d="M0 0h100v100H0z" transform="matrix(.31 0 0 .31 279 217)" style="fill:#fff"/><path d="M0 0h100v100H0z" transform="matrix(.31 0 0 .31 434 217)" style="fill:#fff"/><path d="M0 0h100v100H0z" transform="matrix(.31 0 0 .31 527 217)" style="fill:#fff"/><path d="M0 0h100v100H0z" transform="matrix(.31 0 0 .31 0 248)" style="fill:#fff"/><path d="M0 0h100v100H0z" transform="matrix(.31 0 0 .31 62 248)" style="fill:#fff"/><path d="M0 0h100v100H0z" transform="matrix(.31 0 0 .31 93 248)" style="fill:#fff"/><path d="M0 0h100v100H0z" transform="matrix(.31 0 0 .31 155 248)" style="fill:#fff"/><path d="M0 0h100v100H0z" transform="matrix(.31 0 0 .31 186 248)" style="fill:#fff"/><path d="M0 0h100v100H0z" transform="matrix(.31 0 0 .31 217 248)" style="fill:#fff"/><path d="M0 0h100v100H0z" transform="matrix(.31 0 0 .31 279 248)" style="fill:#fff"/><path d="M0 0h100v100H0z" transform="matrix(.31 0 0 .31 310 248)" style="fill:#fff"/><path d="M0 0h100v100H0z" transform="matrix(.31 0 0 .31 434 248)" style="fill:#fff"/><path d="M0 0h100v100H0z" transform="matrix(.31 0 0 .31 496 248)" style="fill:#fff"/><path d="M0 0h100v100H0z" transform="matrix(.31 0 0 .31 527 248)" style="fill:#fff"/><path d="M0 0h100v100H0z" transform="matrix(.31 0 0 .31 558 248)" style="fill:#fff"/><path d="M0 0h100v100H0z" transform="matrix(.31 0 0 .31 651 248)" style="fill:#fff"/><path d="M0 0h100v100H0z" transform="matrix(.31 0 0 .31 682 248)" style="fill:#fff"/><path d="M0 0h100v100H0z" transform="matrix(.31 0 0 .31 744 248)" style="fill:#fff"/><path d="M0 0h100v100H0z" transform="matrix(.31 0 0 .31 806 248)" style="fill:#fff"/><path d="M0 0h100v100H0z" transform="matrix(.31 0 0 .31 899 248)" style="fill:#fff"/><path d="M0 0h100v100H0z" transform="matrix(.31 0 0 .31 961 248)" style="fill:#fff"/><path d="M0 0h100v100H0z" transform="matrix(.31 0 0 .31 992 248)" style="fill:#fff"/><path d="M0 0h100v100H0z" transform="matrix(.31 0 0 .31 0 279)" style="fill:#fff"/><path d="M0 0h100v100H0z" transform="matrix(.31 0 0 .31 31 279)" style="fill:#fff"/><path d="M0 0h100v100H0z" transform="matrix(.31 0 0 .31 62 279)" style="fill:#fff"/><path d="M0 0h100v100H0z" transform="matrix(.31 0 0 .31 155 279)" style="fill:#fff"/><path d="M0 0h100v100H0z" transform="matrix(.31 0 0 .31 248 279)" style="fill:#fff"/><path d="M0 0h100v100H0z" transform="matrix(.31 0 0 .31 279 279)" style="fill:#fff"/><path d="M0 0h100v100H0z" transform="matrix(.31 0 0 .31 434 279)" style="fill:#fff"/><path d="M0 0h100v100H0z" transform="matrix(.31 0 0 .31 589 279)" style="fill:#fff"/><path d="M0 0h100v100H0z" transform="matrix(.31 0 0 .31 682 279)" style="fill:#fff"/><path d="M0 0h100v100H0z" transform="matrix(.31 0 0 .31 713 279)" style="fill:#fff"/><path d="M0 0h100v100H0z" transform="matrix(.31 0 0 .31 744 279)" style="fill:#fff"/><path d="M0 0h100v100H0z" transform="matrix(.31 0 0 .31 806 279)" style="fill:#fff"/><path d="M0 0h100v100H0z" transform="matrix(.31 0 0 .31 837 279)" style="fill:#fff"/><path d="M0 0h100v100H0z" transform="matrix(.31 0 0 .31 899 279)" style="fill:#fff"/><path d="M0 0h100v100H0z" transform="matrix(.31 0 0 .31 930 279)" style="fill:#fff"/><path d="M0 0h100v100H0z" transform="matrix(.31 0 0 .31 961 279)" style="fill:#fff"/><path d="M0 0h100v100H0z" transform="matrix(.31 0 0 .31 992 279)" style="fill:#fff"/><path d="M0 0h100v100H0z" transform="matrix(.31 0 0 .31 0 310)" style="fill:#fff"/><path d="M0 0h100v100H0z" transform="matrix(.31 0 0 .31 93 310)" style="fill:#fff"/><path d="M0 0h100v100H0z" transform="matrix(.31 0 0 .31 124 310)" style="fill:#fff"/><path d="M0 0h100v100H0z" transform="matrix(.31 0 0 .31 186 310)" style="fill:#fff"/><path d="M0 0h100v100H0z" transform="matrix(.31 0 0 .31 248 310)" style="fill:#fff"/><path d="M0 0h100v100H0z" transform="matrix(.31 0 0 .31 279 310)" style="fill:#fff"/><path d="M0 0h100v100H0z" transform="matrix(.31 0 0 .31 310 310)" style="fill:#fff"/><path d="M0 0h100v100H0z" transform="matrix(.31 0 0 .31 341 310)" style="fill:#fff"/><path d="M0 0h100v100H0z" transform="matrix(.31 0 0 .31 372 310)" style="fill:#fff"/><path d="M0 0h100v100H0z" transform="matrix(.31 0 0 .31 434 310)" style="fill:#fff"/><path d="M0 0h100v100H0z" transform="matrix(.31 0 0 .31 527 310)" style="fill:#fff"/><path d="M0 0h100v100H0z" transform="matrix(.31 0 0 .31 682 310)" style="fill:#fff"/><path d="M0 0h100v100H0z" transform="matrix(.31 0 0 .31 713 310)" style="fill:#fff"/><path d="M0 0h100v100H0z" transform="matrix(.31 0 0 .31 806 310)" style="fill:#fff"/><path d="M0 0h100v100H0z" transform="matrix(.31 0 0 .31 899 310)" style="fill:#fff"/><path d="M0 0h100v100H0z" transform="matrix(.31 0 0 .31 930 310)" style="fill:#fff"/><path d="M0 0h100v100H0z" transform="matrix(.31 0 0 .31 961 310)" style="fill:#fff"/><path d="M0 0h100v100H0z" transform="matrix(.31 0 0 .31 992 310)" style="fill:#fff"/><path d="M0 0h100v100H0z" transform="matrix(.31 0 0 .31 31 341)" style="fill:#fff"/><path d="M0 0h100v100H0z" transform="matrix(.31 0 0 .31 62 341)" style="fill:#fff"/><path d="M0 0h100v100H0z" transform="matrix(.31 0 0 .31 93 341)" style="fill:#fff"/><path d="M0 0h100v100H0z" transform="matrix(.31 0 0 .31 279 341)" style="fill:#fff"/><path d="M0 0h100v100H0z" transform="matrix(.31 0 0 .31 372 341)" style="fill:#fff"/><path d="M0 0h100v100H0z" transform="matrix(.31 0 0 .31 403 341)" style="fill:#fff"/><path d="M0 0h100v100H0z" transform="matrix(.31 0 0 .31 434 341)" style="fill:#fff"/><path d="M0 0h100v100H0z" transform="matrix(.31 0 0 .31 496 341)" style="fill:#fff"/><path d="M0 0h100v100H0z" transform="matrix(.31 0 0 .31 558 341)" style="fill:#fff"/><path d="M0 0h100v100H0z" transform="matrix(.31 0 0 .31 589 341)" style="fill:#fff"/><path d="M0 0h100v100H0z" transform="matrix(.31 0 0 .31 620 341)" style="fill:#fff"/><path d="M0 0h100v100H0z" transform="matrix(.31 0 0 .31 775 341)" style="fill:#fff"/><path d="M0 0h100v100H0z" transform="matrix(.31 0 0 .31 806 341)" style="fill:#fff"/><path d="M0 0h100v100H0z" transform="matrix(.31 0 0 .31 837 341)" style="fill:#fff"/><path d="M0 0h100v100H0z" transform="matrix(.31 0 0 .31 868 341)" style="fill:#fff"/><path d="M0 0h100v100H0z" transform="matrix(.31 0 0 .31 992 341)" style="fill:#fff"/><path d="M0 0h100v100H0z" transform="matrix(.31 0 0 .31 31 372)" style="fill:#fff"/><path d="M0 0h100v100H0z" transform="matrix(.31 0 0 .31 62 372)" style="fill:#fff"/><path d="M0 0h100v100H0z" transform="matrix(.31 0 0 .31 93 372)" style="fill:#fff"/><path d="M0 0h100v100H0z" transform="matrix(.31 0 0 .31 155 372)" style="fill:#fff"/><path d="M0 0h100v100H0z" transform="matrix(.31 0 0 .31 186 372)" style="fill:#fff"/><path d="M0 0h100v100H0z" transform="matrix(.31 0 0 .31 248 372)" style="fill:#fff"/><path d="M0 0h100v100H0z" transform="matrix(.31 0 0 .31 279 372)" style="fill:#fff"/><path d="M0 0h100v100H0z" transform="matrix(.31 0 0 .31 341 372)" style="fill:#fff"/><path d="M0 0h100v100H0z" transform="matrix(.31 0 0 .31 558 372)" style="fill:#fff"/><path d="M0 0h100v100H0z" transform="matrix(.31 0 0 .31 620 372)" style="fill:#fff"/><path d="M0 0h100v100H0z" transform="matrix(.31 0 0 .31 682 372)" style="fill:#fff"/><path d="M0 0h100v100H0z" transform="matrix(.31 0 0 .31 775 372)" style="fill:#fff"/><path d="M0 0h100v100H0z" transform="matrix(.31 0 0 .31 837 372)" style="fill:#fff"/><path d="M0 0h100v100H0z" transform="matrix(.31 0 0 .31 868 372)" style="fill:#fff"/><path d="M0 0h100v100H0z" transform="matrix(.31 0 0 .31 961 372)" style="fill:#fff"/><path d="M0 0h100v100H0z" transform="matrix(.31 0 0 .31 992 372)" style="fill:#fff"/><path d="M0 0h100v100H0z" transform="matrix(.31 0 0 .31 0 403)" style="fill:#fff"/><path d="M0 0h100v100H0z" transform="matrix(.31 0 0 .31 31 403)" style="fill:#fff"/><path d="M0 0h100v100H0z" transform="matrix(.31 0 0 .31 62 403)" style="fill:#fff"/><path d="M0 0h100v100H0z" transform="matrix(.31 0 0 .31 155 403)" style="fill:#fff"/><path d="M0 0h100v100H0z" transform="matrix(.31 0 0 .31 496 403)" style="fill:#fff"/><path d="M0 0h100v100H0z" transform="matrix(.31 0 0 .31 558 403)" style="fill:#fff"/><path d="M0 0h100v100H0z" transform="matrix(.31 0 0 .31 589 403)" style="fill:#fff"/><path d="M0 0h100v100H0z" transform="matrix(.31 0 0 .31 651 403)" style="fill:#fff"/><path d="M0 0h100v100H0z" transform="matrix(.31 0 0 .31 744 403)" style="fill:#fff"/><path d="M0 0h100v100H0z" transform="matrix(.31 0 0 .31 837 403)" style="fill:#fff"/><path d="M0 0h100v100H0z" transform="matrix(.31 0 0 .31 899 403)" style="fill:#fff"/><path d="M0 0h100v100H0z" transform="matrix(.31 0 0 .31 62 434)" style="fill:#fff"/><path d="M0 0h100v100H0z" transform="matrix(.31 0 0 .31 124 434)" style="fill:#fff"/><path d="M0 0h100v100H0z" transform="matrix(.31 0 0 .31 186 434)" style="fill:#fff"/><path d="M0 0h100v100H0z" transform="matrix(.31 0 0 .31 279 434)" style="fill:#fff"/><path d="M0 0h100v100H0z" transform="matrix(.31 0 0 .31 310 434)" style="fill:#fff"/><path d="M0 0h100v100H0z" transform="matrix(.31 0 0 .31 372 434)" style="fill:#fff"/><path d="M0 0h100v100H0z" transform="matrix(.31 0 0 .31 465 434)" style="fill:#fff"/><path d="M0 0h100v100H0z" transform="matrix(.31 0 0 .31 496 434)" style="fill:#fff"/><path d="M0 0h100v100H0z" transform="matrix(.31 0 0 .31 527 434)" style="fill:#fff"/><path d="M0 0h100v100H0z" transform="matrix(.31 0 0 .31 589 434)" style="fill:#fff"/><path d="M0 0h100v100H0z" transform="matrix(.31 0 0 .31 744 434)" style="fill:#fff"/><path d="M0 0h100v100H0z" transform="matrix(.31 0 0 .31 775 434)" style="fill:#fff"/><path d="M0 0h100v100H0z" transform="matrix(.31 0 0 .31 806 434)" style="fill:#fff"/><path d="M0 0h100v100H0z" transform="matrix(.31 0 0 .31 0 465)" style="fill:#fff"/><path d="M0 0h100v100H0z" transform="matrix(.31 0 0 .31 62 465)" style="fill:#fff"/><path d="M0 0h100v100H0z" transform="matrix(.31 0 0 .31 93 465)" style="fill:#fff"/><path d="M0 0h100v100H0z" transform="matrix(.31 0 0 .31 124 465)" style="fill:#fff"/><path d="M0 0h100v100H0z" transform="matrix(.31 0 0 .31 217 465)" style="fill:#fff"/><path d="M0 0h100v100H0z" transform="matrix(.31 0 0 .31 248 465)" style="fill:#fff"/><path d="M0 0h100v100H0z" transform="matrix(.31 0 0 .31 310 465)" style="fill:#fff"/><path d="M0 0h100v100H0z" transform="matrix(.31 0 0 .31 341 465)" style="fill:#fff"/><path d="M0 0h100v100H0z" transform="matrix(.31 0 0 .31 372 465)" style="fill:#fff"/><path d="M0 0h100v100H0z" transform="matrix(.31 0 0 .31 403 465)" style="fill:#fff"/><path d="M0 0h100v100H0z" transform="matrix(.31 0 0 .31 496 465)" style="fill:#fff"/><path d="M0 0h100v100H0z" transform="matrix(.31 0 0 .31 589 465)" style="fill:#fff"/><path d="M0 0h100v100H0z" transform="matrix(.31 0 0 .31 651 465)" style="fill:#fff"/><path d="M0 0h100v100H0z" transform="matrix(.31 0 0 .31 682 465)" style="fill:#fff"/><path d="M0 0h100v100H0z" transform="matrix(.31 0 0 .31 837 465)" style="fill:#fff"/><path d="M0 0h100v100H0z" transform="matrix(.31 0 0 .31 868 465)" style="fill:#fff"/><path d="M0 0h100v100H0z" transform="matrix(.31 0 0 .31 930 465)" style="fill:#fff"/><path d="M0 0h100v100H0z" transform="matrix(.31 0 0 .31 961 465)" style="fill:#fff"/><path d="M0 0h100v100H0z" transform="matrix(.31 0 0 .31 0 496)" style="fill:#fff"/><path d="M0 0h100v100H0z" transform="matrix(.31 0 0 .31 31 496)" style="fill:#fff"/><path d="M0 0h100v100H0z" transform="matrix(.31 0 0 .31 124 496)" style="fill:#fff"/><path d="M0 0h100v100H0z" transform="matrix(.31 0 0 .31 155 496)" style="fill:#fff"/><path d="M0 0h100v100H0z" transform="matrix(.31 0 0 .31 186 496)" style="fill:#fff"/><path d="M0 0h100v100H0z" transform="matrix(.31 0 0 .31 279 496)" style="fill:#fff"/><path d="M0 0h100v100H0z" transform="matrix(.31 0 0 .31 310 496)" style="fill:#fff"/><path d="M0 0h100v100H0z" transform="matrix(.31 0 0 .31 341 496)" style="fill:#fff"/><path d="M0 0h100v100H0z" transform="matrix(.31 0 0 .31 372 496)" style="fill:#fff"/><path d="M0 0h100v100H0z" transform="matrix(.31 0 0 .31 465 496)" style="fill:#fff"/><path d="M0 0h100v100H0z" transform="matrix(.31 0 0 .31 527 496)" style="fill:#fff"/><path d="M0 0h100v100H0z" transform="matrix(.31 0 0 .31 589 496)" style="fill:#fff"/><path d="M0 0h100v100H0z" transform="matrix(.31 0 0 .31 620 496)" style="fill:#fff"/><path d="M0 0h100v100H0z" transform="matrix(.31 0 0 .31 651 496)" style="fill:#fff"/><path d="M0 0h100v100H0z" transform="matrix(.31 0 0 .31 713 496)" style="fill:#fff"/><path d="M0 0h100v100H0z" transform="matrix(.31 0 0 .31 806 496)" style="fill:#fff"/><path d="M0 0h100v100H0z" transform="matrix(.31 0 0 .31 868 496)" style="fill:#fff"/><path d="M0 0h100v100H0z" transform="matrix(.31 0 0 .31 899 496)" style="fill:#fff"/><path d="M0 0h100v100H0z" transform="matrix(.31 0 0 .31 930 496)" style="fill:#fff"/><path d="M0 0h100v100H0z" transform="matrix(.31 0 0 .31 0 527)" style="fill:#fff"/><path d="M0 0h100v100H0z" transform="matrix(.31 0 0 .31 31 527)" style="fill:#fff"/><path d="M0 0h100v100H0z" transform="matrix(.31 0 0 .31 62 527)" style="fill:#fff"/><path d="M0 0h100v100H0z" transform="matrix(.31 0 0 .31 124 527)" style="fill:#fff"/><path d="M0 0h100v100H0z" transform="matrix(.31 0 0 .31 248 527)" style="fill:#fff"/><path d="M0 0h100v100H0z" transform="matrix(.31 0 0 .31 279 527)" style="fill:#fff"/><path d="M0 0h100v100H0z" transform="matrix(.31 0 0 .31 372 527)" style="fill:#fff"/><path d="M0 0h100v100H0z" transform="matrix(.31 0 0 .31 403 527)" style="fill:#fff"/><path d="M0 0h100v100H0z" transform="matrix(.31 0 0 .31 465 527)" style="fill:#fff"/><path d="M0 0h100v100H0z" transform="matrix(.31 0 0 .31 496 527)" style="fill:#fff"/><path d="M0 0h100v100H0z" transform="matrix(.31 0 0 .31 527 527)" style="fill:#fff"/><path d="M0 0h100v100H0z" transform="matrix(.31 0 0 .31 620 527)" style="fill:#fff"/><path d="M0 0h100v100H0z" transform="matrix(.31 0 0 .31 682 527)" style="fill:#fff"/><path d="M0 0h100v100H0z" transform="matrix(.31 0 0 .31 713 527)" style="fill:#fff"/><path d="M0 0h100v100H0z" transform="matrix(.31 0 0 .31 775 527)" style="fill:#fff"/><path d="M0 0h100v100H0z" transform="matrix(.31 0 0 .31 806 527)" style="fill:#fff"/><path d="M0 0h100v100H0z" transform="matrix(.31 0 0 .31 837 527)" style="fill:#fff"/><path d="M0 0h100v100H0z" transform="matrix(.31 0 0 .31 868 527)" style="fill:#fff"/><path d="M0 0h100v100H0z" transform="matrix(.31 0 0 .31 961 527)" style="fill:#fff"/><path d="M0 0h100v100H0z" transform="matrix(.31 0 0 .31 992 527)" style="fill:#fff"/><path d="M0 0h100v100H0z" transform="matrix(.31 0 0 .31 31 558)" style="fill:#fff"/><path d="M0 0h100v100H0z" transform="matrix(.31 0 0 .31 62 558)" style="fill:#fff"/><path d="M0 0h100v100H0z" transform="matrix(.31 0 0 .31 124 558)" style="fill:#fff"/><path d="M0 0h100v100H0z" transform="matrix(.31 0 0 .31 155 558)" style="fill:#fff"/><path d="M0 0h100v100H0z" transform="matrix(.31 0 0 .31 186 558)" style="fill:#fff"/><path d="M0 0h100v100H0z" transform="matrix(.31 0 0 .31 217 558)" style="fill:#fff"/><path d="M0 0h100v100H0z" transform="matrix(.31 0 0 .31 248 558)" style="fill:#fff"/><path d="M0 0h100v100H0z" transform="matrix(.31 0 0 .31 279 558)" style="fill:#fff"/><path d="M0 0h100v100H0z" transform="matrix(.31 0 0 .31 341 558)" style="fill:#fff"/><path d="M0 0h100v100H0z" transform="matrix(.31 0 0 .31 403 558)" style="fill:#fff"/><path d="M0 0h100v100H0z" transform="matrix(.31 0 0 .31 465 558)" style="fill:#fff"/><path d="M0 0h100v100H0z" transform="matrix(.31 0 0 .31 527 558)" style="fill:#fff"/><path d="M0 0h100v100H0z" transform="matrix(.31 0 0 .31 620 558)" style="fill:#fff"/><path d="M0 0h100v100H0z" transform="matrix(.31 0 0 .31 651 558)" style="fill:#fff"/><path d="M0 0h100v100H0z" transform="matrix(.31 0 0 .31 682 558)" style="fill:#fff"/><path d="M0 0h100v100H0z" transform="matrix(.31 0 0 .31 775 558)" style="fill:#fff"/><path d="M0 0h100v100H0z" transform="matrix(.31 0 0 .31 930 558)" style="fill:#fff"/><path d="M0 0h100v100H0z" transform="matrix(.31 0 0 .31 961 558)" style="fill:#fff"/><path d="M0 0h100v100H0z" transform="matrix(.31 0 0 .31 62 589)" style="fill:#fff"/><path d="M0 0h100v100H0z" transform="matrix(.31 0 0 .31 124 589)" style="fill:#fff"/><path d="M0 0h100v100H0z" transform="matrix(.31 0 0 .31 217 589)" style="fill:#fff"/><path d="M0 0h100v100H0z" transform="matrix(.31 0 0 .31 372 589)" style="fill:#fff"/><path d="M0 0h100v100H0z" transform="matrix(.31 0 0 .31 434 589)" style="fill:#fff"/><path d="M0 0h100v100H0z" transform="matrix(.31 0 0 .31 496 589)" style="fill:#fff"/><path d="M0 0h100v100H0z" transform="matrix(.31 0 0 .31 682 589)" style="fill:#fff"/><path d="M0 0h100v100H0z" transform="matrix(.31 0 0 .31 713 589)" style="fill:#fff"/><path d="M0 0h100v100H0z" transform="matrix(.31 0 0 .31 744 589)" style="fill:#fff"/><path d="M0 0h100v100H0z" transform="matrix(.31 0 0 .31 775 589)" style="fill:#fff"/><path d="M0 0h100v100H0z" transform="matrix(.31 0 0 .31 806 589)" style="fill:#fff"/><path d="M0 0h100v100H0z" transform="matrix(.31 0 0 .31 899 589)" style="fill:#fff"/><path d="M0 0h100v100H0z" transform="matrix(.31 0 0 .31 992 589)" style="fill:#fff"/><path d="M0 0h100v100H0z" transform="matrix(.31 0 0 .31 0 620)" style="fill:#fff"/><path d="M0 0h100v100H0z" transform="matrix(.31 0 0 .31 62 620)" style="fill:#fff"/><path d="M0 0h100v100H0z" transform="matrix(.31 0 0 .31 124 620)" style="fill:#fff"/><path d="M0 0h100v100H0z" transform="matrix(.31 0 0 .31 186 620)" style="fill:#fff"/><path d="M0 0h100v100H0z" transform="matrix(.31 0 0 .31 279 620)" style="fill:#fff"/><path d="M0 0h100v100H0z" transform="matrix(.31 0 0 .31 310 620)" style="fill:#fff"/><path d="M0 0h100v100H0z" transform="matrix(.31 0 0 .31 341 620)" style="fill:#fff"/><path d="M0 0h100v100H0z" transform="matrix(.31 0 0 .31 558 620)" style="fill:#fff"/><path d="M0 0h100v100H0z" transform="matrix(.31 0 0 .31 589 620)" style="fill:#fff"/><path d="M0 0h100v100H0z" transform="matrix(.31 0 0 .31 651 620)" style="fill:#fff"/><path d="M0 0h100v100H0z" transform="matrix(.31 0 0 .31 682 620)" style="fill:#fff"/><path d="M0 0h100v100H0z" transform="matrix(.31 0 0 .31 713 620)" style="fill:#fff"/><path d="M0 0h100v100H0z" transform="matrix(.31 0 0 .31 868 620)" style="fill:#fff"/><path d="M0 0h100v100H0z" transform="matrix(.31 0 0 .31 930 620)" style="fill:#fff"/><path d="M0 0h100v100H0z" transform="matrix(.31 0 0 .31 0 651)" style="fill:#fff"/><path d="M0 0h100v100H0z" transform="matrix(.31 0 0 .31 31 651)" style="fill:#fff"/><path d="M0 0h100v100H0z" transform="matrix(.31 0 0 .31 62 651)" style="fill:#fff"/><path d="M0 0h100v100H0z" transform="matrix(.31 0 0 .31 124 651)" style="fill:#fff"/><path d="M0 0h100v100H0z" transform="matrix(.31 0 0 .31 248 651)" style="fill:#fff"/><path d="M0 0h100v100H0z" transform="matrix(.31 0 0 .31 279 651)" style="fill:#fff"/><path d="M0 0h100v100H0z" transform="matrix(.31 0 0 .31 310 651)" style="fill:#fff"/><path d="M0 0h100v100H0z" transform="matrix(.31 0 0 .31 372 651)" style="fill:#fff"/><path d="M0 0h100v100H0z" transform="matrix(.31 0 0 .31 434 651)" style="fill:#fff"/><path d="M0 0h100v100H0z" transform="matrix(.31 0 0 .31 465 651)" style="fill:#fff"/><path d="M0 0h100v100H0z" transform="matrix(.31 0 0 .31 527 651)" style="fill:#fff"/><path d="M0 0h100v100H0z" transform="matrix(.31 0 0 .31 558 651)" style="fill:#fff"/><path d="M0 0h100v100H0z" transform="matrix(.31 0 0 .31 651 651)" style="fill:#fff"/><path d="M0 0h100v100H0z" transform="matrix(.31 0 0 .31 713 651)" style="fill:#fff"/><path d="M0 0h100v100H0z" transform="matrix(.31 0 0 .31 837 651)" style="fill:#fff"/><path d="M0 0h100v100H0z" transform="matrix(.31 0 0 .31 992 651)" style="fill:#fff"/><path d="M0 0h100v100H0z" transform="matrix(.31 0 0 .31 62 682)" style="fill:#fff"/><path d="M0 0h100v100H0z" transform="matrix(.31 0 0 .31 93 682)" style="fill:#fff"/><path d="M0 0h100v100H0z" transform="matrix(.31 0 0 .31 186 682)" style="fill:#fff"/><path d="M0 0h100v100H0z" transform="matrix(.31 0 0 .31 279 682)" style="fill:#fff"/><path d="M0 0h100v100H0z" transform="matrix(.31 0 0 .31 403 682)" style="fill:#fff"/><path d="M0 0h100v100H0z" transform="matrix(.31 0 0 .31 434 682)" style="fill:#fff"/><path d="M0 0h100v100H0z" transform="matrix(.31 0 0 .31 496 682)" style="fill:#fff"/><path d="M0 0h100v100H0z" transform="matrix(.31 0 0 .31 713 682)" style="fill:#fff"/><path d="M0 0h100v100H0z" transform="matrix(.31 0 0 .31 744 682)" style="fill:#fff"/><path d="M0 0h100v100H0z" transform="matrix(.31 0 0 .31 837 682)" style="fill:#fff"/><path d="M0 0h100v100H0z" transform="matrix(.31 0 0 .31 868 682)" style="fill:#fff"/><path d="M0 0h100v100H0z" transform="matrix(.31 0 0 .31 899 682)" style="fill:#fff"/><path d="M0 0h100v100H0z" transform="matrix(.31 0 0 .31 961 682)" style="fill:#fff"/><path d="M0 0h100v100H0z" transform="matrix(.31 0 0 .31 992 682)" style="fill:#fff"/><path d="M0 0h100v100H0z" transform="matrix(.31 0 0 .31 31 713)" style="fill:#fff"/><path d="M0 0h100v100H0z" transform="matrix(.31 0 0 .31 93 713)" style="fill:#fff"/><path d="M0 0h100v100H0z" transform="matrix(.31 0 0 .31 217 713)" style="fill:#fff"/><path d="M0 0h100v100H0z" transform="matrix(.31 0 0 .31 248 713)" style="fill:#fff"/><path d="M0 0h100v100H0z" transform="matrix(.31 0 0 .31 403 713)" style="fill:#fff"/><path d="M0 0h100v100H0z" transform="matrix(.31 0 0 .31 496 713)" style="fill:#fff"/><path d="M0 0h100v100H0z" transform="matrix(.31 0 0 .31 682 713)" style="fill:#fff"/><path d="M0 0h100v100H0z" transform="matrix(.31 0 0 .31 713 713)" style="fill:#fff"/><path d="M0 0h100v100H0z" transform="matrix(.31 0 0 .31 744 713)" style="fill:#fff"/><path d="M0 0h100v100H0z" transform="matrix(.31 0 0 .31 961 713)" style="fill:#fff"/><path d="M0 0h100v100H0z" transform="matrix(.31 0 0 .31 0 744)" style="fill:#fff"/><path d="M0 0h100v100H0z" transform="matrix(.31 0 0 .31 186 744)" style="fill:#fff"/><path d="M0 0h100v100H0z" transform="matrix(.31 0 0 .31 341 744)" style="fill:#fff"/><path d="M0 0h100v100H0z" transform="matrix(.31 0 0 .31 372 744)" style="fill:#fff"/><path d="M0 0h100v100H0z" transform="matrix(.31 0 0 .31 465 744)" style="fill:#fff"/><path d="M0 0h100v100H0z" transform="matrix(.31 0 0 .31 527 744)" style="fill:#fff"/><path d="M0 0h100v100H0z" transform="matrix(.31 0 0 .31 589 744)" style="fill:#fff"/><path d="M0 0h100v100H0z" transform="matrix(.31 0 0 .31 620 744)" style="fill:#fff"/><path d="M0 0h100v100H0z" transform="matrix(.31 0 0 .31 682 744)" style="fill:#fff"/><path d="M0 0h100v100H0z" transform="matrix(.31 0 0 .31 744 744)" style="fill:#fff"/><path d="M0 0h100v100H0z" transform="matrix(.31 0 0 .31 775 744)" style="fill:#fff"/><path d="M0 0h100v100H0z" transform="matrix(.31 0 0 .31 806 744)" style="fill:#fff"/><path d="M0 0h100v100H0z" transform="matrix(.31 0 0 .31 837 744)" style="fill:#fff"/><path d="M0 0h100v100H0z" transform="matrix(.31 0 0 .31 868 744)" style="fill:#fff"/><path d="M0 0h100v100H0z" transform="matrix(.31 0 0 .31 961 744)" style="fill:#fff"/><path d="M0 0h100v100H0z" transform="matrix(.31 0 0 .31 248 775)" style="fill:#fff"/><path d="M0 0h100v100H0z" transform="matrix(.31 0 0 .31 279 775)" style="fill:#fff"/><path d="M0 0h100v100H0z" transform="matrix(.31 0 0 .31 310 775)" style="fill:#fff"/><path d="M0 0h100v100H0z" transform="matrix(.31 0 0 .31 403 775)" style="fill:#fff"/><path d="M0 0h100v100H0z" transform="matrix(.31 0 0 .31 465 775)" style="fill:#fff"/><path d="M0 0h100v100H0z" transform="matrix(.31 0 0 .31 496 775)" style="fill:#fff"/><path d="M0 0h100v100H0z" transform="matrix(.31 0 0 .31 527 775)" style="fill:#fff"/><path d="M0 0h100v100H0z" transform="matrix(.31 0 0 .31 558 775)" style="fill:#fff"/><path d="M0 0h100v100H0z" transform="matrix(.31 0 0 .31 589 775)" style="fill:#fff"/><path d="M0 0h100v100H0z" transform="matrix(.31 0 0 .31 651 775)" style="fill:#fff"/><path d="M0 0h100v100H0z" transform="matrix(.31 0 0 .31 682 775)" style="fill:#fff"/><path d="M0 0h100v100H0z" transform="matrix(.31 0 0 .31 744 775)" style="fill:#fff"/><path d="M0 0h100v100H0z" transform="matrix(.31 0 0 .31 868 775)" style="fill:#fff"/><path d="M0 0h100v100H0z" transform="matrix(.31 0 0 .31 899 775)" style="fill:#fff"/><path d="M0 0h100v100H0z" transform="matrix(.31 0 0 .31 930 775)" style="fill:#fff"/><path d="M0 0h100v100H0z" transform="matrix(.31 0 0 .31 961 775)" style="fill:#fff"/><path d="M0 0h100v100H0z" transform="matrix(.31 0 0 .31 248 806)" style="fill:#fff"/><path d="M0 0h100v100H0z" transform="matrix(.31 0 0 .31 279 806)" style="fill:#fff"/><path d="M0 0h100v100H0z" transform="matrix(.31 0 0 .31 341 806)" style="fill:#fff"/><path d="M0 0h100v100H0z" transform="matrix(.31 0 0 .31 403 806)" style="fill:#fff"/><path d="M0 0h100v100H0z" transform="matrix(.31 0 0 .31 589 806)" style="fill:#fff"/><path d="M0 0h100v100H0z" transform="matrix(.31 0 0 .31 682 806)" style="fill:#fff"/><path d="M0 0h100v100H0z" transform="matrix(.31 0 0 .31 713 806)" style="fill:#fff"/><path d="M0 0h100v100H0z" transform="matrix(.31 0 0 .31 744 806)" style="fill:#fff"/><path d="M0 0h100v100H0z" transform="matrix(.31 0 0 .31 806 806)" style="fill:#fff"/><path d="M0 0h100v100H0z" transform="matrix(.31 0 0 .31 868 806)" style="fill:#fff"/><path d="M0 0h100v100H0z" transform="matrix(.31 0 0 .31 248 837)" style="fill:#fff"/><path d="M0 0h100v100H0z" transform="matrix(.31 0 0 .31 279 837)" style="fill:#fff"/><path d="M0 0h100v100H0z" transform="matrix(.31 0 0 .31 465 837)" style="fill:#fff"/><path d="M0 0h100v100H0z" transform="matrix(.31 0 0 .31 589 837)" style="fill:#fff"/><path d="M0 0h100v100H0z" transform="matrix(.31 0 0 .31 651 837)" style="fill:#fff"/><path d="M0 0h100v100H0z" transform="matrix(.31 0 0 .31 744 837)" style="fill:#fff"/><path d="M0 0h100v100H0z" transform="matrix(.31 0 0 .31 868 837)" style="fill:#fff"/><path d="M0 0h100v100H0z" transform="matrix(.31 0 0 .31 899 837)" style="fill:#fff"/><path d="M0 0h100v100H0z" transform="matrix(.31 0 0 .31 930 837)" style="fill:#fff"/><path d="M0 0h100v100H0z" transform="matrix(.31 0 0 .31 961 837)" style="fill:#fff"/><path d="M0 0h100v100H0z" transform="matrix(.31 0 0 .31 992 837)" style="fill:#fff"/><path d="M0 0h100v100H0z" transform="matrix(.31 0 0 .31 279 868)" style="fill:#fff"/><path d="M0 0h100v100H0z" transform="matrix(.31 0 0 .31 372 868)" style="fill:#fff"/><path d="M0 0h100v100H0z" transform="matrix(.31 0 0 .31 527 868)" style="fill:#fff"/><path d="M0 0h100v100H0z" transform="matrix(.31 0 0 .31 651 868)" style="fill:#fff"/><path d="M0 0h100v100H0z" transform="matrix(.31 0 0 .31 713 868)" style="fill:#fff"/><path d="M0 0h100v100H0z" transform="matrix(.31 0 0 .31 744 868)" style="fill:#fff"/><path d="M0 0h100v100H0z" transform="matrix(.31 0 0 .31 775 868)" style="fill:#fff"/><path d="M0 0h100v100H0z" transform="matrix(.31 0 0 .31 806 868)" style="fill:#fff"/><path d="M0 0h100v100H0z" transform="matrix(.31 0 0 .31 837 868)" style="fill:#fff"/><path d="M0 0h100v100H0z" transform="matrix(.31 0 0 .31 868 868)" style="fill:#fff"/><path d="M0 0h100v100H0z" transform="matrix(.31 0 0 .31 930 868)" style="fill:#fff"/><path d="M0 0h100v100H0z" transform="matrix(.31 0 0 .31 992 868)" style="fill:#fff"/><path d="M0 0h100v100H0z" transform="matrix(.31 0 0 .31 248 899)" style="fill:#fff"/><path d="M0 0h100v100H0z" transform="matrix(.31 0 0 .31 341 899)" style="fill:#fff"/><path d="M0 0h100v100H0z" transform="matrix(.31 0 0 .31 434 899)" style="fill:#fff"/><path d="M0 0h100v100H0z" transform="matrix(.31 0 0 .31 558 899)" style="fill:#fff"/><path d="M0 0h100v100H0z" transform="matrix(.31 0 0 .31 682 899)" style="fill:#fff"/><path d="M0 0h100v100H0z" transform="matrix(.31 0 0 .31 775 899)" style="fill:#fff"/><path d="M0 0h100v100H0z" transform="matrix(.31 0 0 .31 930 899)" style="fill:#fff"/><path d="M0 0h100v100H0z" transform="matrix(.31 0 0 .31 992 899)" style="fill:#fff"/><path d="M0 0h100v100H0z" transform="matrix(.31 0 0 .31 248 930)" style="fill:#fff"/><path d="M0 0h100v100H0z" transform="matrix(.31 0 0 .31 310 930)" style="fill:#fff"/><path d="M0 0h100v100H0z" transform="matrix(.31 0 0 .31 341 930)" style="fill:#fff"/><path d="M0 0h100v100H0z" transform="matrix(.31 0 0 .31 372 930)" style="fill:#fff"/><path d="M0 0h100v100H0z" transform="matrix(.31 0 0 .31 434 930)" style="fill:#fff"/><path d="M0 0h100v100H0z" transform="matrix(.31 0 0 .31 527 930)" style="fill:#fff"/><path d="M0 0h100v100H0z" transform="matrix(.31 0 0 .31 558 930)" style="fill:#fff"/><path d="M0 0h100v100H0z" transform="matrix(.31 0 0 .31 620 930)" style="fill:#fff"/><path d="M0 0h100v100H0z" transform="matrix(.31 0 0 .31 651 930)" style="fill:#fff"/><path d="M0 0h100v100H0z" transform="matrix(.31 0 0 .31 682 930)" style="fill:#fff"/><path d="M0 0h100v100H0z" transform="matrix(.31 0 0 .31 744 930)" style="fill:#fff"/><path d="M0 0h100v100H0z" transform="matrix(.31 0 0 .31 806 930)" style="fill:#fff"/><path d="M0 0h100v100H0z" transform="matrix(.31 0 0 .31 899 930)" style="fill:#fff"/><path d="M0 0h100v100H0z" transform="matrix(.31 0 0 .31 930 930)" style="fill:#fff"/><path d="M0 0h100v100H0z" transform="matrix(.31 0 0 .31 341 961)" style="fill:#fff"/><path d="M0 0h100v100H0z" transform="matrix(.31 0 0 .31 465 961)" style="fill:#fff"/><path d="M0 0h100v100H0z" transform="matrix(.31 0 0 .31 496 961)" style="fill:#fff"/><path d="M0 0h100v100H0z" transform="matrix(.31 0 0 .31 527 961)" style="fill:#fff"/><path d="M0 0h100v100H0z" transform="matrix(.31 0 0 .31 558 961)" style="fill:#fff"/><path d="M0 0h100v100H0z" transform="matrix(.31 0 0 .31 620 961)" style="fill:#fff"/><path d="M0 0h100v100H0z" transform="matrix(.31 0 0 .31 744 961)" style="fill:#fff"/><path d="M0 0h100v100H0z" transform="matrix(.31 0 0 .31 806 961)" style="fill:#fff"/><path d="M0 0h100v100H0z" transform="matrix(.31 0 0 .31 837 961)" style="fill:#fff"/><path d="M0 0h100v100H0z" transform="matrix(.31 0 0 .31 868 961)" style="fill:#fff"/><path d="M0 0h100v100H0z" transform="matrix(.31 0 0 .31 899 961)" style="fill:#fff"/><path d="M0 0h100v100H0z" transform="matrix(.31 0 0 .31 992 961)" style="fill:#fff"/><path d="M0 0h100v100H0z" transform="matrix(.31 0 0 .31 248 992)" style="fill:#fff"/><path d="M0 0h100v100H0z" transform="matrix(.31 0 0 .31 341 992)" style="fill:#fff"/><path d="M0 0h100v100H0z" transform="matrix(.31 0 0 .31 372 992)" style="fill:#fff"/><path d="M0 0h100v100H0z" transform="matrix(.31 0 0 .31 403 992)" style="fill:#fff"/><path d="M0 0h100v100H0z" transform="matrix(.31 0 0 .31 465 992)" style="fill:#fff"/><path d="M0 0h100v100H0z" transform="matrix(.31 0 0 .31 496 992)" style="fill:#fff"/><path d="M0 0h100v100H0z" transform="matrix(.31 0 0 .31 527 992)" style="fill:#fff"/><path d="M0 0h100v100H0z" transform="matrix(.31 0 0 .31 558 992)" style="fill:#fff"/><path d="M0 0h100v100H0z" transform="matrix(.31 0 0 .31 620 992)" style="fill:#fff"/><path d="M0 0h100v100H0z" transform="matrix(.31 0 0 .31 651 992)" style="fill:#fff"/><path d="M0 0h100v100H0z" transform="matrix(.31 0 0 .31 713 992)" style="fill:#fff"/><path d="M0 0h100v100H0z" transform="matrix(.31 0 0 .31 868 992)" style="fill:#fff"/><path d="M0 0h100v100H0z" transform="matrix(.31 0 0 .31 899 992)" style="fill:#fff"/><path d="M0 0h100v100H0z" transform="matrix(.31 0 0 .31 930 992)" style="fill:#fff"/><path d="M38.806 99.939c-6.634.002-13.268-.006-19.901-.004-3.317.002-6.634.004-9.951.011l-4.776.013c-.932.002-2.048.158-2.964-.094-.627-.174-.814-.715-.806-1.316.02-1.441.518-2.924.759-4.342.543-3.193.89-6.416 1.183-9.643.593-6.527 1.136-13.072 1.347-19.627.209-6.504.003-13.029-.67-19.498-.331-3.189-.795-6.367-1.449-9.508C.975 33.038.263 30.212.089 27.249c-.328-5.582.97-11.088 3.898-15.863C6.72 6.928 10.834 3.84 15.721 2.064 21.696-.106 28.007.015 34.267.035 40.866.056 47.464.013 54.064.011c6.597-.003 13.192.034 19.791.215 4.941.137 9.908 1.019 14.252 3.496 4.613 2.629 8.197 6.862 9.906 11.899 1.957 5.777 1.827 12.262 1.836 18.291.017 13.041.428 26.125-.021 39.162-.176 5.041-1.145 10.145-3.738 14.533-2.748 4.651-7.089 8.107-12.105 10.035-5.844 2.246-12.051 2.421-18.23 2.314-6.49-.111-12.98.047-19.473.014-2.493-.011-4.985-.031-7.476-.031-11.941.002 6.556 0 0 0zm2.849-14.314c0-.07 17.863-.027 19.555-.045 3.149-.023 6.341.084 9.437-.604 2.674-.592 5.233-1.691 7.478-3.266 3.683-2.582 6.093-6.438 6.832-10.869.478-2.859.321-5.83.347-8.719.027-3.328.033-6.654.021-9.982-.014-3.328-.043-6.655-.088-9.982-.041-3.158.078-6.328-.053-9.481-.205-4.94-1.652-10.068-5.283-13.609a13.183 13.183 0 0 0-5.418-3.2c-2.674-.797-5.596-.707-8.356-.857-6.599-.365-13.205-.635-19.815-.623-3.303.006-6.607.084-9.906.254-2.948.152-6.037.182-8.932.799-4.294.918-8.128 3.613-10.397 7.381-2.956 4.909-2.423 10.362-1.473 15.77 1.124 6.402 1.383 12.863 1.374 19.349-.006 4.813-.133 9.591-.639 14.381a274.637 274.637 0 0 1-.845 6.938c-.152 1.156-.307 2.312-.458 3.466-.089.685-.248 1.505.087 2.151.657 1.267 3.101.783 4.188.771a871.05 871.05 0 0 1 7.582-.039c4.918-.007 9.84.016 14.762.016 0-.018-8.114 0 0 0z" transform="matrix(-2.17 0 0 2.17 217 0)" style="fill:#fff"/><path d="M38.806 99.939c-6.634.002-13.268-.006-19.901-.004-3.317.002-6.634.004-9.951.011l-4.776.013c-.932.002-2.048.158-2.964-.094-.627-.174-.814-.715-.806-1.316.02-1.441.518-2.924.759-4.342.543-3.193.89-6.416 1.183-9.643.593-6.527 1.136-13.072 1.347-19.627.209-6.504.003-13.029-.67-19.498-.331-3.189-.795-6.367-1.449-9.508C.975 33.038.263 30.212.089 27.249c-.328-5.582.97-11.088 3.898-15.863C6.72 6.928 10.834 3.84 15.721 2.064 21.696-.106 28.007.015 34.267.035 40.866.056 47.464.013 54.064.011c6.597-.003 13.192.034 19.791.215 4.941.137 9.908 1.019 14.252 3.496 4.613 2.629 8.197 6.862 9.906 11.899 1.957 5.777 1.827 12.262 1.836 18.291.017 13.041.428 26.125-.021 39.162-.176 5.041-1.145 10.145-3.738 14.533-2.748 4.651-7.089 8.107-12.105 10.035-5.844 2.246-12.051 2.421-18.23 2.314-6.49-.111-12.98.047-19.473.014-2.493-.011-4.985-.031-7.476-.031-11.941.002 6.556 0 0 0zm2.849-14.314c0-.07 17.863-.027 19.555-.045 3.149-.023 6.341.084 9.437-.604 2.674-.592 5.233-1.691 7.478-3.266 3.683-2.582 6.093-6.438 6.832-10.869.478-2.859.321-5.83.347-8.719.027-3.328.033-6.654.021-9.982-.014-3.328-.043-6.655-.088-9.982-.041-3.158.078-6.328-.053-9.481-.205-4.94-1.652-10.068-5.283-13.609a13.183 13.183 0 0 0-5.418-3.2c-2.674-.797-5.596-.707-8.356-.857-6.599-.365-13.205-.635-19.815-.623-3.303.006-6.607.084-9.906.254-2.948.152-6.037.182-8.932.799-4.294.918-8.128 3.613-10.397 7.381-2.956 4.909-2.423 10.362-1.473 15.77 1.124 6.402 1.383 12.863 1.374 19.349-.006 4.813-.133 9.591-.639 14.381a274.637 274.637 0 0 1-.845 6.938c-.152 1.156-.307 2.312-.458 3.466-.089.685-.248 1.505.087 2.151.657 1.267 3.101.783 4.188.771a871.05 871.05 0 0 1 7.582-.039c4.918-.007 9.84.016 14.762.016 0-.018-8.114 0 0 0z" transform="translate(806) scale(2.17)" style="fill:#fff"/><path d="M38.806 99.939c-6.634.002-13.268-.006-19.901-.004-3.317.002-6.634.004-9.951.011l-4.776.013c-.932.002-2.048.158-2.964-.094-.627-.174-.814-.715-.806-1.316.02-1.441.518-2.924.759-4.342.543-3.193.89-6.416 1.183-9.643.593-6.527 1.136-13.072 1.347-19.627.209-6.504.003-13.029-.67-19.498-.331-3.189-.795-6.367-1.449-9.508C.975 33.038.263 30.212.089 27.249c-.328-5.582.97-11.088 3.898-15.863C6.72 6.928 10.834 3.84 15.721 2.064 21.696-.106 28.007.015 34.267.035 40.866.056 47.464.013 54.064.011c6.597-.003 13.192.034 19.791.215 4.941.137 9.908 1.019 14.252 3.496 4.613 2.629 8.197 6.862 9.906 11.899 1.957 5.777 1.827 12.262 1.836 18.291.017 13.041.428 26.125-.021 39.162-.176 5.041-1.145 10.145-3.738 14.533-2.748 4.651-7.089 8.107-12.105 10.035-5.844 2.246-12.051 2.421-18.23 2.314-6.49-.111-12.98.047-19.473.014-2.493-.011-4.985-.031-7.476-.031-11.941.002 6.556 0 0 0zm2.849-14.314c0-.07 17.863-.027 19.555-.045 3.149-.023 6.341.084 9.437-.604 2.674-.592 5.233-1.691 7.478-3.266 3.683-2.582 6.093-6.438 6.832-10.869.478-2.859.321-5.83.347-8.719.027-3.328.033-6.654.021-9.982-.014-3.328-.043-6.655-.088-9.982-.041-3.158.078-6.328-.053-9.481-.205-4.94-1.652-10.068-5.283-13.609a13.183 13.183 0 0 0-5.418-3.2c-2.674-.797-5.596-.707-8.356-.857-6.599-.365-13.205-.635-19.815-.623-3.303.006-6.607.084-9.906.254-2.948.152-6.037.182-8.932.799-4.294.918-8.128 3.613-10.397 7.381-2.956 4.909-2.423 10.362-1.473 15.77 1.124 6.402 1.383 12.863 1.374 19.349-.006 4.813-.133 9.591-.639 14.381a274.637 274.637 0 0 1-.845 6.938c-.152 1.156-.307 2.312-.458 3.466-.089.685-.248 1.505.087 2.151.657 1.267 3.101.783 4.188.771a871.05 871.05 0 0 1 7.582-.039c4.918-.007 9.84.016 14.762.016 0-.018-8.114 0 0 0z" transform="matrix(-2.17 0 0 -2.17 217 1023)" style="fill:#fff"/><path d="M0 0h100v100H0z" transform="matrix(.93 0 0 .93 62 62)" style="fill:#fff"/><path d="M0 0h100v100H0z" transform="matrix(.93 0 0 .93 868 62)" style="fill:#fff"/><path d="M0 0h100v100H0z" transform="matrix(.93 0 0 .93 62 868)" style="fill:#fff"/></mask></defs><path fill="url(#a)" mask="url(#b)" d="M0 0h1023v1023H0z" transform="translate(62 62)"/></svg>